<svg xmlns="http://www.w3.org/2000/svg" viewBox="0 0 500 372.61"><defs><style>.cls-1{isolation:isolate;}.cls-2{fill:#e6e6e6;}.cls-3{fill:#e0e0e0;}.cls-15,.cls-4{fill:#fafafa;}.cls-22,.cls-5{fill:#f5f5f5;}.cls-6{fill:#f0f0f0;}.cls-18,.cls-21,.cls-23,.cls-7{fill:#fff;}.cls-8{fill:#e58a7b;}.cls-16,.cls-17,.cls-9{fill:#407bff;}.cls-10{opacity:0.2;}.cls-11{fill:#e8ecf1;}.cls-11,.cls-22{mix-blend-mode:multiply;}.cls-12{fill:#263238;}.cls-13{fill:#cf6f64;}.cls-14{fill:#df5753;}.cls-15{opacity:0.56;}.cls-16{opacity:0.07;}.cls-17{opacity:0.47;}.cls-18{opacity:0.1;}.cls-19{opacity:0.6;}.cls-20,.cls-21{opacity:0.4;}.cls-23{opacity:0.3;}</style></defs><title>Mobile login</title><g class="cls-1"><g id="Background_complete" data-name="Background complete"><rect class="cls-2" y="327.45" width="500" height="0.25"/><rect class="cls-2" x="91.7" y="342.58" width="33.12" height="0.25"/><rect class="cls-2" x="62.03" y="342.58" width="19.19" height="0.25"/><rect class="cls-2" x="191.36" y="346.26" width="19.19" height="0.25"/><rect class="cls-2" x="267.42" y="351.84" width="43.19" height="0.25"/><rect class="cls-2" x="252.19" y="351.84" width="6.33" height="0.25"/><rect class="cls-2" x="359.67" y="346.26" width="93.68" height="0.25"/><path class="cls-2" d="M270.89,346.81H77.79a5.71,5.71,0,0,1-5.71-5.71V69.67A5.71,5.71,0,0,1,77.79,64h193.1a5.71,5.71,0,0,1,5.7,5.7V341.1A5.71,5.71,0,0,1,270.89,346.81ZM77.79,64.22a5.46,5.46,0,0,0-5.46,5.45V341.1a5.47,5.47,0,0,0,5.46,5.46h193.1a5.46,5.46,0,0,0,5.45-5.46V69.67a5.45,5.45,0,0,0-5.45-5.45Z" transform="translate(-33.87 -63.97)"/><path class="cls-2" d="M487.18,346.81H294.09a5.71,5.71,0,0,1-5.71-5.71V69.67a5.71,5.71,0,0,1,5.71-5.7H487.18a5.71,5.71,0,0,1,5.71,5.7V341.1A5.71,5.71,0,0,1,487.18,346.81ZM294.09,64.22a5.46,5.46,0,0,0-5.46,5.45V341.1a5.47,5.47,0,0,0,5.46,5.46H487.18a5.47,5.47,0,0,0,5.46-5.46V69.67a5.46,5.46,0,0,0-5.46-5.45Z" transform="translate(-33.87 -63.97)"/><rect class="cls-3" x="245.41" y="242.02" width="21.99" height="87.23"/><polygon class="cls-4" points="263.22 329.26 267.4 329.26 267.4 317.38 258.84 317.38 263.22 329.26"/><rect class="cls-3" x="149.05" y="242.02" width="21.99" height="87.23"/><rect class="cls-4" x="167.4" y="242.02" width="100" height="79.94"/><path class="cls-3" d="M297.65,309.92v21.15H204.9V309.92h92.75m.38-.39H204.51v21.93H298V309.53Z" transform="translate(-33.87 -63.97)"/><polygon class="cls-4" points="171.57 329.26 167.4 329.26 167.4 317.38 175.95 317.38 171.57 329.26"/><path class="cls-2" d="M249.06,320.5a2.21,2.21,0,1,0,2.21-2.22A2.21,2.21,0,0,0,249.06,320.5Z" transform="translate(-33.87 -63.97)"/><path class="cls-3" d="M297.65,335.39v21.15H204.9V335.39h92.75M298,335H204.51v21.92H298V335Z" transform="translate(-33.87 -63.97)"/><path class="cls-2" d="M249.06,346a2.21,2.21,0,1,0,2.21-2.21A2.21,2.21,0,0,0,249.06,346Z" transform="translate(-33.87 -63.97)"/><path class="cls-3" d="M297.65,360.85V382H204.9V360.85h92.75m.38-.38H204.51v21.92H298V360.47Z" transform="translate(-33.87 -63.97)"/><path class="cls-2" d="M249.06,371.43a2.21,2.21,0,1,0,2.21-2.21A2.21,2.21,0,0,0,249.06,371.43Z" transform="translate(-33.87 -63.97)"/><rect class="cls-3" x="135.62" y="191.36" width="21.99" height="137.9"/><polygon class="cls-4" points="153.43 329.26 157.61 329.26 157.61 317.38 149.06 317.38 153.43 329.26"/><rect class="cls-3" x="53.44" y="191.36" width="21.99" height="137.9"/><rect class="cls-4" x="71.78" y="191.36" width="85.83" height="130.61"/><path class="cls-3" d="M187.79,259V288.6H109.35V259h78.44m.45-.46H108.9v30.48h79.34V258.57Z" transform="translate(-33.87 -63.97)"/><path class="cls-3" d="M187.79,292.19v78.44H150.43V292.19h37.36m.45-.45H150v79.34h38.27V291.74Z" transform="translate(-33.87 -63.97)"/><path class="cls-3" d="M146.71,292.19v78.44H109.35V292.19h37.36m.46-.45H108.9v79.34h38.27V291.74Z" transform="translate(-33.87 -63.97)"/><polygon class="cls-4" points="75.96 329.26 71.78 329.26 71.78 317.38 80.34 317.38 75.96 329.26"/><path class="cls-2" d="M146.36,273.81a2.21,2.21,0,1,0,2.21-2.21A2.21,2.21,0,0,0,146.36,273.81Z" transform="translate(-33.87 -63.97)"/><path class="cls-2" d="M154.28,329.54a2.21,2.21,0,1,0,2.21-2.21A2.21,2.21,0,0,0,154.28,329.54Z" transform="translate(-33.87 -63.97)"/><path class="cls-2" d="M138.44,329.54a2.21,2.21,0,1,0,2.21-2.21A2.21,2.21,0,0,0,138.44,329.54Z" transform="translate(-33.87 -63.97)"/><path class="cls-3" d="M136,216.88h-9.28s1.61,8.58,1.61,13.62-7,24.83,3,24.83,3-19.78,3-24.83S136,216.88,136,216.88Z" transform="translate(-33.87 -63.97)"/><path class="cls-5" d="M100.68,237.16v6a12.17,12.17,0,0,0,12.14,12.14h6A12.18,12.18,0,0,0,131,243.19v-6Z" transform="translate(-33.87 -63.97)"/><path class="cls-3" d="M229.54,293.28c0,7,7.83,12.71,17.4,12.71h8.64c9.57,0,17.41-5.72,17.41-12.71Z" transform="translate(-33.87 -63.97)"/><path class="cls-3" d="M458.48,283c-5.24,4.28-12.47,12.11-19.1,23.13-4.41,7.34-7.07,15-8.24,25.19,0-11.5.06-23.86.1-35.52,1.33-3,4.37-9.92,6.55-15.38,7.28-18.23,10-22.71,16.53-38.44,8.73-21,17.68-45.86,15.12-43.87-5.22,4-25.22,41.5-27.38,46.86a150,150,0,0,0-10.8,44.86c0-11,.08-21,.13-28.77.13-25.31.56-33.48.77-36,.81-1.28,1.77-2.77,2.32-3.57,4.7-6.79,6.51-12.58,10.94-22.71,6.27-14.36,11.67-39.85,10.09-38.56-6.57,5.35-11.76,16.86-18.57,31.52s-4.87,23.1-6.22,35.62c-.29,2.46-.5,11.74-.66,24.59-1.77-13.69-5.09-22.72-11.14-30.92-7.44-10.09-14.64-16.9-19.92-20.46s9.12,21.22,16,32c6.13,9.63,11.79,18.13,15,26.5-.17,17.42-.25,39.48-.25,60-1.58-9.35-4.16-19.41-7.6-27.21-4.13-9.36-10.5-23.72-15.56-28.59-1.22-1.17,5.29,26.76,9.47,34.19s7.25,14.42,9.88,18.63c.62,1,2.65,4.77,3.81,6.95,0,25.07.14,47.19.36,54.72h1.08c-.07-1.94-.08-14.69-.06-31.57,2.61-9.17,8.57-19.63,13.5-29.17C450,306.71,463.72,278.77,458.48,283Z" transform="translate(-33.87 -63.97)"/><polygon class="cls-6" points="412.44 329.26 381.1 329.26 378.73 298.54 414.81 298.54 412.44 329.26"/><polygon class="cls-5" points="417.14 302.12 376.39 302.12 375.23 291.75 418.31 291.75 417.14 302.12"/><rect class="cls-3" x="68.21" y="20.54" width="56.05" height="61.55"/><rect class="cls-5" x="72.43" y="20.54" width="57.9" height="61.55"/><rect class="cls-7" x="109.33" y="91.19" width="51.85" height="48.2" transform="translate(216.67 -83.94) rotate(90)"/><rect class="cls-5" x="121.9" y="102.87" width="26.71" height="24.83" transform="translate(216.67 -83.94) rotate(90)"/><rect class="cls-3" x="357.98" y="27.72" width="52.07" height="57.18"/><rect class="cls-5" x="361.91" y="27.72" width="53.78" height="57.18"/><rect class="cls-7" x="398.59" y="97.89" width="48.16" height="44.77" transform="translate(509.07 -366.36) rotate(90)"/><circle class="cls-5" cx="388.8" cy="56.31" r="13.97"/><rect class="cls-3" x="140.91" y="57.24" width="41.58" height="45.66"/><rect class="cls-5" x="144.04" y="57.24" width="42.95" height="45.66"/><rect class="cls-7" x="180.16" y="126.16" width="38.46" height="35.75" transform="translate(309.56 -119.32) rotate(90)"/><polygon class="cls-5" points="165.52 70.35 155.74 87.29 175.3 87.29 165.52 70.35"/></g><g id="Background_simple" data-name="Background simple"><path class="cls-5" d="M134.46,237.74C193,298.1,269.93,340,341.24,272.37c36.76-34.84,85.34-128.93,37.4-172-66.07-59.34-104,37.75-153.37,50.91-33.86,9-62.33-43-102.86-8.26C90.37,170.47,110.12,212.65,134.46,237.74Z" transform="translate(-33.87 -63.97)"/></g><g id="Shadow"><ellipse class="cls-5" cx="250" cy="361.29" rx="193.89" ry="11.32"/></g><g id="Character_2" data-name="Character 2"><path class="cls-8" d="M383.12,172.44l-9.92-4s-13.09,23.88-16.84,25.08c-5.1,1.64-15.65,6.2-21.92,7.05-.85,1-2.24,4.11-2.11,5.24,8.42,2.81,26.9-.92,30.85-3.85C372.2,195.24,383.12,172.44,383.12,172.44Z" transform="translate(-33.87 -63.97)"/><path class="cls-9" d="M386.17,167C388,173.87,378,187.6,378,187.6l-13.16-7.38s2.45-5.65,5.46-11.4C375.15,159.54,384.07,159.22,386.17,167Z" transform="translate(-33.87 -63.97)"/><path class="cls-10" d="M386.17,167C388,173.87,378,187.6,378,187.6l-13.16-7.38s2.45-5.65,5.46-11.4C375.15,159.54,384.07,159.22,386.17,167Z" transform="translate(-33.87 -63.97)"/><path class="cls-10" d="M370.09,183.16l5.17,2.9.9-15.87C373.16,172.5,371,179.46,370.09,183.16Z" transform="translate(-33.87 -63.97)"/><path class="cls-9" d="M377.54,161.88s-10.22,22.73-4.27,65.07h40.28c.64-6.18-1.48-36.34,6.19-65.46a101.42,101.42,0,0,0-13.38-1.7,145.85,145.85,0,0,0-17.12,0A77.17,77.17,0,0,0,377.54,161.88Z" transform="translate(-33.87 -63.97)"/><path class="cls-10" d="M377.54,161.88s-10.22,22.73-4.27,65.07h40.28c.64-6.18-1.48-36.34,6.19-65.46a101.42,101.42,0,0,0-13.38-1.7,145.85,145.85,0,0,0-17.12,0A77.17,77.17,0,0,0,377.54,161.88Z" transform="translate(-33.87 -63.97)"/><path class="cls-11" d="M368.2,426.15c-.07,1.08,15.2,2,34.1,2s34.27-.87,34.33-2-15.21-1.94-34.1-1.94S368.26,425.08,368.2,426.15Z" transform="translate(-33.87 -63.97)"/><rect class="cls-8" x="391.69" y="399.97" width="7.68" height="17.09" transform="translate(-154.31 105.57) rotate(-21.07)"/><polygon class="cls-8" points="393.05 354.5 385.52 354.5 382.76 337.07 390.29 337.07 393.05 354.5"/><path class="cls-12" d="M418.91,417.6h8.46a.61.61,0,0,1,.61.52l1.1,6.69a1.18,1.18,0,0,1-1.18,1.34c-2.95-.05-4.38-.22-8.1-.22-2.29,0-7,.23-10.18.23s-3.39-3.12-2.08-3.4c5.88-1.27,8.17-3,10.12-4.69A2,2,0,0,1,418.91,417.6Z" transform="translate(-33.87 -63.97)"/><path class="cls-12" d="M393.85,415l8-2.33a.61.61,0,0,1,.74.31l3,6a1.15,1.15,0,0,1-.75,1.6c-2.9.79-4.86,1.29-8.5,2.34-2.51.73-5.06,1.92-7.55,2.71-1.72.55-5.75.57-7.84.57-3.1,0-3.78-3.25-2.46-3.4,3.35-.38,3.8-.21,5.65-1.13a26,26,0,0,0,8.08-5.58A3.66,3.66,0,0,1,393.85,415Z" transform="translate(-33.87 -63.97)"/><path class="cls-8" d="M335.71,200.48,327.42,197,324,206.17a34,34,0,0,0,10.24,0Z" transform="translate(-33.87 -63.97)"/><polygon class="cls-8" points="287.39 132.81 287.17 138.91 290.14 142.21 293.55 133.03 287.39 132.81"/><rect class="cls-13" x="390.2" y="400.25" width="7.68" height="8.81" transform="translate(-153.15 105.07) rotate(-21.11)"/><polygon class="cls-13" points="390.29 337.07 382.76 337.07 384.19 346.06 391.72 346.06 390.29 337.07"/><path class="cls-10" d="M372,215.5q.21,2.72.53,5.56l30-9.72A21.51,21.51,0,0,0,414,203c.11-2.67.26-5.47.49-8.4.1-1.43.23-2.89.36-4.37s.31-3.11.49-4.7Z" transform="translate(-33.87 -63.97)"/><path class="cls-7" d="M381.77,182.7l-1-.12c.6-5,4.32-8.93,8.26-8.84l0,1C385.58,174.67,382.31,178.23,381.77,182.7Z" transform="translate(-33.87 -63.97)"/><path class="cls-7" d="M387.1,191.93h-.17l0-1c3.44.13,6.67-3.45,7.21-7.93l1,.12C394.6,188,391,191.93,387.1,191.93Z" transform="translate(-33.87 -63.97)"/><path class="cls-8" d="M405.79,140.51c-1.4,5.51-3.07,15.6.57,19.28,0,0-2.54,5.58-12.78,5.58-9.35,0-4.34-5.58-4.34-5.58,6.23-1.47,6.34-6,5.52-10.31Z" transform="translate(-33.87 -63.97)"/><path class="cls-13" d="M401.29,144.17l-6.53,5.31a16.67,16.67,0,0,1,.35,3c1.91,1.9,5.74-2.92,6.14-5.38A8.21,8.21,0,0,0,401.29,144.17Z" transform="translate(-33.87 -63.97)"/><path class="cls-13" d="M383.54,140.44a6.56,6.56,0,0,0,4.24,3.14c2.4.53,3.61-1.68,3-3.9-.6-2-2.57-4.69-5-4.23A3.33,3.33,0,0,0,383.54,140.44Z" transform="translate(-33.87 -63.97)"/><path class="cls-12" d="M387.5,122.81c-3.74,1.72-5.06,16.57-.36,18.77S394.58,119.57,387.5,122.81Z" transform="translate(-33.87 -63.97)"/><path class="cls-8" d="M406.93,132.22c-.89,7.46-1,11.85-5,15.68a9.61,9.61,0,0,1-16.35-5.11c-1.21-6.7.46-17.77,7.93-20.74A9.63,9.63,0,0,1,406.93,132.22Z" transform="translate(-33.87 -63.97)"/><path class="cls-12" d="M394.65,126.68c5.53-1.42,9.6-2.38,8.15,2.24-1.94,6.15-4.26,12.11-1.14,12.39,1.89.16,10.29-3.4,9.22-7-.93-3.14,3-4,3.7-5.59,2.59-5.77-4.82-5-3.5-8.51s-6-9.14-10-6.33c-6.5,4.54-17.68,4.47-11.8-3,4.21-5.34-3.3-4.24-3.3-4.24s4.53,2.69-3.1,6.85C374.79,117.93,382.2,129.86,394.65,126.68Z" transform="translate(-33.87 -63.97)"/><path class="cls-8" d="M409.82,140.44a7.68,7.68,0,0,1-4.61,3.14c-2.46.53-3.41-1.68-2.49-3.9.83-2,3.11-4.69,5.47-4.23S411.14,138.48,409.82,140.44Z" transform="translate(-33.87 -63.97)"/><path class="cls-9" d="M373.27,227s-6.75,60.5-7.28,83.46c-.55,23.88,22.91,98.39,22.91,98.39l12-5s-14-68.07-12.05-91.53C391,286.66,399.75,227,399.75,227Z" transform="translate(-33.87 -63.97)"/><path class="cls-10" d="M390.07,243.56c-5.38,11.18-1.75,33.29,1.16,46.39,1.11-9.25,2.43-19.29,3.68-28.58C394.79,247.09,393.68,236.06,390.07,243.56Z" transform="translate(-33.87 -63.97)"/><path class="cls-9" d="M400.36,399.84c.06,0,1.43,3.83,1.43,3.83l-13.85,5.81-2.18-4.06Z" transform="translate(-33.87 -63.97)"/><path class="cls-9" d="M387.56,227s5.17,57.54,8.6,79.1c3.75,23.6,18.49,102.23,18.49,102.23h13.79s-8.26-76.72-9.82-100.09c-1.69-25.37-5.07-81.24-5.07-81.24Z" transform="translate(-33.87 -63.97)"/><path class="cls-9" d="M428.65,404.69c.06,0,.47,3.85.47,3.85H414l-1.08-4.42Z" transform="translate(-33.87 -63.97)"/><path class="cls-10" d="M423.37,400.14a.14.14,0,0,1-.13-.12c-.07-.7-7.52-70-8.92-91-1.53-22.79-4.58-73.32-4.62-73.82a.13.13,0,0,1,.12-.14h0a.12.12,0,0,1,.13.12c0,.51,3.09,51,4.61,73.82,1.4,21,8.85,90.26,8.93,90.95a.12.12,0,0,1-.11.14Z" transform="translate(-33.87 -63.97)"/><path class="cls-12" d="M395.5,134.31c0,.6-.39,1.1-.78,1.1s-.69-.5-.66-1.1.39-1.1.78-1.1S395.53,133.7,395.5,134.31Z" transform="translate(-33.87 -63.97)"/><path class="cls-12" d="M388.63,134.31c0,.6-.38,1.1-.78,1.1s-.69-.5-.65-1.1.38-1.1.78-1.1S388.67,133.7,388.63,134.31Z" transform="translate(-33.87 -63.97)"/><path class="cls-14" d="M390.8,134.61a23.49,23.49,0,0,1-3.21,5.19,3.44,3.44,0,0,0,2.87.55Z" transform="translate(-33.87 -63.97)"/><path class="cls-12" d="M391,142.89a.15.15,0,0,1-.16-.17.19.19,0,0,1,.18-.18,5.2,5.2,0,0,0,4-1.88.18.18,0,0,1,.25-.06.18.18,0,0,1,0,.25A5.46,5.46,0,0,1,391,142.89Z" transform="translate(-33.87 -63.97)"/><path class="cls-12" d="M396.72,132.46a.36.36,0,0,1-.32,0,2.8,2.8,0,0,0-2.54-.26.35.35,0,0,1-.47-.17.38.38,0,0,1,.2-.48,3.52,3.52,0,0,1,3.22.3.35.35,0,0,1,.09.49A.38.38,0,0,1,396.72,132.46Z" transform="translate(-33.87 -63.97)"/><path class="cls-12" d="M386,130.46a.37.37,0,0,1-.14-.07.36.36,0,0,1,0-.51,3.75,3.75,0,0,1,3.09-1.24.33.33,0,0,1,.27.41.38.38,0,0,1-.42.3h0a3,3,0,0,0-2.43,1A.37.37,0,0,1,386,130.46Z" transform="translate(-33.87 -63.97)"/><path class="cls-8" d="M423.6,171.33l-10.4-2.77s-10.2,25.11-13.8,26.75c-4.9,2.23-17.32,9.94-22.59,13.66-.3,1.25-.07,4.57.6,5.47,9-1.63,26.23-8.27,29.83-11.64C415.44,195.11,423.6,171.33,423.6,171.33Z" transform="translate(-33.87 -63.97)"/><path class="cls-9" d="M416.35,418.91a2.21,2.21,0,0,1-1.43-.38,1,1,0,0,1-.31-.95.61.61,0,0,1,.33-.5c.85-.43,3.2,1.06,3.46,1.23a.17.17,0,0,1,.07.19.18.18,0,0,1-.14.14A8.85,8.85,0,0,1,416.35,418.91Zm-1-1.56a.57.57,0,0,0-.24,0c-.05,0-.1.07-.12.21a.67.67,0,0,0,.2.64c.39.35,1.37.4,2.67.14A6.87,6.87,0,0,0,415.32,417.35Z" transform="translate(-33.87 -63.97)"/><path class="cls-9" d="M418.29,418.64a.11.11,0,0,1-.08,0c-.76-.42-2.17-2.07-2-2.91a.65.65,0,0,1,.6-.47,1,1,0,0,1,.74.23c.83.72.89,2.89.89,3a.22.22,0,0,1-.09.17A.18.18,0,0,1,418.29,418.64ZM417,415.59h-.08c-.24,0-.26.13-.27.18-.13.49.76,1.74,1.5,2.33a4.09,4.09,0,0,0-.75-2.36A.57.57,0,0,0,417,415.59Z" transform="translate(-33.87 -63.97)"/><path class="cls-9" d="M389.79,417.67a2.83,2.83,0,0,1-1.88,0,.91.91,0,0,1-.49-.76.62.62,0,0,1,.2-.53c.81-.72,4.07.05,4.44.14a.18.18,0,0,1,.13.16.2.2,0,0,1-.12.18A13.9,13.9,0,0,1,389.79,417.67Zm-1.62-1.19a.73.73,0,0,0-.32.14.24.24,0,0,0-.08.21.61.61,0,0,0,.32.51c.53.29,1.76.06,3.35-.61A9.73,9.73,0,0,0,388.17,416.48Z" transform="translate(-33.87 -63.97)"/><path class="cls-9" d="M392,416.85H392c-1-.18-3-1.33-3.06-2.19,0-.2.09-.47.56-.64a1.28,1.28,0,0,1,1,.06c1.09.54,1.66,2.46,1.68,2.54a.18.18,0,0,1,0,.17A.21.21,0,0,1,392,416.85Zm-2.36-2.53-.11,0c-.31.11-.31.23-.31.27,0,.52,1.45,1.47,2.47,1.79a3.87,3.87,0,0,0-1.4-2A1,1,0,0,0,389.68,414.32Z" transform="translate(-33.87 -63.97)"/><path class="cls-8" d="M377.65,208.39l-10.43,4.8L366,216.13l3.86,2.59s7.19-.78,9.24-5.4Z" transform="translate(-33.87 -63.97)"/><path class="cls-12" d="M378.1,214.61a14.54,14.54,0,0,0-1.94-5.66l1.64-1.23c.07.08,1.58,2.12,2.32,6.55Z" transform="translate(-33.87 -63.97)"/><path class="cls-12" d="M379.87,209.8a2,2,0,1,1-2.44-.77A1.83,1.83,0,0,1,379.87,209.8Z" transform="translate(-33.87 -63.97)"/><polygon class="cls-8" points="326.3 153.1 327.69 154.5 337.05 150.5 333.35 149.22 326.3 153.1"/><path class="cls-10" d="M400.36,399.84c.06,0,1.43,3.83,1.43,3.83l-13.85,5.81-2.18-4.06Z" transform="translate(-33.87 -63.97)"/><path class="cls-10" d="M428.65,404.69c.06,0,.47,3.85.47,3.85H414l-1.08-4.42Z" transform="translate(-33.87 -63.97)"/><path class="cls-9" d="M426.32,168.45c2.75,8.87-8,21-8,21l-14.85-6.06a152.21,152.21,0,0,1,6.07-15.07C414.11,158.49,423.54,159.5,426.32,168.45Z" transform="translate(-33.87 -63.97)"/><path class="cls-10" d="M426.32,168.45c2.75,8.87-8,21-8,21l-14.85-6.06a152.21,152.21,0,0,1,6.07-15.07C414.11,158.49,423.54,159.5,426.32,168.45Z" transform="translate(-33.87 -63.97)"/></g><g id="Screen"><rect class="cls-9" x="238.49" y="15.62" width="6.39" height="1.03"/><rect class="cls-9" x="353.01" y="128.44" width="17.18" height="1.03" transform="translate(182.64 420.42) rotate(-87.42)"/><polygon class="cls-9" points="325.61 20.24 207.61 20.24 196.63 265.96 314.63 265.96 325.61 20.24"/><polygon class="cls-15" points="322.09 23.61 204.09 23.61 193.11 269.33 311.11 269.33 322.09 23.61"/><polygon class="cls-16" points="318.57 26.98 200.57 26.98 189.58 272.7 307.58 272.7 318.57 26.98"/><polygon class="cls-7" points="305.14 134.15 204.42 134.15 203.58 152.96 304.3 152.96 305.14 134.15"/><polygon class="cls-9" points="259.81 120.44 205.03 120.44 204.66 128.85 259.44 128.85 259.81 120.44"/><polygon class="cls-7" points="302.87 184.9 202.15 184.9 201.31 203.7 302.03 203.7 302.87 184.9"/><polygon class="cls-17" points="284.4 229.08 216.67 229.08 215.66 251.62 283.39 251.62 284.4 229.08"/><path class="cls-7" d="M313.74,319.08H246a.09.09,0,0,1-.08,0,.09.09,0,0,1,0-.09l1-22.53a.12.12,0,0,1,.12-.12h67.73a.18.18,0,0,1,.09,0,.12.12,0,0,1,0,.09l-1,22.53A.12.12,0,0,1,313.74,319.08Zm-67.6-.24h67.49l1-22.3H247.13Z" transform="translate(-33.87 -63.97)"/><polygon class="cls-9" points="247.98 171.18 202.76 171.18 202.39 179.59 247.6 179.59 247.98 171.18"/><path class="cls-7" d="M317,137.39a26.51,26.51,0,0,1-5.56,15.06A26.93,26.93,0,0,1,290.22,163,24.31,24.31,0,0,1,270,152.45a24.6,24.6,0,0,1-4.22-15.06,27.06,27.06,0,0,1,26.76-25.62A24.28,24.28,0,0,1,317,137.39Z" transform="translate(-33.87 -63.97)"/><path class="cls-9" d="M319.39,117.14a7.18,7.18,0,0,1-7.11,6.8,6.44,6.44,0,0,1-5.38-2.8,6.52,6.52,0,0,1-1.12-4,7.19,7.19,0,0,1,7.11-6.81A6.45,6.45,0,0,1,319.39,117.14Z" transform="translate(-33.87 -63.97)"/><path class="cls-12" d="M249.14,207.52a3.18,3.18,0,0,1-3.15,3,2.86,2.86,0,0,1-2.88-3,3.19,3.19,0,0,1,3.15-3A2.86,2.86,0,0,1,249.14,207.52Z" transform="translate(-33.87 -63.97)"/><path class="cls-12" d="M262.63,207.52a3.18,3.18,0,0,1-3.15,3,2.85,2.85,0,0,1-2.88-3,3.18,3.18,0,0,1,3.15-3A2.86,2.86,0,0,1,262.63,207.52Z" transform="translate(-33.87 -63.97)"/><path class="cls-12" d="M276.11,207.52a3.17,3.17,0,0,1-3.14,3,2.85,2.85,0,0,1-2.88-3,3.18,3.18,0,0,1,3.15-3A2.85,2.85,0,0,1,276.11,207.52Z" transform="translate(-33.87 -63.97)"/><path class="cls-12" d="M246.87,258.26a3.18,3.18,0,0,1-3.15,3,2.87,2.87,0,0,1-2.88-3,3.19,3.19,0,0,1,3.15-3A2.85,2.85,0,0,1,246.87,258.26Z" transform="translate(-33.87 -63.97)"/><path class="cls-12" d="M260.36,258.26a3.19,3.19,0,0,1-3.15,3,2.87,2.87,0,0,1-2.88-3,3.19,3.19,0,0,1,3.15-3A2.86,2.86,0,0,1,260.36,258.26Z" transform="translate(-33.87 -63.97)"/><path class="cls-12" d="M273.85,258.26a3.19,3.19,0,0,1-3.15,3,2.85,2.85,0,0,1-2.88-3,3.18,3.18,0,0,1,3.15-3A2.86,2.86,0,0,1,273.85,258.26Z" transform="translate(-33.87 -63.97)"/><path class="cls-12" d="M287.33,258.26a3.18,3.18,0,0,1-3.15,3,2.85,2.85,0,0,1-2.87-3,3.17,3.17,0,0,1,3.14-3A2.85,2.85,0,0,1,287.33,258.26Z" transform="translate(-33.87 -63.97)"/><path class="cls-12" d="M300.82,258.26a3.18,3.18,0,0,1-3.15,3,2.87,2.87,0,0,1-2.88-3,3.19,3.19,0,0,1,3.15-3A2.86,2.86,0,0,1,300.82,258.26Z" transform="translate(-33.87 -63.97)"/><ellipse class="cls-9" cx="291.75" cy="128.83" rx="10.6" ry="10.13" transform="translate(-40.8 176.71) rotate(-44.36)"/><path class="cls-9" d="M311.42,152.45A26.93,26.93,0,0,1,290.22,163,24.31,24.31,0,0,1,270,152.45c4.86-4.84,12.56-8,21.08-8S307,147.61,311.42,152.45Z" transform="translate(-33.87 -63.97)"/><ellipse class="cls-18" cx="291.75" cy="128.83" rx="10.6" ry="10.13" transform="translate(-40.8 176.71) rotate(-44.36)"/><path class="cls-18" d="M311.42,152.45A26.93,26.93,0,0,1,290.22,163,24.31,24.31,0,0,1,270,152.45c4.86-4.84,12.56-8,21.08-8S307,147.61,311.42,152.45Z" transform="translate(-33.87 -63.97)"/></g><g id="Character_1" data-name="Character 1"><path class="cls-8" d="M164.28,221.46c-.95,2.07-1.94,4.36-2.82,6.59s-1.76,4.5-2.53,6.78a86.2,86.2,0,0,0-3.57,13.8l-.23,1.48a2.39,2.39,0,0,0,.07.74,7.82,7.82,0,0,0,1.1,2.32,29.41,29.41,0,0,0,4.45,5,67.78,67.78,0,0,0,5.52,4.62c1.92,1.47,3.94,2.92,5.92,4.27l-1.86,3.51a70.87,70.87,0,0,1-13.48-7.69,32.08,32.08,0,0,1-6-5.68,14.27,14.27,0,0,1-2.4-4.27,9.68,9.68,0,0,1-.48-2.94c0-.25,0-.6,0-.76l.05-.5.1-1a77.9,77.9,0,0,1,3.26-15.34c.78-2.47,1.62-4.91,2.57-7.31s1.92-4.73,3.14-7.16Z" transform="translate(-33.87 -63.97)"/><path class="cls-8" d="M170.79,266.44l7.06-3.58L176,270.63s-4.85,1.35-7.11-1Z" transform="translate(-33.87 -63.97)"/><polygon class="cls-8" points="150.45 200.17 148.57 206.59 142.15 206.66 143.98 198.9 150.45 200.17"/><path class="cls-14" d="M194.31,184a19.83,19.83,0,0,0,1.58,4,1.62,1.62,0,0,1-1.58.51Z" transform="translate(-33.87 -63.97)"/><ellipse class="cls-12" cx="160.22" cy="118.96" rx="0.75" ry="1.15"/><path class="cls-12" d="M193.91,181.82l1.52-.44S194.65,182.57,193.91,181.82Z" transform="translate(-33.87 -63.97)"/><path class="cls-8" d="M174.77,191.35c.91,4.65,1.82,13.18-1.43,16.29,0,0,1.27,4.72,9.92,4.72,9.51,0,4.55-4.72,4.55-4.72-5.2-1.24-5.06-5.09-4.16-8.71Z" transform="translate(-33.87 -63.97)"/><path class="cls-8" d="M172.25,180.75c.47,7.78.51,11.08,4.44,15.06,5.9,6,15.34,3.72,17.2-4,1.66-7,.6-18.52-7-21.61A10.62,10.62,0,0,0,172.25,180.75Z" transform="translate(-33.87 -63.97)"/><path class="cls-12" d="M173,172c-3.89,1.42-9.09.36-7,12.39,2.16,12.74-1.17,16.93-1.17,16.93s14.79,3.15,29.89-.19c0,0-4.61-8.06-3.31-13.94,1.65-7.51.34-10.28.34-10.28S178.49,170,173,172Z" transform="translate(-33.87 -63.97)"/><path class="cls-8" d="M189.51,184.81a7.84,7.84,0,0,0,1.23,4.16c1,1.62,2.3,1,2.61-.72.29-1.51.08-4.18-1.27-5.21S189.53,183,189.51,184.81Z" transform="translate(-33.87 -63.97)"/><path class="cls-12" d="M169.63,173.32c-1.13-3.14,4.22-8,15.51-6s11.8,11.41,11.8,11.41l-2.29-2.71.1,2.85-11.61,2.23Z" transform="translate(-33.87 -63.97)"/><path class="cls-9" d="M170.59,208.17h0a1.77,1.77,0,0,1,1.45-2c3.51-.58,11.51-1.75,15.53-1.2,3,.42,3.79,2.16,3.91,3.59a1.77,1.77,0,0,1-1.84,1.91l-17.39-.79A1.76,1.76,0,0,1,170.59,208.17Z" transform="translate(-33.87 -63.97)"/><path class="cls-19" d="M170.59,208.17h0a1.77,1.77,0,0,1,1.45-2c3.51-.58,11.51-1.75,15.53-1.2,3,.42,3.79,2.16,3.91,3.59a1.77,1.77,0,0,1-1.84,1.91l-17.39-.79A1.76,1.76,0,0,1,170.59,208.17Z" transform="translate(-33.87 -63.97)"/><polygon class="cls-8" points="146.76 318.91 153.21 323.38 164 308.76 157.55 304.28 146.76 318.91"/><polygon class="cls-8" points="131.72 318.61 138.53 322.5 148.08 307.03 141.27 303.14 131.72 318.61"/><polygon class="cls-13" points="163.99 308.76 158.43 316.3 151.98 311.82 157.54 304.29 163.99 308.76"/><polygon class="cls-13" points="141.26 303.15 148.08 307.03 143.16 315 136.34 311.12 141.26 303.15"/><path class="cls-9" d="M186.07,257s25.18,31.74,20.46,62.08c-3.82,24.51-25.91,57.71-25.91,57.71l-10.39-5.17a340.78,340.78,0,0,0,18.7-45.44,33.6,33.6,0,0,0-4-29.1c-12.76-18.63-33.19-7.54-19.44-40.08Z" transform="translate(-33.87 -63.97)"/><path class="cls-19" d="M186.07,257s25.18,31.74,20.46,62.08c-3.82,24.51-25.91,57.71-25.91,57.71l-10.39-5.17a340.78,340.78,0,0,0,18.7-45.44,33.6,33.6,0,0,0-4-29.1c-12.76-18.63-33.19-7.54-19.44-40.08Z" transform="translate(-33.87 -63.97)"/><path class="cls-20" d="M198.42,277.39l-3.66-3.63c0,.28,7.1,44.05,9.09,56.35a74.45,74.45,0,0,0,2.68-11C208.84,304.22,204,289,198.42,277.39Z" transform="translate(-33.87 -63.97)"/><path class="cls-9" d="M197.32,257s30.32,39.88,31.17,63.8c.71,20-33,58.74-33,58.74l-9.79-6.34s19.73-27.51,24.69-50C208.47,300.93,167.82,257,167.82,257Z" transform="translate(-33.87 -63.97)"/><path class="cls-19" d="M197.32,257s30.32,39.88,31.17,63.8c.71,20-33,58.74-33,58.74l-9.79-6.34s19.73-27.51,24.69-50C208.47,300.93,167.82,257,167.82,257Z" transform="translate(-33.87 -63.97)"/><path class="cls-9" d="M159.81,209.42c-3.25.77-6.35,12.56-6.35,12.56l12.66,8.45s4.22-9.32,2.75-13.4C167.33,212.78,163.91,208.46,159.81,209.42Z" transform="translate(-33.87 -63.97)"/><path class="cls-10" d="M162.29,217l-.89,10.27,4.72,3.15A42.48,42.48,0,0,0,169,221.3Z" transform="translate(-33.87 -63.97)"/><path class="cls-9" d="M201.07,209.65S204.8,211,197.32,257H165.46c.53-13,.54-21-5.65-47.58a94,94,0,0,1,13.53-1.78,101.17,101.17,0,0,1,14.47,0C194,208.21,201.07,209.65,201.07,209.65Z" transform="translate(-33.87 -63.97)"/><path class="cls-8" d="M204.3,217c.73,2,1.49,4.15,2.28,6.23s1.56,4.2,2.38,6.29l2.45,6.28.62,1.57.31.78.16.4c0,.07,0,.06,0,.05a2.4,2.4,0,0,0-.7-.62,2.81,2.81,0,0,0-1.31-.38,2.52,2.52,0,0,0-1.11.2c-.45.21-.46.31-.45.29a1.12,1.12,0,0,0,.23-.23,14.32,14.32,0,0,0,1.42-2.33c.48-.91.92-1.89,1.37-2.89.88-2,1.69-4.07,2.51-6.15s1.57-4.21,2.33-6.34l2.27-6.38,3.86,1c-.77,4.57-1.75,9-2.93,13.52-.57,2.25-1.23,4.48-2,6.73-.38,1.13-.8,2.25-1.29,3.4a22,22,0,0,1-1.9,3.62,10,10,0,0,1-.87,1.08,5.81,5.81,0,0,1-1.82,1.28,4.39,4.39,0,0,1-4.06-.27,5.39,5.39,0,0,1-1.82-1.89c-.15-.25-.28-.51-.37-.7l-.19-.39-.38-.78-.75-1.55c-1-2.08-2-4.17-2.88-6.29s-1.79-4.25-2.65-6.4-1.63-4.29-2.35-6.61Z" transform="translate(-33.87 -63.97)"/><path class="cls-9" d="M201.07,209.65c3.83.91,8.13,12.23,8.13,12.23l-11.38,9.7s-7.38-12.34-5.89-16.42C193.49,210.92,196.06,208.46,201.07,209.65Z" transform="translate(-33.87 -63.97)"/><path class="cls-8" d="M220.85,210.2l4-3.34,2.78,4.33-2,3.62s-3.26,3-6.15,1.46h0A5.19,5.19,0,0,1,220.85,210.2Z" transform="translate(-33.87 -63.97)"/><polygon class="cls-8" points="198.22 142.91 197.92 143.99 191.59 145.06 190.97 142.9 198.22 142.91"/><polygon class="cls-9" points="162.4 316.1 150.98 308.71 153.03 305.16 165.86 313.05 162.4 316.1"/><path class="cls-12" d="M176.86,385.94a6.87,6.87,0,0,1-2.83-1,.19.19,0,0,1-.09-.18.16.16,0,0,1,.12-.16c.31-.1,3-.93,3.79-.28a.64.64,0,0,1,.21.6,1,1,0,0,1-.56.87A1.47,1.47,0,0,1,176.86,385.94Zm-2.25-1.09c1.24.63,2.24.86,2.72.62a.68.68,0,0,0,.36-.58.25.25,0,0,0-.08-.27C177.21,384.28,175.7,384.55,174.61,384.85Z" transform="translate(-33.87 -63.97)"/><path class="cls-12" d="M174.12,385a.19.19,0,0,1-.13-.05.18.18,0,0,1-.05-.18c0-.1.65-2.27,1.68-2.76a1,1,0,0,1,.82,0,.63.63,0,0,1,.46.67c-.07.9-1.9,2.14-2.74,2.35Zm1.94-2.72a.71.71,0,0,0-.28.06,4.25,4.25,0,0,0-1.37,2.18c.88-.37,2.08-1.35,2.12-1.9,0-.09,0-.2-.23-.29A.52.52,0,0,0,176.06,382.26Z" transform="translate(-33.87 -63.97)"/><path class="cls-12" d="M191.14,390.26c-1.12,0-2.69-1.45-3.55-2.34a.18.18,0,0,1,0-.21.21.21,0,0,1,.19-.1c.4.05,3.88.52,4.37,1.5a.62.62,0,0,1,0,.59,1,1,0,0,1-.8.55Zm-2.89-2.2c1.26,1.23,2.36,1.91,3,1.82a.66.66,0,0,0,.51-.37.24.24,0,0,0,0-.23C191.51,388.74,189.65,388.28,188.25,388.06Z" transform="translate(-33.87 -63.97)"/><path class="cls-12" d="M188.35,388a4.13,4.13,0,0,1-.66,0,.19.19,0,0,1-.14-.12.15.15,0,0,1,0-.18c0-.07,1.41-1.7,2.69-1.82a1.33,1.33,0,0,1,1,.33c.4.33.37.63.28.83C191.25,387.68,189.52,388,188.35,388Zm-.25-.38c1.11.06,2.9-.31,3.13-.79,0-.05.08-.17-.18-.39a1,1,0,0,0-.75-.24A4.34,4.34,0,0,0,188.1,387.65Z" transform="translate(-33.87 -63.97)"/><path class="cls-9" d="M174.4,383.93l-8.49-2.4a.62.62,0,0,0-.74.35l-2.87,6.44a1.27,1.27,0,0,0,.83,1.68c3,.79,4.45,1,8.18,2.07,2.29.65,5.58,1.83,8.75,2.73s4.22-2.19,3-2.85c-5.56-2.94-6-5-7.51-7.2A2.1,2.1,0,0,0,174.4,383.93Z" transform="translate(-33.87 -63.97)"/><path class="cls-9" d="M187.82,386.76l-7.24-5a.62.62,0,0,0-.82.08L175,387a1.26,1.26,0,0,0,.23,1.86c2.56,1.71,3.88,2.41,7.06,4.62,2,1.36,5.87,4.37,8.58,6.25s4.7-.7,3.74-1.72c-4.29-4.59-5.24-7.47-5.95-10.08A2,2,0,0,0,187.82,386.76Z" transform="translate(-33.87 -63.97)"/><polygon class="cls-9" points="148.07 313.48 135.02 306.99 136.37 303.46 150.31 310.29 148.07 313.48"/><path class="cls-9" d="M165,255.13,163.87,258c-.11.22.15.45.52.45h33.09c.28,0,.52-.14.54-.32l.29-2.85c0-.2-.23-.37-.55-.37H165.5A.58.58,0,0,0,165,255.13Z" transform="translate(-33.87 -63.97)"/><path class="cls-21" d="M165,255.13,163.87,258c-.11.22.15.45.52.45h33.09c.28,0,.52-.14.54-.32l.29-2.85c0-.2-.23-.37-.55-.37H165.5A.58.58,0,0,0,165,255.13Z" transform="translate(-33.87 -63.97)"/><path class="cls-9" d="M170.18,258.74h-.86c-.17,0-.31-.09-.29-.2l.4-3.7c0-.11.16-.2.34-.2h.86c.17,0,.3.09.29.2l-.4,3.7C170.5,258.65,170.35,258.74,170.18,258.74Z" transform="translate(-33.87 -63.97)"/><path class="cls-9" d="M190.59,258.74h-.87c-.17,0-.3-.09-.29-.2l.41-3.7c0-.11.16-.2.33-.2H191c.17,0,.3.09.29.2l-.41,3.7C190.91,258.65,190.76,258.74,190.59,258.74Z" transform="translate(-33.87 -63.97)"/><ellipse class="cls-22" cx="135.55" cy="362.19" rx="26.79" ry="1.94"/><path class="cls-3" d="M185.75,423.41c-4.74-1.37-10-3.15-13.19-5l-.27-.14V396.81h9.53a2.86,2.86,0,0,0,0-5.71h-9.53V293.28h-5.71V391.1H157a2.86,2.86,0,0,0,0,5.71h9.54v21.43l-.28.14c-3.23,1.88-8.44,3.66-13.18,5a1.4,1.4,0,0,0,.39,2.74h31.84A1.4,1.4,0,0,0,185.75,423.41Z" transform="translate(-33.87 -63.97)"/><rect class="cls-9" x="112.6" y="219.36" width="45.92" height="20.93" rx="5.18"/><path class="cls-9" d="M151.32,304.26v1.82c0,1.5,1.63,2.73,3.63,2.73h29c2,0,3.63-1.23,3.63-2.73v-1.82Z" transform="translate(-33.87 -63.97)"/><path class="cls-23" d="M151.32,304.26v1.82c0,1.5,1.63,2.73,3.63,2.73h29c2,0,3.63-1.23,3.63-2.73v-1.82Z" transform="translate(-33.87 -63.97)"/></g></g></svg>