<svg xmlns="http://www.w3.org/2000/svg" viewBox="0 0 453.53 460.07"><defs><style>.cls-1{fill:#f5f5f5;}.cls-2{fill:#ebebeb;}.cls-3{fill:#e0e0e0;}.cls-4{fill:#fff;}.cls-5{opacity:0.5;}.cls-6{fill:#263238;}.cls-7{fill:#455a64;}.cls-8{opacity:0.3;}.cls-9{fill:#ff725e;}.cls-10{opacity:0.1;}.cls-11{opacity:0.2;}.cls-12{fill:none;stroke:#fbfbfb;stroke-miterlimit:10;}.cls-13{fill:#fafafa;}.cls-14{fill:#ffbf9d;}.cls-15{fill:#ff9a6c;}.cls-16{opacity:0.6;}</style></defs><title>payment</title><g id="Background_Complete" data-name="Background Complete"><path class="cls-1" d="M258.94,100.43a34.27,34.27,0,1,1-39-28.7A34.22,34.22,0,0,1,258.94,100.43Z" transform="translate(-97.97 -58.21)"/><path class="cls-2" d="M250.88,101.64a26.12,26.12,0,1,1-29.71-21.87A26.09,26.09,0,0,1,250.88,101.64Z" transform="translate(-97.97 -58.21)"/><path class="cls-3" d="M250.75,100.83c-.15,0-.43-1.08-1.15-3a27.72,27.72,0,0,0-4.17-7.47,27,27,0,0,0-4.13-4.17,26,26,0,0,0-5.72-3.5,25.82,25.82,0,0,0-7.11-2,26.53,26.53,0,0,0-3.91-.2,25.69,25.69,0,0,0-7.9,1.44,25.55,25.55,0,0,0-9.52,6,26.27,26.27,0,0,0-4.12,5.3,27.31,27.31,0,0,0-2.38,5.37,27.6,27.6,0,0,0-1.25,8.46c0,2,.14,3.19,0,3.21s-.52-1.07-.77-3.17a24.12,24.12,0,0,1,.67-8.89,26.1,26.1,0,0,1,6.54-11.57A25.1,25.1,0,0,1,208.73,84a26.47,26.47,0,0,1,7.26-4,26.58,26.58,0,0,1,8.53-1.56,27,27,0,0,1,8.19,1.13,25.9,25.9,0,0,1,3.64,1.4,26.56,26.56,0,0,1,6,3.9,26,26,0,0,1,4.19,4.6,24.28,24.28,0,0,1,3.79,8.08C250.85,99.64,250.87,100.81,250.75,100.83Z" transform="translate(-97.97 -58.21)"/><path class="cls-3" d="M230.3,120.5,231,125l-4,.67-.73-4.37c-4,.41-8-.2-10.5-1.55l1.39-5.26a16.39,16.39,0,0,0,8.24,1.56l-1.1-6.69c-4.63-.35-9.84-1-10.79-6.74-.71-4.25,1.78-8.4,8-10.17L220.8,88l4-.66.72,4.37a18.44,18.44,0,0,1,8.54,1.09L232.88,98A16.68,16.68,0,0,0,226.41,97l1.12,6.82c4.62.3,9.76,1,10.69,6.63C238.91,114.58,236.46,118.69,230.3,120.5Zm-6.94-17-.94-5.69c-2,.83-2.69,2.13-2.48,3.45S221.51,103.18,223.36,103.45Zm8.49,8.51c-.23-1.4-1.52-2-3.34-2.28l.91,5.53C231.36,114.43,232.06,113.25,231.85,112Z" transform="translate(-97.97 -58.21)"/><path class="cls-1" d="M464.39,286.32a21,21,0,1,1-23.92-17.61A21,21,0,0,1,464.39,286.32Z" transform="translate(-97.97 -58.21)"/><path class="cls-2" d="M459.44,287.07a16,16,0,1,1-18.23-13.43A16,16,0,0,1,459.44,287.07Z" transform="translate(-97.97 -58.21)"/><path class="cls-3" d="M459.36,286.57a9.59,9.59,0,0,1-.7-1.84,17.24,17.24,0,0,0-2.57-4.59,16.45,16.45,0,0,0-2.53-2.56,16,16,0,0,0-3.51-2.14,15.24,15.24,0,0,0-2.09-.77,16.6,16.6,0,0,0-2.27-.47,16,16,0,0,0-2.4-.12,15.78,15.78,0,0,0-2.46.25,17.12,17.12,0,0,0-2.39.63,16.11,16.11,0,0,0-2.2,1,14.52,14.52,0,0,0-2,1.25,14.81,14.81,0,0,0-1.69,1.45,16,16,0,0,0-4,6.54,17,17,0,0,0-.77,5.2,8.73,8.73,0,0,1,0,2,4.82,4.82,0,0,1-.47-1.95,14.83,14.83,0,0,1,.41-5.45,16.75,16.75,0,0,1,1.41-3.56,16.74,16.74,0,0,1,4.39-5.14,16.67,16.67,0,0,1,2.09-1.36,17,17,0,0,1,2.37-1.07,18.11,18.11,0,0,1,2.58-.69,18.43,18.43,0,0,1,2.65-.26,17,17,0,0,1,2.59.15,16,16,0,0,1,2.44.54,15.62,15.62,0,0,1,2.23.86,15.87,15.87,0,0,1,6.27,5.22,14.68,14.68,0,0,1,2.32,4.95A4.72,4.72,0,0,1,459.36,286.57Z" transform="translate(-97.97 -58.21)"/><path class="cls-3" d="M446.81,298.64l.46,2.75-2.46.41-.45-2.68a11.81,11.81,0,0,1-6.45-1l.86-3.22a10,10,0,0,0,5.06,1l-.68-4.11c-2.84-.21-6-.62-6.62-4.14-.43-2.6,1.09-5.15,4.9-6.24l-.45-2.73,2.46-.41.44,2.69a11.19,11.19,0,0,1,5.24.67l-.73,3.23a10.22,10.22,0,0,0-4-.66l.69,4.18c2.84.19,6,.6,6.56,4.07C452.1,295,450.59,297.53,446.81,298.64Zm-4.26-10.47-.58-3.49c-1.25.51-1.65,1.31-1.51,2.12S441.41,288,442.55,288.17Zm5.21,5.23c-.14-.86-.93-1.21-2.05-1.4l.56,3.39C447.46,294.92,447.89,294.19,447.76,293.4Z" transform="translate(-97.97 -58.21)"/><path class="cls-1" d="M167.3,306.85A28.53,28.53,0,1,1,134.84,283,28.51,28.51,0,0,1,167.3,306.85Z" transform="translate(-97.97 -58.21)"/><path class="cls-2" d="M160.58,307.86a21.74,21.74,0,1,1-24.73-18.21A21.72,21.72,0,0,1,160.58,307.86Z" transform="translate(-97.97 -58.21)"/><path class="cls-3" d="M160.48,307.19a12.69,12.69,0,0,1-1-2.5,23,23,0,0,0-3.47-6.22,21.65,21.65,0,0,0-8.2-6.39,19.92,19.92,0,0,0-2.84-1,21,21,0,0,0-6.34-.81,22.51,22.51,0,0,0-3.34.34,23,23,0,0,0-3.24.86,22.21,22.21,0,0,0-3,1.31,21.39,21.39,0,0,0-5,3.66,22.51,22.51,0,0,0-3.42,4.41,21.81,21.81,0,0,0-2,4.47,23,23,0,0,0-1.05,7,12.67,12.67,0,0,1,0,2.67,6.49,6.49,0,0,1-.63-2.64,20,20,0,0,1,.56-7.4,21.76,21.76,0,0,1,1.9-4.82,22.26,22.26,0,0,1,3.54-4.81,22.32,22.32,0,0,1,5.26-4,23.36,23.36,0,0,1,3.21-1.44,22.28,22.28,0,0,1,7.1-1.3,21.49,21.49,0,0,1,3.51.22,22.09,22.09,0,0,1,3.31.72A21.79,21.79,0,0,1,157,297.77a20.08,20.08,0,0,1,3.15,6.72A6.53,6.53,0,0,1,160.48,307.19Z" transform="translate(-97.97 -58.21)"/><path class="cls-3" d="M143.45,323.56l.62,3.73-3.34.55-.6-3.63a16,16,0,0,1-8.75-1.3l1.16-4.37a13.74,13.74,0,0,0,6.87,1.3l-.93-5.57c-3.85-.29-8.19-.84-9-5.61-.58-3.54,1.48-7,6.65-8.47l-.61-3.7,3.34-.56.6,3.64a15.4,15.4,0,0,1,7.11.91l-1,4.38a14,14,0,0,0-5.39-.89l.94,5.67c3.84.26,8.12.82,8.9,5.52C150.62,318.63,148.58,322.06,143.45,323.56Zm-5.78-14.2-.78-4.73c-1.7.69-2.24,1.77-2.06,2.87S136.13,309.14,137.67,309.36Zm7.07,7.09c-.19-1.17-1.26-1.64-2.78-1.9l.76,4.6C144.33,318.51,144.92,317.52,144.74,316.45Z" transform="translate(-97.97 -58.21)"/><path class="cls-3" d="M503.62,236.66,329.4,182.43a8.49,8.49,0,0,1-5.59-10.63L357.32,64.18a8.49,8.49,0,0,1,10.62-5.59l174.23,54.24a8.49,8.49,0,0,1,5.58,10.62l-33.5,107.63A8.5,8.5,0,0,1,503.62,236.66Z" transform="translate(-97.97 -58.21)"/><path class="cls-4" d="M352,140.55l-3.29,10.57-1.08-.33,3-9.61-2.49-.77.3-1Z" transform="translate(-97.97 -58.21)"/><path class="cls-4" d="M359.92,153.54l-.3,1-7.41-2.31.24-.77,5.73-2.94c1.56-.8,2-1.44,2.24-2.17.38-1.22-.25-2.24-1.86-2.75a3.81,3.81,0,0,0-3.26.28l-.56-.9a5,5,0,0,1,4.22-.34c2.14.66,3.16,2.17,2.61,3.94-.31,1-.91,1.82-2.77,2.77l-4.69,2.41Z" transform="translate(-97.97 -58.21)"/><path class="cls-4" d="M371.62,155.19l-2.12-.65-.86,2.77-1.09-.33.87-2.78-6-1.86.25-.78,7.78-5.27,1.21.38-7.53,5.14,4.59,1.43.76-2.45,1.06.33-.77,2.45,2.12.66Z" transform="translate(-97.97 -58.21)"/><path class="cls-4" d="M387.82,160.24l-2.11-.66-.87,2.78-1.09-.34.87-2.78-6-1.86.25-.78,7.78-5.27,1.21.38-7.53,5.14,4.59,1.43.76-2.44,1.06.33-.76,2.44,2.11.66Z" transform="translate(-97.97 -58.21)"/><path class="cls-4" d="M397.16,162.78c-.56,1.8-2.25,2.81-4.83,2a5.76,5.76,0,0,1-3.37-2.54l.8-.7a4.82,4.82,0,0,0,2.86,2.24c1.8.56,3,0,3.42-1.31s-.16-2.47-2.84-3.3l-2.25-.7,2.19-5.13,5.78,1.8-.3,1-4.83-1.5-1.41,3.25,1.36.43C396.93,159.28,397.74,160.91,397.16,162.78Z" transform="translate(-97.97 -58.21)"/><path class="cls-4" d="M407.62,166c-.61,2-2.56,2.76-4.62,2.12-2.8-.87-3.72-3.3-2.69-6.63,1.12-3.6,3.67-4.86,6.54-4a5.1,5.1,0,0,1,2.33,1.36l-.71.74a3.89,3.89,0,0,0-1.9-1.14c-2.28-.71-4.2.3-5.1,3.17-.07.24-.15.55-.22.87a3.53,3.53,0,0,1,3.8-.8C407.15,162.36,408.23,164.05,407.62,166Zm-1.08-.31c.44-1.39-.32-2.6-2-3.1a2.55,2.55,0,0,0-3.43,1.46c-.37,1.16.26,2.57,2.09,3.13A2.41,2.41,0,0,0,406.54,165.68Z" transform="translate(-97.97 -58.21)"/><path class="cls-4" d="M422.05,170.61c-.55,1.77-2.26,2.73-4.81,1.93a5.77,5.77,0,0,1-3.38-2.54l.8-.7a4.84,4.84,0,0,0,2.89,2.25c1.75.54,3,0,3.38-1.29s-.23-2.37-2.2-3L418,167l.25-.8,4.07-2.76-5.41-1.68.3-1L424,163l-.24.77-4.16,2.83C421.82,167.37,422.58,168.92,422.05,170.61Z" transform="translate(-97.97 -58.21)"/><path class="cls-4" d="M432.69,173.79c-.62,2-2.57,2.76-4.62,2.12-2.81-.87-3.73-3.29-2.69-6.63,1.12-3.6,3.66-4.86,6.53-4a5,5,0,0,1,2.33,1.35l-.71.74a3.92,3.92,0,0,0-1.9-1.14c-2.28-.71-4.2.3-5.09,3.17a6.86,6.86,0,0,0-.22.87,3.54,3.54,0,0,1,3.79-.8C432.21,170.16,433.29,171.86,432.69,173.79Zm-1.08-.31c.43-1.38-.32-2.59-1.95-3.1a2.56,2.56,0,0,0-3.44,1.46c-.36,1.17.26,2.57,2.09,3.14A2.43,2.43,0,0,0,431.61,173.48Z" transform="translate(-97.97 -58.21)"/><path class="cls-4" d="M444.72,169.4l-.24.77L437,178.6l-1.17-.37,7.33-8.25-5.43-1.7-.62,2-1.07-.33.92-3Z" transform="translate(-97.97 -58.21)"/><path class="cls-4" d="M459.83,174.1l-.24.78-7.47,8.42-1.18-.37,7.34-8.25L452.84,173l-.61,2-1.08-.34.92-2.94Z" transform="translate(-97.97 -58.21)"/><path class="cls-4" d="M467.86,185c-.58,1.87-2.53,2.54-5.05,1.76s-3.72-2.44-3.13-4.31a2.75,2.75,0,0,1,2.84-2,2.48,2.48,0,0,1-.93-2.84c.53-1.73,2.33-2.34,4.57-1.65s3.39,2.24,2.86,4a2.53,2.53,0,0,1-2.42,1.8A2.79,2.79,0,0,1,467.86,185Zm-1.11-.36c.4-1.3-.46-2.47-2.33-3.05s-3.23-.11-3.64,1.19.44,2.47,2.32,3.06S466.34,185.92,466.75,184.61Zm-2.07-3.91c1.65.51,2.86.08,3.22-1.07s-.45-2.24-2-2.73-2.84-.09-3.2,1.09S463,180.19,464.68,180.7Z" transform="translate(-97.97 -58.21)"/><path class="cls-4" d="M478.89,185.73c-1.12,3.6-3.67,4.86-6.54,4a5.1,5.1,0,0,1-2.33-1.36l.71-.74a3.89,3.89,0,0,0,1.9,1.14c2.28.71,4.2-.3,5.1-3.17.07-.24.15-.55.22-.87a3.53,3.53,0,0,1-3.8.8c-2.1-.65-3.18-2.34-2.57-4.28s2.56-2.76,4.62-2.12C479,180,479.92,182.4,478.89,185.73Zm-.85-2.56c.36-1.16-.26-2.57-2.08-3.13a2.42,2.42,0,0,0-3.3,1.49c-.44,1.39.31,2.6,1.95,3.1A2.55,2.55,0,0,0,478,183.17Z" transform="translate(-97.97 -58.21)"/><path class="cls-4" d="M491.22,183.88l-3.29,10.57-1.09-.34,3-9.61-2.49-.77.3-1Z" transform="translate(-97.97 -58.21)"/><path class="cls-4" d="M499.1,196.86l-.3,1-7.41-2.31.24-.77,5.73-2.93c1.56-.81,2-1.45,2.23-2.17.39-1.23-.24-2.25-1.86-2.75a3.73,3.73,0,0,0-3.25.28l-.56-.91a5,5,0,0,1,4.21-.34c2.15.67,3.17,2.18,2.62,3.94-.32,1-.91,1.82-2.77,2.77l-4.69,2.41Z" transform="translate(-97.97 -58.21)"/><path class="cls-4" d="M509.23,197.75c-.55,1.76-2.26,2.72-4.81,1.93a5.81,5.81,0,0,1-3.38-2.54l.79-.7a4.89,4.89,0,0,0,2.9,2.24c1.75.55,3,0,3.38-1.28s-.24-2.38-2.2-3l-.75-.23.25-.8,4.07-2.76-5.41-1.68.3-1,6.8,2.11-.24.78-4.16,2.82C509,194.51,509.76,196.06,509.23,197.75Z" transform="translate(-97.97 -58.21)"/><rect class="cls-4" x="463.89" y="154.47" width="4.81" height="88.68" transform="translate(39.92 526.74) rotate(-72.71)"/><rect class="cls-4" x="481.66" y="191.65" width="4.81" height="45.48" transform="translate(37.53 554.67) rotate(-72.71)"/><g class="cls-5"><rect class="cls-2" x="351.72" y="107.79" width="37.21" height="27.8" rx="4.96" transform="translate(-45.07 -162.78) rotate(17.29)"/></g><path class="cls-3" d="M350.72,122.08l.53-1.7,18.29,5.7a4,4,0,0,0,2.39-7.66l-18.3-5.7.53-1.7,18.3,5.7A5.79,5.79,0,1,1,369,127.78Z" transform="translate(-97.97 -58.21)"/><rect class="cls-3" x="380.8" y="119.08" width="1.78" height="13.15" transform="translate(49.98 394.32) rotate(-72.66)"/><rect class="cls-4" x="364.3" y="96.39" width="95.7" height="8.21" transform="translate(-49.47 -176.18) rotate(17.29)"/><rect class="cls-4" x="504.47" y="122.61" width="19.26" height="19.26" rx="3.15" transform="translate(-35.43 -205.05) rotate(17.29)"/></g><g id="Floor"><path class="cls-6" d="M551.5,501.47c0,.14-101.53.26-226.75.26S98,501.61,98,501.47s101.52-.26,226.78-.26S551.5,501.32,551.5,501.47Z" transform="translate(-97.97 -58.21)"/></g><g id="Wallet"><rect class="cls-7" x="13.25" y="305.4" width="157.25" height="137.83" rx="8.76"/><g class="cls-8"><path d="M111.23,454h57.28a4,4,0,0,0,4-4h-61.1Z" transform="translate(-97.97 -58.21)"/></g><rect class="cls-7" x="9.04" y="356.52" width="67.84" height="35.77" rx="4.99"/><path class="cls-6" d="M169.87,450.5a6,6,0,0,0,1.94-.45,5.26,5.26,0,0,0,1.89-1.47,5,5,0,0,0,1.05-3c0-5.05-.05-12.32-.08-21.29,0-1.12,0-2.27,0-3.45a14.41,14.41,0,0,0-.06-1.75,4.77,4.77,0,0,0-3.26-3.88,5.6,5.6,0,0,0-1.84-.23h-2l-16.87,0L112,415a4.75,4.75,0,0,0-4,2.27,4.52,4.52,0,0,0-.68,2.27c0,.83,0,1.68,0,2.51q0,5,0,9.86v9.52c0,1.54,0,3.12,0,4.59a4.75,4.75,0,0,0,2.19,3.52,5,5,0,0,0,2,.7c.68.06,1.44,0,2.16,0h12.47l14.7,0,21.28.09,5.79.05,1.5,0,.52,0-.52,0-1.5,0-5.79.05-21.28.08-14.7,0-8.19,0h-4.28c-.74,0-1.43,0-2.22,0a5.25,5.25,0,0,1-4.59-4.64c-.06-1.57,0-3.07,0-4.64,0-3.11,0-6.29,0-9.52V422c0-.84,0-1.66,0-2.52a5.15,5.15,0,0,1,.75-2.53,5.27,5.27,0,0,1,4.49-2.52l38.65,0,16.87,0h2a6,6,0,0,1,2,.25,5.19,5.19,0,0,1,2.93,2.44A5.05,5.05,0,0,1,175,419a12.35,12.35,0,0,1,0,1.81v3.45c0,9-.07,16.24-.09,21.29a5,5,0,0,1-4.57,5Z" transform="translate(-97.97 -58.21)"/><g class="cls-8"><circle cx="60.16" cy="378.28" r="10.04"/></g><circle class="cls-2" cx="158.13" cy="432.99" r="10.04" transform="translate(-357.83 180.43) rotate(-45)"/><path class="cls-6" d="M168.17,433a19.81,19.81,0,0,0-.41-2.42,10,10,0,0,0-3.66-5.41,9.81,9.81,0,0,0-9.31-1.37,9.91,9.91,0,0,0-4.54,3.42,9.76,9.76,0,0,0,0,11.57,9.29,9.29,0,0,0,2.07,2.08,9,9,0,0,0,2.47,1.34,9.92,9.92,0,0,0,13-6.78,19.41,19.41,0,0,0,.41-2.43,7.77,7.77,0,0,1-.21,2.48,9.94,9.94,0,0,1-3.64,5.65,10.09,10.09,0,0,1-4.29,1.95,10.29,10.29,0,0,1-5.4-.42,10.24,10.24,0,0,1-4.79-3.57,10.22,10.22,0,0,1,0-12.17,9.59,9.59,0,0,1,2.18-2.18,9.41,9.41,0,0,1,2.61-1.39,10.19,10.19,0,0,1,5.4-.42,10.1,10.1,0,0,1,7.93,7.6A7.71,7.71,0,0,1,168.17,433Z" transform="translate(-97.97 -58.21)"/></g><g id="Coins"><circle class="cls-9" cx="478.71" cy="382.34" r="34.88" transform="translate(-156.84 30.27) rotate(-9.95)"/><g class="cls-10"><path class="cls-4" d="M466.19,349.78a34.86,34.86,0,0,0-20,45.07s23.27-7.77,25.23-19.1S466.19,349.78,466.19,349.78Z" transform="translate(-97.97 -58.21)"/></g><circle class="cls-9" cx="478" cy="382.02" r="26.52" transform="matrix(0.93, -0.36, 0.36, 0.93, -202.77, 137.32)"/><g class="cls-11"><circle cx="478" cy="382.02" r="26.52" transform="matrix(0.93, -0.36, 0.36, 0.93, -202.77, 137.32)"/></g><path class="cls-9" d="M503.84,373.27a26.16,26.16,0,1,1-33.8-15A26.15,26.15,0,0,1,503.84,373.27Z" transform="translate(-97.97 -58.21)"/><g class="cls-11"><path class="cls-4" d="M503.84,373.27a26.16,26.16,0,1,1-33.8-15A26.15,26.15,0,0,1,503.84,373.27Z" transform="translate(-97.97 -58.21)"/></g><path class="cls-9" d="M479.58,380.16l-2.4-6.24,0,0a14,14,0,0,1,3.66-.41,11.49,11.49,0,0,1,1.93.39v-.23l.1-2.62,0-.6-1.56-.74-.45.45a12.5,12.5,0,0,0-5,.43l-1.32-3.44-1.4-.45.33.86-1.46.57,1.34,3.5c-4.65,2.32-5.88,5.95-4.67,9.11,1.66,4.3,5.77,4,9.53,3.51l2.38,6.19a12.69,12.69,0,0,1-7.1,0l-.19,3.66c2.15.78,5.47.64,8.57-.34l1,2.59-1.2.49,1.52.35,2.54-1-1.33-3.47c4.67-2.36,5.94-6,4.73-9.14C487.5,379.32,483.34,379.68,479.58,380.16Zm-2.78.33c-2,.16-3.59,0-4.17-1.49s0-2.83,2.05-4Zm.38-6.58Zm5.95,15.48L481,383.91c2.06-.19,3.7,0,4.28,1.52C485.81,386.76,485.26,388.18,483.13,389.39Z" transform="translate(-97.97 -58.21)"/><g class="cls-8"><path d="M479.58,380.16l-2.4-6.24,0,0a14,14,0,0,1,3.66-.41,11.49,11.49,0,0,1,1.93.39v-.23l.1-2.62,0-.6-1.56-.74-.45.45a12.5,12.5,0,0,0-5,.43l-1.32-3.44-1.4-.45.33.86-1.46.57,1.34,3.5c-4.65,2.32-5.88,5.95-4.67,9.11,1.66,4.3,5.77,4,9.53,3.51l2.38,6.19a12.69,12.69,0,0,1-7.1,0l-.19,3.66c2.15.78,5.47.64,8.57-.34l1,2.59-1.2.49,1.52.35,2.54-1-1.33-3.47c4.67-2.36,5.94-6,4.73-9.14C487.5,379.32,483.34,379.68,479.58,380.16Zm-2.78.33c-2,.16-3.59,0-4.17-1.49s0-2.83,2.05-4Zm.38-6.58Zm5.95,15.48L481,383.91c2.06-.19,3.7,0,4.28,1.52C485.81,386.76,485.26,388.18,483.13,389.39Z" transform="translate(-97.97 -58.21)"/></g><path class="cls-9" d="M483.05,392.32l1.34,3.46-2.54,1-1.32-3.44c-3.11,1-6.43,1.12-8.58.35l.19-3.66a12.78,12.78,0,0,0,7.1,0l-2.38-6.19c-3.76.48-7.87.79-9.52-3.52-1.22-3.15,0-6.79,4.66-9.11l-1.34-3.5,2.54-1,1.32,3.44a14.19,14.19,0,0,1,7-.53l-.07,3.62a13.8,13.8,0,0,0-5.66.25l2.41,6.26c3.75-.49,7.92-.85,9.57,3.46C489,386.33,487.72,390,483.05,392.32ZM475.42,380l-2.12-5.51c-2.07,1.19-2.57,2.66-2,4S473.42,380.21,475.42,380Zm8.51,4.94c-.59-1.52-2.22-1.71-4.28-1.52l2.1,5.48C483.88,387.73,484.44,386.31,483.93,385Z" transform="translate(-97.97 -58.21)"/><path class="cls-4" d="M456.86,408.27s-.09-.06-.25-.19l-.68-.6a12.34,12.34,0,0,1-1-1c-.38-.4-.85-.83-1.3-1.37l-.72-.83c-.25-.29-.48-.62-.74-.94-.52-.64-1-1.38-1.53-2.14a36.7,36.7,0,0,1-2.86-5.31,38.75,38.75,0,0,1-1.9-5.73c-.19-.91-.39-1.77-.5-2.59-.06-.4-.13-.8-.17-1.18s-.07-.74-.11-1.09c-.08-.7-.08-1.34-.1-1.89a13.53,13.53,0,0,1,0-1.43l0-.9a1.11,1.11,0,0,1,0-.31,1.2,1.2,0,0,1,0,.31c0,.23,0,.53,0,.9s0,.87,0,1.42,0,1.19.15,1.88c0,.35.08.71.12,1.09s.12.76.18,1.17c.12.81.33,1.66.53,2.56a38,38,0,0,0,1.9,5.69,38.89,38.89,0,0,0,2.82,5.28c.51.76,1,1.5,1.5,2.14.25.32.48.65.73.94l.7.84c.44.54.89,1,1.27,1.39s.71.74,1,1l.65.63A1.63,1.63,0,0,1,456.86,408.27Z" transform="translate(-97.97 -58.21)"/><path class="cls-4" d="M470.45,382.05a2.27,2.27,0,0,1-1-.44,4.18,4.18,0,0,1-1.59-2.07,4.1,4.1,0,0,1,0-2.62,2.22,2.22,0,0,1,.51-1s-.17.38-.33,1a4.33,4.33,0,0,0,.08,2.48,4.41,4.41,0,0,0,1.46,2C470.08,381.86,470.46,382,470.45,382.05Z" transform="translate(-97.97 -58.21)"/><path class="cls-4" d="M472.33,370.45c-.07,0-.3-.41-.51-1s-.34-1-.27-1.06.29.41.51,1A2.29,2.29,0,0,1,472.33,370.45Z" transform="translate(-97.97 -58.21)"/><path class="cls-4" d="M470.47,355.77a4.29,4.29,0,0,1-.8.28,8.57,8.57,0,0,0-.95.31c-.37.13-.79.26-1.24.46s-1,.38-1.46.63-1.07.53-1.64.83a29.45,29.45,0,0,0-3.51,2.29,30.12,30.12,0,0,0-3.12,2.8c-.44.48-.86.92-1.22,1.37s-.7.86-1,1.26-.54.76-.76,1.07-.4.6-.54.84a4.82,4.82,0,0,1-.48.71,5.44,5.44,0,0,1,.39-.76,9.06,9.06,0,0,1,.51-.87c.21-.32.44-.71.73-1.1s.6-.84,1-1.28.78-.92,1.21-1.4a27.62,27.62,0,0,1,3.14-2.85,29.47,29.47,0,0,1,3.55-2.3c.59-.29,1.13-.58,1.67-.81s1-.43,1.49-.6.88-.31,1.25-.43.7-.21,1-.27A7.53,7.53,0,0,1,470.47,355.77Z" transform="translate(-97.97 -58.21)"/><path class="cls-4" d="M494.55,411.68a3.22,3.22,0,0,1-.52.39c-.34.23-.86.54-1.51.89a25.12,25.12,0,0,1-11.1,3c-.74,0-1.35,0-1.76,0a2.79,2.79,0,0,1-.64-.06,3,3,0,0,1,.64,0c.42,0,1,0,1.75-.06a29.41,29.41,0,0,0,5.66-.93,28.46,28.46,0,0,0,5.36-2.06c.66-.33,1.19-.61,1.54-.82A4.32,4.32,0,0,1,494.55,411.68Z" transform="translate(-97.97 -58.21)"/><rect class="cls-9" x="444.8" y="414.96" width="73.84" height="14.89" transform="translate(865.46 786.59) rotate(180)"/><path class="cls-6" d="M513.89,415.2c-.17,0-.32,3.24-.32,7.22s.15,7.22.32,7.22.32-3.23.32-7.22S514.07,415.2,513.89,415.2Z" transform="translate(-97.97 -58.21)"/><path class="cls-6" d="M507.05,415.2c-.18,0-.32,3.24-.32,7.22s.14,7.22.32,7.22.32-3.23.32-7.22S507.22,415.2,507.05,415.2Z" transform="translate(-97.97 -58.21)"/><path class="cls-6" d="M500.28,415.2c-.18,0-.32,3.24-.32,7.22s.14,7.22.32,7.22.32-3.23.32-7.22S500.46,415.2,500.28,415.2Z" transform="translate(-97.97 -58.21)"/><path class="cls-6" d="M493.55,415.2c-.18,0-.32,3.24-.32,7.22s.14,7.22.32,7.22.32-3.23.32-7.22S493.73,415.2,493.55,415.2Z" transform="translate(-97.97 -58.21)"/><path class="cls-6" d="M486.82,415.2c-.18,0-.32,3.24-.32,7.22s.14,7.22.32,7.22.32-3.23.32-7.22S487,415.2,486.82,415.2Z" transform="translate(-97.97 -58.21)"/><path class="cls-6" d="M480.09,415.2c-.18,0-.32,3.24-.32,7.22s.14,7.22.32,7.22.32-3.23.32-7.22S480.27,415.2,480.09,415.2Z" transform="translate(-97.97 -58.21)"/><path class="cls-6" d="M473.36,415.2c-.18,0-.32,3.24-.32,7.22s.14,7.22.32,7.22.32-3.23.32-7.22S473.54,415.2,473.36,415.2Z" transform="translate(-97.97 -58.21)"/><path class="cls-6" d="M466.63,415.2c-.18,0-.32,3.24-.32,7.22s.14,7.22.32,7.22.32-3.23.32-7.22S466.81,415.2,466.63,415.2Z" transform="translate(-97.97 -58.21)"/><path class="cls-6" d="M459.9,415.2c-.18,0-.32,3.24-.32,7.22s.14,7.22.32,7.22.32-3.23.32-7.22S460.07,415.2,459.9,415.2Z" transform="translate(-97.97 -58.21)"/><path class="cls-6" d="M453.17,415.2c-.18,0-.32,3.24-.32,7.22s.14,7.22.32,7.22.32-3.23.32-7.22S453.34,415.2,453.17,415.2Z" transform="translate(-97.97 -58.21)"/><path class="cls-6" d="M446.44,415.2c-.18,0-.32,3.24-.32,7.22s.14,7.22.32,7.22.32-3.23.32-7.22S446.61,415.2,446.44,415.2Z" transform="translate(-97.97 -58.21)"/><g class="cls-8"><path d="M517.45,415A269.33,269.33,0,0,1,446,415Z" transform="translate(-97.97 -58.21)"/></g><path class="cls-6" d="M444.78,415c0,.18,16.5.32,36.85.32s36.86-.14,36.86-.32-16.5-.32-36.86-.32S444.78,414.83,444.78,415Z" transform="translate(-97.97 -58.21)"/><rect class="cls-9" x="443.14" y="429.6" width="73.84" height="14.89" transform="translate(862.15 815.88) rotate(180)"/><path class="cls-6" d="M512.24,429.85c-.18,0-.33,3.23-.33,7.22s.15,7.22.33,7.22.32-3.24.32-7.22S512.41,429.85,512.24,429.85Z" transform="translate(-97.97 -58.21)"/><path class="cls-6" d="M505.39,429.85c-.18,0-.32,3.23-.32,7.22s.14,7.22.32,7.22.32-3.24.32-7.22S505.57,429.85,505.39,429.85Z" transform="translate(-97.97 -58.21)"/><path class="cls-6" d="M498.62,429.85c-.18,0-.32,3.23-.32,7.22s.14,7.22.32,7.22.32-3.24.32-7.22S498.8,429.85,498.62,429.85Z" transform="translate(-97.97 -58.21)"/><path class="cls-6" d="M491.89,429.85c-.18,0-.32,3.23-.32,7.22s.14,7.22.32,7.22.32-3.24.32-7.22S492.07,429.85,491.89,429.85Z" transform="translate(-97.97 -58.21)"/><path class="cls-6" d="M485.16,429.85c-.18,0-.32,3.23-.32,7.22s.14,7.22.32,7.22.32-3.24.32-7.22S485.34,429.85,485.16,429.85Z" transform="translate(-97.97 -58.21)"/><path class="cls-6" d="M478.43,429.85c-.18,0-.32,3.23-.32,7.22s.14,7.22.32,7.22.32-3.24.32-7.22S478.61,429.85,478.43,429.85Z" transform="translate(-97.97 -58.21)"/><path class="cls-6" d="M471.7,429.85c-.18,0-.32,3.23-.32,7.22s.14,7.22.32,7.22.32-3.24.32-7.22S471.88,429.85,471.7,429.85Z" transform="translate(-97.97 -58.21)"/><path class="cls-6" d="M465,429.85c-.18,0-.32,3.23-.32,7.22s.14,7.22.32,7.22.32-3.24.32-7.22S465.15,429.85,465,429.85Z" transform="translate(-97.97 -58.21)"/><path class="cls-6" d="M458.24,429.85c-.18,0-.32,3.23-.32,7.22s.14,7.22.32,7.22.32-3.24.32-7.22S458.42,429.85,458.24,429.85Z" transform="translate(-97.97 -58.21)"/><path class="cls-6" d="M451.51,429.85c-.18,0-.32,3.23-.32,7.22s.14,7.22.32,7.22.32-3.24.32-7.22S451.69,429.85,451.51,429.85Z" transform="translate(-97.97 -58.21)"/><path class="cls-6" d="M444.78,429.85c-.18,0-.32,3.23-.32,7.22s.14,7.22.32,7.22.32-3.24.32-7.22S445,429.85,444.78,429.85Z" transform="translate(-97.97 -58.21)"/><g class="cls-8"><path d="M515.8,429.61a269,269,0,0,1-71.48,0Z" transform="translate(-97.97 -58.21)"/></g><path class="cls-6" d="M443.12,429.65c0,.17,16.5.32,36.85.32s36.86-.15,36.86-.32-16.5-.33-36.86-.33S443.12,429.47,443.12,429.65Z" transform="translate(-97.97 -58.21)"/><rect class="cls-9" x="450.15" y="444.01" width="73.84" height="14.89" transform="translate(876.17 844.7) rotate(180)"/><path class="cls-6" d="M519.25,444.26c-.18,0-.32,3.23-.32,7.21s.14,7.22.32,7.22.32-3.23.32-7.22S519.42,444.26,519.25,444.26Z" transform="translate(-97.97 -58.21)"/><path class="cls-6" d="M512.4,444.26c-.18,0-.32,3.23-.32,7.21s.14,7.22.32,7.22.32-3.23.32-7.22S512.58,444.26,512.4,444.26Z" transform="translate(-97.97 -58.21)"/><path class="cls-6" d="M505.63,444.26c-.17,0-.32,3.23-.32,7.21s.15,7.22.32,7.22.32-3.23.32-7.22S505.81,444.26,505.63,444.26Z" transform="translate(-97.97 -58.21)"/><path class="cls-6" d="M498.9,444.26c-.17,0-.32,3.23-.32,7.21s.15,7.22.32,7.22.32-3.23.32-7.22S499.08,444.26,498.9,444.26Z" transform="translate(-97.97 -58.21)"/><path class="cls-6" d="M492.17,444.26c-.17,0-.32,3.23-.32,7.21s.15,7.22.32,7.22.32-3.23.32-7.22S492.35,444.26,492.17,444.26Z" transform="translate(-97.97 -58.21)"/><path class="cls-6" d="M485.44,444.26c-.18,0-.32,3.23-.32,7.21s.14,7.22.32,7.22.32-3.23.32-7.22S485.62,444.26,485.44,444.26Z" transform="translate(-97.97 -58.21)"/><path class="cls-6" d="M478.71,444.26c-.18,0-.32,3.23-.32,7.21s.14,7.22.32,7.22.32-3.23.32-7.22S478.89,444.26,478.71,444.26Z" transform="translate(-97.97 -58.21)"/><path class="cls-6" d="M472,444.26c-.18,0-.32,3.23-.32,7.21s.14,7.22.32,7.22.32-3.23.32-7.22S472.16,444.26,472,444.26Z" transform="translate(-97.97 -58.21)"/><path class="cls-6" d="M465.25,444.26c-.18,0-.32,3.23-.32,7.21s.14,7.22.32,7.22.32-3.23.32-7.22S465.43,444.26,465.25,444.26Z" transform="translate(-97.97 -58.21)"/><path class="cls-6" d="M458.52,444.26c-.18,0-.32,3.23-.32,7.21s.14,7.22.32,7.22.32-3.23.32-7.22S458.7,444.26,458.52,444.26Z" transform="translate(-97.97 -58.21)"/><path class="cls-6" d="M451.79,444.26c-.18,0-.32,3.23-.32,7.21s.14,7.22.32,7.22.32-3.23.32-7.22S452,444.26,451.79,444.26Z" transform="translate(-97.97 -58.21)"/><g class="cls-8"><path d="M522.81,444a269.4,269.4,0,0,1-71.48,0Z" transform="translate(-97.97 -58.21)"/></g><path class="cls-6" d="M450.13,444.05c0,.18,16.5.32,36.86.32s36.85-.14,36.85-.32-16.49-.32-36.85-.32S450.13,443.88,450.13,444.05Z" transform="translate(-97.97 -58.21)"/><rect class="cls-9" x="441.5" y="458.79" width="73.84" height="14.32" transform="translate(858.87 873.69) rotate(180)"/><path class="cls-6" d="M510.6,459c-.18,0-.32,3.11-.32,6.94s.14,6.94.32,6.94.32-3.1.32-6.94S510.77,459,510.6,459Z" transform="translate(-97.97 -58.21)"/><path class="cls-6" d="M503.75,459c-.18,0-.32,3.11-.32,6.94s.14,6.94.32,6.94.32-3.1.32-6.94S503.93,459,503.75,459Z" transform="translate(-97.97 -58.21)"/><path class="cls-6" d="M497,459c-.17,0-.32,3.11-.32,6.94s.15,6.94.32,6.94.32-3.1.32-6.94S497.16,459,497,459Z" transform="translate(-97.97 -58.21)"/><path class="cls-6" d="M490.25,459c-.17,0-.32,3.11-.32,6.94s.15,6.94.32,6.94.32-3.1.32-6.94S490.43,459,490.25,459Z" transform="translate(-97.97 -58.21)"/><path class="cls-6" d="M483.52,459c-.18,0-.32,3.11-.32,6.94s.14,6.94.32,6.94.32-3.1.32-6.94S483.7,459,483.52,459Z" transform="translate(-97.97 -58.21)"/><path class="cls-6" d="M476.79,459c-.18,0-.32,3.11-.32,6.94s.14,6.94.32,6.94.32-3.1.32-6.94S477,459,476.79,459Z" transform="translate(-97.97 -58.21)"/><path class="cls-6" d="M470.06,459c-.18,0-.32,3.11-.32,6.94s.14,6.94.32,6.94.32-3.1.32-6.94S470.24,459,470.06,459Z" transform="translate(-97.97 -58.21)"/><path class="cls-6" d="M463.33,459c-.18,0-.32,3.11-.32,6.94s.14,6.94.32,6.94.32-3.1.32-6.94S463.51,459,463.33,459Z" transform="translate(-97.97 -58.21)"/><path class="cls-6" d="M456.6,459c-.18,0-.32,3.11-.32,6.94s.14,6.94.32,6.94.32-3.1.32-6.94S456.78,459,456.6,459Z" transform="translate(-97.97 -58.21)"/><path class="cls-6" d="M449.87,459c-.18,0-.32,3.11-.32,6.94s.14,6.94.32,6.94.32-3.1.32-6.94S450.05,459,449.87,459Z" transform="translate(-97.97 -58.21)"/><path class="cls-6" d="M443.14,459c-.18,0-.32,3.11-.32,6.94s.14,6.94.32,6.94.32-3.1.32-6.94S443.32,459,443.14,459Z" transform="translate(-97.97 -58.21)"/><g class="cls-8"><path d="M514.16,458.8a211.27,211.27,0,0,1-71.48,0Z" transform="translate(-97.97 -58.21)"/></g><path class="cls-6" d="M441.48,458.83c0,.18,16.5.32,36.86.32s36.85-.14,36.85-.32-16.5-.32-36.85-.32S441.48,458.66,441.48,458.83Z" transform="translate(-97.97 -58.21)"/><rect class="cls-9" x="446.25" y="473.12" width="73.84" height="14.32" transform="translate(868.36 902.35) rotate(180)"/><path class="cls-6" d="M515.34,473.36c-.17,0-.32,3.11-.32,6.94s.15,6.94.32,6.94.32-3.11.32-6.94S515.52,473.36,515.34,473.36Z" transform="translate(-97.97 -58.21)"/><path class="cls-6" d="M508.5,473.36c-.18,0-.32,3.11-.32,6.94s.14,6.94.32,6.94.32-3.11.32-6.94S508.67,473.36,508.5,473.36Z" transform="translate(-97.97 -58.21)"/><path class="cls-6" d="M501.73,473.36c-.18,0-.32,3.11-.32,6.94s.14,6.94.32,6.94.32-3.11.32-6.94S501.91,473.36,501.73,473.36Z" transform="translate(-97.97 -58.21)"/><path class="cls-6" d="M495,473.36c-.18,0-.32,3.11-.32,6.94s.14,6.94.32,6.94.32-3.11.32-6.94S495.18,473.36,495,473.36Z" transform="translate(-97.97 -58.21)"/><path class="cls-6" d="M488.27,473.36c-.18,0-.32,3.11-.32,6.94s.14,6.94.32,6.94.32-3.11.32-6.94S488.45,473.36,488.27,473.36Z" transform="translate(-97.97 -58.21)"/><path class="cls-6" d="M481.54,473.36c-.18,0-.32,3.11-.32,6.94s.14,6.94.32,6.94.32-3.11.32-6.94S481.72,473.36,481.54,473.36Z" transform="translate(-97.97 -58.21)"/><path class="cls-6" d="M474.81,473.36c-.18,0-.32,3.11-.32,6.94s.14,6.94.32,6.94.32-3.11.32-6.94S475,473.36,474.81,473.36Z" transform="translate(-97.97 -58.21)"/><path class="cls-6" d="M468.08,473.36c-.18,0-.32,3.11-.32,6.94s.14,6.94.32,6.94.32-3.11.32-6.94S468.26,473.36,468.08,473.36Z" transform="translate(-97.97 -58.21)"/><path class="cls-6" d="M461.35,473.36c-.18,0-.32,3.11-.32,6.94s.14,6.94.32,6.94.32-3.11.32-6.94S461.52,473.36,461.35,473.36Z" transform="translate(-97.97 -58.21)"/><path class="cls-6" d="M454.62,473.36c-.18,0-.32,3.11-.32,6.94s.14,6.94.32,6.94.32-3.11.32-6.94S454.79,473.36,454.62,473.36Z" transform="translate(-97.97 -58.21)"/><path class="cls-6" d="M447.89,473.36c-.18,0-.32,3.11-.32,6.94s.14,6.94.32,6.94.32-3.11.32-6.94S448.06,473.36,447.89,473.36Z" transform="translate(-97.97 -58.21)"/><g class="cls-8"><path d="M518.9,473.13a187,187,0,0,1-71.47,0Z" transform="translate(-97.97 -58.21)"/></g><path class="cls-6" d="M446.23,473.16c0,.18,16.5.32,36.85.32s36.86-.14,36.86-.32-16.5-.32-36.86-.32S446.23,473,446.23,473.16Z" transform="translate(-97.97 -58.21)"/><rect class="cls-9" x="442.03" y="487.24" width="73.84" height="14.32" transform="translate(859.93 930.6) rotate(180)"/><path class="cls-6" d="M511.12,487.48c-.17,0-.32,3.11-.32,6.94s.15,6.95.32,6.95.33-3.11.33-6.95S511.3,487.48,511.12,487.48Z" transform="translate(-97.97 -58.21)"/><path class="cls-6" d="M504.28,487.48c-.18,0-.32,3.11-.32,6.94s.14,6.95.32,6.95.32-3.11.32-6.95S504.46,487.48,504.28,487.48Z" transform="translate(-97.97 -58.21)"/><path class="cls-6" d="M497.51,487.48c-.18,0-.32,3.11-.32,6.94s.14,6.95.32,6.95.32-3.11.32-6.95S497.69,487.48,497.51,487.48Z" transform="translate(-97.97 -58.21)"/><path class="cls-6" d="M490.78,487.48c-.18,0-.32,3.11-.32,6.94s.14,6.95.32,6.95.32-3.11.32-6.95S491,487.48,490.78,487.48Z" transform="translate(-97.97 -58.21)"/><path class="cls-6" d="M484.05,487.48c-.18,0-.32,3.11-.32,6.94s.14,6.95.32,6.95.32-3.11.32-6.95S484.23,487.48,484.05,487.48Z" transform="translate(-97.97 -58.21)"/><path class="cls-6" d="M477.32,487.48c-.18,0-.32,3.11-.32,6.94s.14,6.95.32,6.95.32-3.11.32-6.95S477.5,487.48,477.32,487.48Z" transform="translate(-97.97 -58.21)"/><path class="cls-6" d="M470.59,487.48c-.18,0-.32,3.11-.32,6.94s.14,6.95.32,6.95.32-3.11.32-6.95S470.77,487.48,470.59,487.48Z" transform="translate(-97.97 -58.21)"/><path class="cls-6" d="M463.86,487.48c-.18,0-.32,3.11-.32,6.94s.14,6.95.32,6.95.32-3.11.32-6.95S464,487.48,463.86,487.48Z" transform="translate(-97.97 -58.21)"/><path class="cls-6" d="M457.13,487.48c-.18,0-.32,3.11-.32,6.94s.14,6.95.32,6.95.32-3.11.32-6.95S457.31,487.48,457.13,487.48Z" transform="translate(-97.97 -58.21)"/><path class="cls-6" d="M450.4,487.48c-.18,0-.32,3.11-.32,6.94s.14,6.95.32,6.95.32-3.11.32-6.95S450.58,487.48,450.4,487.48Z" transform="translate(-97.97 -58.21)"/><path class="cls-6" d="M443.67,487.48c-.18,0-.32,3.11-.32,6.94s.14,6.95.32,6.95.32-3.11.32-6.95S443.85,487.48,443.67,487.48Z" transform="translate(-97.97 -58.21)"/><g class="cls-8"><path d="M514.69,487.26a211.27,211.27,0,0,1-71.48,0Z" transform="translate(-97.97 -58.21)"/></g><path class="cls-6" d="M442,487.29c0,.17,16.5.32,36.85.32s36.86-.15,36.86-.32-16.5-.32-36.86-.32S442,487.11,442,487.29Z" transform="translate(-97.97 -58.21)"/><path class="cls-6" d="M515.87,501.56s0-.08,0-.24,0-.43,0-.72c0-.67,0-1.6,0-2.79,0-2.46,0-6-.08-10.37v-.16h.16l4.07,0-.18.18c0-4.19,0-9,0-14.33l.22.22h-5v-.23c0-4.43,0-9.23,0-14.21v-.24h8.89l-.24.24c0-5.3,0-10.39,0-15.17l.22.23h-7.22v-.22c0-5.18,0-9.85,0-13.88v-.18h2l-.16.17c0-4.62,0-8.32,0-10.9,0-1.25,0-2.23,0-2.93,0-.31,0-.56,0-.76a1.33,1.33,0,0,1,0-.26.9.9,0,0,1,0,.26c0,.2,0,.45,0,.76,0,.7,0,1.68.07,2.93,0,2.58.11,6.28.18,10.89V430h-2l.17-.17c0,4,0,8.7,0,13.88l-.22-.21h7.24v.22c0,4.78,0,9.87,0,15.17v.24h-8.9l.24-.24c0,5,0,9.78,0,14.21l-.23-.23h5v.22c0,5.3,0,10.14,0,14.33v.18h-.18l-4.07,0,.16-.16c0,4.39,0,7.91-.07,10.37,0,1.19,0,2.12,0,2.79,0,.29,0,.53,0,.72A.75.75,0,0,1,515.87,501.56Z" transform="translate(-97.97 -58.21)"/><path class="cls-9" d="M542.92,291.18a30.38,30.38,0,1,1-31.43-29.29A30.39,30.39,0,0,1,542.92,291.18Z" transform="translate(-97.97 -58.21)"/><g class="cls-10"><path class="cls-4" d="M511.49,261.89a30.37,30.37,0,0,0-29.29,31.42s21.36.21,26.19-8.56S511.49,261.89,511.49,261.89Z" transform="translate(-97.97 -58.21)"/></g><path class="cls-9" d="M535.14,291a23.09,23.09,0,1,1-23.89-22.27A23.1,23.1,0,0,1,535.14,291Z" transform="translate(-97.97 -58.21)"/><g class="cls-11"><path d="M535.14,291a23.09,23.09,0,1,1-23.89-22.27A23.1,23.1,0,0,1,535.14,291Z" transform="translate(-97.97 -58.21)"/></g><path class="cls-9" d="M535.82,291.91a22.78,22.78,0,1,1-23.56-22A22.78,22.78,0,0,1,535.82,291.91Z" transform="translate(-97.97 -58.21)"/><g class="cls-11"><path class="cls-4" d="M535.82,291.91a22.78,22.78,0,1,1-23.56-22A22.78,22.78,0,0,1,535.82,291.91Z" transform="translate(-97.97 -58.21)"/></g><path class="cls-9" d="M513.89,290.7l-.2-5.82h0a11.65,11.65,0,0,1,3.12.7,9.17,9.17,0,0,1,1.48.86l.07-.18.83-2.13.19-.49-1.08-1.05-.49.24a10.76,10.76,0,0,0-4.26-1.07l-.11-3.21-1-.77,0,.81-1.37.05.11,3.26c-4.48.59-6.53,3.23-6.43,6.18.14,4,3.61,4.93,6.85,5.59l.2,5.78a11.09,11.09,0,0,1-5.85-2l-1.2,3a12.67,12.67,0,0,0,7.16,2.14L512,305l-1.12.06,1.15.73,2.37-.09-.12-3.23c4.52-.62,6.59-3.23,6.49-6.18C520.65,292.26,517.12,291.37,513.89,290.7Zm-2.39-.52c-1.69-.43-2.95-1-3-2.41s.79-2.34,2.82-2.73Zm2.19-5.31Zm.5,14.44L514,294.2c1.75.43,3,1.05,3.1,2.46C517.15,297.9,516.29,298.91,514.19,299.31Z" transform="translate(-97.97 -58.21)"/><g class="cls-8"><path d="M513.89,290.7l-.2-5.82h0a11.65,11.65,0,0,1,3.12.7,9.17,9.17,0,0,1,1.48.86l.07-.18.83-2.13.19-.49-1.08-1.05-.49.24a10.76,10.76,0,0,0-4.26-1.07l-.11-3.21-1-.77,0,.81-1.37.05.11,3.26c-4.48.59-6.53,3.23-6.43,6.18.14,4,3.61,4.93,6.85,5.59l.2,5.78a11.09,11.09,0,0,1-5.85-2l-1.2,3a12.67,12.67,0,0,0,7.16,2.14L512,305l-1.12.06,1.15.73,2.37-.09-.12-3.23c4.52-.62,6.59-3.23,6.49-6.18C520.65,292.26,517.12,291.37,513.89,290.7Zm-2.39-.52c-1.69-.43-2.95-1-3-2.41s.79-2.34,2.82-2.73Zm2.19-5.31Zm.5,14.44L514,294.2c1.75.43,3,1.05,3.1,2.46C517.15,297.9,516.29,298.91,514.19,299.31Z" transform="translate(-97.97 -58.21)"/></g><path class="cls-9" d="M513.3,301.69l.11,3.24L511,305l-.11-3.2a12.75,12.75,0,0,1-7.16-2.15l1.2-3a11.2,11.2,0,0,0,5.85,2l-.2-5.77c-3.23-.67-6.7-1.59-6.84-5.6-.11-2.95,1.94-5.59,6.43-6.18l-.12-3.26,2.37-.09.11,3.21a12.42,12.42,0,0,1,5.92,1.55l-1.08,3a12,12,0,0,0-4.73-1.4l.21,5.84c3.23.66,6.76,1.55,6.9,5.56C519.89,298.46,517.81,301.07,513.3,301.69Zm-2.8-12.27-.18-5.14c-2,.39-2.87,1.46-2.83,2.73S508.81,289,510.5,289.42Zm5.6,6.48c-.05-1.41-1.34-2-3.09-2.46l.18,5.11C515.28,298.16,516.14,297.14,516.1,295.9Z" transform="translate(-97.97 -58.21)"/><path class="cls-6" d="M513.44,315.72l.19,0,.54-.06.89-.08a10.39,10.39,0,0,0,1.21-.16l1.5-.3a5.61,5.61,0,0,0,.85-.22l.9-.27a9.7,9.7,0,0,0,1-.31l1-.4c.34-.15.7-.27,1-.45l1.07-.56a24.39,24.39,0,0,0,4.39-3.05l1-1c.17-.18.36-.35.53-.53l.5-.59c.32-.39.68-.77,1-1.2s.61-.87.92-1.31l.23-.34a4.05,4.05,0,0,0,.21-.35l.4-.72.41-.73a6.76,6.76,0,0,0,.36-.77c.22-.52.47-1,.68-1.57l.54-1.66a22.72,22.72,0,0,0-.5-14.33q-.33-.82-.66-1.62c-.24-.53-.53-1-.79-1.53-.14-.24-.25-.51-.41-.74l-.46-.7-.45-.69-.23-.34-.25-.31-1-1.25c-.34-.4-.72-.76-1.08-1.13l-.53-.55-.57-.49c-.38-.32-.76-.63-1.12-.95a24.13,24.13,0,0,0-4.6-2.73l-1.09-.49c-.36-.15-.73-.24-1.08-.37l-1-.33c-.33-.12-.67-.16-1-.25l-.92-.2a5.61,5.61,0,0,0-.86-.16l-1.52-.19a11.28,11.28,0,0,0-1.21-.08l-.9,0-.55,0h1.45a8.93,8.93,0,0,1,1.22.05l1.53.17a7.07,7.07,0,0,1,.86.15l.93.2a10,10,0,0,1,1,.24l1,.33c.35.12.72.21,1.08.36l1.11.48a23.93,23.93,0,0,1,4.64,2.74l1.14,1,.57.49.54.55c.36.37.75.73,1.09,1.13l1,1.26.26.32.23.34c.15.23.31.46.46.7l.47.7c.16.23.27.5.41.75.26.51.55,1,.8,1.54l.67,1.63a25,25,0,0,1,1.42,7.19,24.57,24.57,0,0,1-.92,7.28c-.18.56-.37,1.12-.55,1.68s-.46,1.06-.69,1.59a7.67,7.67,0,0,1-.36.77l-.41.73-.41.73-.21.36-.24.33-.92,1.33c-.32.42-.68.81-1,1.21l-.5.58c-.18.19-.37.36-.54.53l-1.07,1a23.83,23.83,0,0,1-4.44,3l-1.07.56c-.35.17-.72.29-1.06.44l-1,.4c-.33.14-.66.2-1,.3l-.91.27a8.07,8.07,0,0,1-.85.21l-1.51.27a7.36,7.36,0,0,1-1.22.14l-.89.07-.55,0Z" transform="translate(-97.97 -58.21)"/><path class="cls-4" d="M487.2,307.39s-.06-.07-.15-.23l-.39-.68c-.17-.29-.37-.66-.58-1.1s-.46-.93-.68-1.5c-.11-.28-.23-.58-.36-.89s-.22-.64-.34-1c-.25-.68-.44-1.42-.66-2.2a33.58,33.58,0,0,1-.84-5.18,32.55,32.55,0,0,1,.07-5.26c.09-.8.17-1.57.32-2.27.06-.35.11-.7.19-1s.15-.64.22-.94c.13-.59.32-1.12.45-1.58s.28-.86.41-1.18.21-.54.28-.73a1.34,1.34,0,0,1,.12-.25,1.15,1.15,0,0,1-.07.27c-.07.19-.15.44-.25.74s-.24.72-.36,1.19-.3,1-.42,1.58q-.11.45-.21.93c-.07.33-.12.67-.18,1-.13.7-.21,1.46-.3,2.26a36,36,0,0,0-.05,5.22,34.45,34.45,0,0,0,.83,5.15c.21.77.39,1.52.63,2.19.11.34.21.67.33,1l.34.89c.21.57.45,1.06.65,1.51s.38.81.54,1.11.26.52.35.7A1,1,0,0,1,487.2,307.39Z" transform="translate(-97.97 -58.21)"/><path class="cls-4" d="M505.83,289.66a1.93,1.93,0,0,1-.69-.64,3.56,3.56,0,0,1,0-4.32,1.83,1.83,0,0,1,.7-.64s-.26.26-.57.73a3.72,3.72,0,0,0,0,4.14C505.58,289.4,505.86,289.63,505.83,289.66Z" transform="translate(-97.97 -58.21)"/><path class="cls-4" d="M510.68,280.64a2.12,2.12,0,0,1-.15-.94,2.15,2.15,0,0,1,.08-1,2.19,2.19,0,0,1,.15.95A2.09,2.09,0,0,1,510.68,280.64Z" transform="translate(-97.97 -58.21)"/><path class="cls-4" d="M513.32,268a3.66,3.66,0,0,1-.75,0c-.23,0-.53,0-.86,0s-.73,0-1.15,0-.89,0-1.39.11-1,.13-1.58.21a25.57,25.57,0,0,0-3.54.9,24.57,24.57,0,0,0-3.37,1.42c-.49.27-1,.51-1.39.78s-.82.51-1.17.75-.66.47-.94.67-.5.38-.68.54a5,5,0,0,1-.59.45,3.77,3.77,0,0,1,.53-.52c.18-.16.4-.36.67-.57s.56-.46.92-.7.73-.52,1.16-.78.9-.53,1.39-.81A24.85,24.85,0,0,1,504,269a25.13,25.13,0,0,1,3.58-.88c.57-.08,1.1-.16,1.6-.2s1-.07,1.4-.08.82,0,1.16,0l.87.05Z" transform="translate(-97.97 -58.21)"/><path class="cls-4" d="M517.26,320.91a3.6,3.6,0,0,1-.54.16,14.86,14.86,0,0,1-1.49.32,22.26,22.26,0,0,1-10-.68c-.61-.19-1.11-.37-1.44-.51a3.61,3.61,0,0,1-.51-.24,2.21,2.21,0,0,1,.54.15c.34.12.84.27,1.46.44a25,25,0,0,0,4.93.85,25.53,25.53,0,0,0,5-.17c.64-.09,1.15-.17,1.51-.24A2,2,0,0,1,517.26,320.91Z" transform="translate(-97.97 -58.21)"/></g><g id="Device"><path class="cls-12" d="M350.33,521.9" transform="translate(-97.97 -58.21)"/><path class="cls-6" d="M414.44,501.17,279,500.55a29.52,29.52,0,0,1-29.38-29.63l1.44-339.6a29.5,29.5,0,0,1,29.64-29.38l135.46.62a29.51,29.51,0,0,1,29.37,29.63l-1.43,339.6A29.51,29.51,0,0,1,414.44,501.17Z" transform="translate(-97.97 -58.21)"/><path class="cls-13" d="M416,114.28l-26.26-.12L313,113.81l-9.23,0-23-.1A20.66,20.66,0,0,0,260,134.24l-1.4,331.47a20.66,20.66,0,0,0,20.57,20.75l135.19.62a20.66,20.66,0,0,0,20.76-20.57L436.53,135A20.66,20.66,0,0,0,416,114.28Z" transform="translate(-97.97 -58.21)"/><path class="cls-6" d="M417,144.41a1.69,1.69,0,1,1-1.68-1.7A1.69,1.69,0,0,1,417,144.41Z" transform="translate(-97.97 -58.21)"/><path class="cls-6" d="M416.94,150.49a1.69,1.69,0,1,1-1.69-1.7A1.69,1.69,0,0,1,416.94,150.49Z" transform="translate(-97.97 -58.21)"/><path class="cls-6" d="M416.92,156.58a1.7,1.7,0,1,1-1.69-1.7A1.7,1.7,0,0,1,416.92,156.58Z" transform="translate(-97.97 -58.21)"/><rect class="cls-2" x="185.14" y="143.96" width="144.1" height="91.42" rx="4.3"/><rect class="cls-3" x="181.18" y="138.03" width="144.1" height="91.42" rx="4.3"/><rect class="cls-9" x="176.61" y="133.09" width="144.1" height="91.42" rx="4.3"/><path class="cls-4" d="M298.31,212.18c0,1.17-.93,1.85-2.71,1.85h-3.49v-6.76h3.3c1.69,0,2.56.7,2.56,1.75a1.63,1.63,0,0,1-.9,1.49A1.66,1.66,0,0,1,298.31,212.18Zm-4.65-3.74V210h1.56c.76,0,1.18-.27,1.18-.8s-.42-.8-1.18-.8Zm3.07,3.58c0-.57-.43-.84-1.24-.84h-1.83v1.67h1.83C296.3,212.85,296.73,212.6,296.73,212Z" transform="translate(-97.97 -58.21)"/><path class="cls-4" d="M304,212.58h-3.14l-.6,1.45H298.6l3-6.76h1.55l3,6.76h-1.64Zm-.49-1.19-1.08-2.59-1.07,2.59Z" transform="translate(-97.97 -58.21)"/><path class="cls-4" d="M313.09,207.27V214h-1.28l-3.37-4.11V214h-1.55v-6.76h1.3l3.36,4.1v-4.1Z" transform="translate(-97.97 -58.21)"/><path class="cls-4" d="M317.16,211.37l-.91.95V214h-1.56v-6.76h1.56v3.16l3-3.16H321l-2.8,3,3,3.75h-1.83Z" transform="translate(-97.97 -58.21)"/><path class="cls-4" d="M297,240.31H295.8v1.63h-.64v-1.63h-3.5v-.46l3.29-4.11h.71l-3.18,4h2.7v-1.43h.62v1.43H297Z" transform="translate(-97.97 -58.21)"/><path class="cls-4" d="M301.6,240.16c0,1-.75,1.84-2.25,1.84a3.23,3.23,0,0,1-2.24-.8l.32-.51a2.67,2.67,0,0,0,1.92.72c1,0,1.6-.48,1.6-1.25s-.53-1.23-1.68-1.23h-.44v-.47l1.72-2.16h-3.18v-.56h4v.45l-1.75,2.21C300.94,238.47,301.6,239.17,301.6,240.16Z" transform="translate(-97.97 -58.21)"/><path class="cls-4" d="M306.62,240.12c0,1-.73,1.88-2.25,1.88a3.2,3.2,0,0,1-2.23-.8l.31-.51a2.68,2.68,0,0,0,1.91.72c1.06,0,1.62-.51,1.62-1.27s-.5-1.29-2.08-1.29h-1.32l.32-3.11h3.4v.56h-2.84l-.22,2h.8C305.91,238.28,306.62,239,306.62,240.12Z" transform="translate(-97.97 -58.21)"/><path class="cls-4" d="M312.1,240.09A1.94,1.94,0,0,1,310,242c-1.65,0-2.55-1.15-2.55-3.11s1.15-3.21,2.84-3.21a2.83,2.83,0,0,1,1.47.34l-.26.51a2.18,2.18,0,0,0-1.2-.29c-1.34,0-2.2.86-2.2,2.55,0,.14,0,.32,0,.5a2,2,0,0,1,1.9-1.06A1.88,1.88,0,0,1,312.1,240.09Zm-.63,0c0-.82-.61-1.34-1.57-1.34a1.43,1.43,0,0,0-1.59,1.36c0,.68.57,1.33,1.64,1.33A1.37,1.37,0,0,0,311.47,240.11Z" transform="translate(-97.97 -58.21)"/><path class="cls-4" d="M325.51,241.94,324,240l-1.49,1.95h-.71l1.85-2.39-1.76-2.27h.71l1.4,1.83,1.4-1.83h.7l-1.76,2.27,1.86,2.39Z" transform="translate(-97.97 -58.21)"/><path class="cls-4" d="M330.25,241.94,328.77,240l-1.49,1.95h-.71l1.85-2.39-1.76-2.27h.71l1.4,1.83,1.4-1.83h.69l-1.75,2.27,1.86,2.39Z" transform="translate(-97.97 -58.21)"/><path class="cls-4" d="M335,241.94,333.51,240,332,241.94h-.71l1.84-2.39-1.76-2.27h.71l1.41,1.83,1.4-1.83h.69l-1.76,2.27,1.87,2.39Z" transform="translate(-97.97 -58.21)"/><path class="cls-4" d="M339.72,241.94,338.24,240l-1.49,1.95H336l1.85-2.39-1.76-2.27h.71l1.4,1.83,1.4-1.83h.7l-1.76,2.27,1.86,2.39Z" transform="translate(-97.97 -58.21)"/><path class="cls-4" d="M356.08,241.94,354.6,240l-1.49,1.95h-.71l1.84-2.39-1.75-2.27h.71l1.4,1.83,1.4-1.83h.69l-1.76,2.27,1.87,2.39Z" transform="translate(-97.97 -58.21)"/><path class="cls-4" d="M360.81,241.94,359.33,240l-1.49,1.95h-.71l1.85-2.39-1.76-2.27h.71l1.4,1.83,1.4-1.83h.7l-1.76,2.27,1.86,2.39Z" transform="translate(-97.97 -58.21)"/><path class="cls-4" d="M365.55,241.94,364.07,240l-1.49,1.95h-.71l1.85-2.39L362,237.28h.71l1.4,1.83,1.4-1.83h.69l-1.75,2.27,1.86,2.39Z" transform="translate(-97.97 -58.21)"/><path class="cls-4" d="M370.29,241.94,368.81,240l-1.49,1.95h-.71l1.84-2.39-1.76-2.27h.71l1.41,1.83,1.4-1.83h.69l-1.76,2.27,1.87,2.39Z" transform="translate(-97.97 -58.21)"/><path class="cls-4" d="M385,235.74v6.2h-.64V236.3h-1.47v-.56Z" transform="translate(-97.97 -58.21)"/><path class="cls-4" d="M390.56,240.16c0,1-.75,1.84-2.25,1.84a3.23,3.23,0,0,1-2.24-.8l.31-.51a2.72,2.72,0,0,0,1.93.72c1,0,1.6-.48,1.6-1.25s-.53-1.23-1.68-1.23h-.44v-.47l1.72-2.16h-3.18v-.56h4v.45l-1.75,2.21C389.9,238.47,390.56,239.17,390.56,240.16Z" transform="translate(-97.97 -58.21)"/><path class="cls-4" d="M396.74,240.31h-1.25v1.63h-.63v-1.63h-3.51v-.46l3.29-4.11h.71l-3.17,4h2.69v-1.43h.62v1.43h1.25Z" transform="translate(-97.97 -58.21)"/><path class="cls-4" d="M401.53,241.38v.56h-4.36v-.45l2.58-2.53c.7-.69.83-1.1.83-1.53,0-.72-.5-1.16-1.45-1.16a2.08,2.08,0,0,0-1.69.69l-.46-.39a2.78,2.78,0,0,1,2.2-.89c1.26,0,2.06.64,2.06,1.68a2.53,2.53,0,0,1-1,1.94l-2.11,2.08Z" transform="translate(-97.97 -58.21)"/><path class="cls-4" d="M288.47,254.83a1.62,1.62,0,0,1,2.82-1l-.44.4a1,1,0,0,0-.74-.35,1,1,0,1,0,0,1.9,1,1,0,0,0,.74-.35l.44.41a1.63,1.63,0,0,1-2.82-1Z" transform="translate(-97.97 -58.21)"/><path class="cls-4" d="M293.65,255.68h-1.37l-.27.63h-.7l1.32-3h.68l1.32,3h-.71Zm-.21-.52L293,254l-.47,1.14Z" transform="translate(-97.97 -58.21)"/><path class="cls-4" d="M296.84,256.31l-.58-.82h-.63v.82H295v-3h1.28c.79,0,1.29.41,1.29,1.08a1,1,0,0,1-.61.93l.66.95Zm-.65-2.4h-.56v1h.56c.42,0,.63-.19.63-.51S296.61,253.91,296.19,253.91Z" transform="translate(-97.97 -58.21)"/><path class="cls-4" d="M297.83,256l.23-.51a1.77,1.77,0,0,0,1,.3c.41,0,.57-.13.57-.31,0-.56-1.72-.18-1.72-1.28,0-.5.41-.92,1.25-.92a2,2,0,0,1,1,.26l-.21.52a1.76,1.76,0,0,0-.82-.23c-.41,0-.57.15-.57.34,0,.54,1.73.17,1.73,1.26,0,.49-.42.91-1.26.91A2.14,2.14,0,0,1,297.83,256Z" transform="translate(-97.97 -58.21)"/><path class="cls-4" d="M304.69,253.35v3H304V255.1h-1.35v1.21H302v-3h.68v1.17H304v-1.17Z" transform="translate(-97.97 -58.21)"/><path class="cls-4" d="M305.21,254.83a1.62,1.62,0,1,1,1.62,1.53A1.53,1.53,0,0,1,305.21,254.83Zm2.55,0a.93.93,0,1,0-.93.95A.91.91,0,0,0,307.76,254.83Z" transform="translate(-97.97 -58.21)"/><path class="cls-4" d="M309,253.35h.69v2.41h1.48v.55H309Z" transform="translate(-97.97 -58.21)"/><path class="cls-4" d="M311.53,253.35h1.35a1.49,1.49,0,1,1,0,3h-1.35Zm1.31,2.4a.92.92,0,1,0,0-1.84h-.62v1.84Z" transform="translate(-97.97 -58.21)"/><path class="cls-4" d="M317.33,255.76v.55H315v-3h2.24v.55h-1.55v.64h1.37v.54h-1.37v.68Z" transform="translate(-97.97 -58.21)"/><path class="cls-4" d="M319.77,256.31l-.58-.82h-.63v.82h-.68v-3h1.28c.79,0,1.29.41,1.29,1.08a1,1,0,0,1-.61.93l.66.95Zm-.65-2.4h-.56v1h.56c.42,0,.63-.19.63-.51S319.54,253.91,319.12,253.91Z" transform="translate(-97.97 -58.21)"/><rect class="cls-4" x="189.81" y="205.47" width="43.95" height="3.8" rx="1.59"/><rect class="cls-4" x="281.99" y="205.47" width="24.42" height="3.8" rx="1.59"/><g class="cls-11"><path class="cls-4" d="M413.91,191.3H279.35a4.78,4.78,0,0,0-4.77,4.78v24.14c8.5,5.92,20.18,7,30.54,4.8,12.21-2.55,23.27-8.8,34.64-13.91s23.88-9.23,36.17-7.12c11.61,2,21.5,9.21,32,14.56a62.49,62.49,0,0,0,10.77,4.34V196.08A4.78,4.78,0,0,0,413.91,191.3Z" transform="translate(-97.97 -58.21)"/></g><rect class="cls-9" x="179.62" y="260.13" width="37.41" height="37.41" rx="8.78"/><path class="cls-4" d="M300,342.77h-8.18a.47.47,0,0,1-.46-.37l-3-12h-2.84a.49.49,0,0,1,0-1h3.22a.49.49,0,0,1,.47.37l3,12H300a.49.49,0,0,1,0,1Z" transform="translate(-97.97 -58.21)"/><circle class="cls-9" cx="195.39" cy="286.87" r="1.53"/><path class="cls-4" d="M293.36,347.09a2,2,0,1,1,2-2A2,2,0,0,1,293.36,347.09Zm0-3.06a1.05,1.05,0,1,0,1.05,1.05A1,1,0,0,0,293.36,344Z" transform="translate(-97.97 -58.21)"/><circle class="cls-9" cx="203.89" cy="286.87" r="1.53"/><path class="cls-4" d="M301.87,347.09a2,2,0,1,1,2-2A2,2,0,0,1,301.87,347.09Zm0-3.06a1.05,1.05,0,1,0,1,1.05A1,1,0,0,0,301.87,344Z" transform="translate(-97.97 -58.21)"/><path class="cls-4" d="M303.18,340.55H291.54a.49.49,0,1,1,0-1h11.24l1.28-7.2H289.37a.5.5,0,0,1-.48-.49.49.49,0,0,1,.49-.48s1.71,0,4,0h11.27a.47.47,0,0,1,.37.17.46.46,0,0,1,.11.4l-1.45,8.17A.48.48,0,0,1,303.18,340.55Z" transform="translate(-97.97 -58.21)"/><rect class="cls-3" x="229.43" y="266.7" width="75.89" height="9.03" rx="3.77"/><rect class="cls-3" x="229.43" y="284.45" width="38.36" height="9.03" rx="3.77"/><path class="cls-3" d="M434.83,304.25c0,.15-39.49.26-88.19.26s-88.21-.11-88.21-.26,39.49-.26,88.21-.26S434.83,304.11,434.83,304.25Z" transform="translate(-97.97 -58.21)"/><rect class="cls-9" x="192.07" y="312.54" width="115.04" height="38.79" rx="16.21"/><path class="cls-4" d="M345.3,388.3c0,1.95-1.47,3.16-3.8,3.16H340v2.24h-2.42v-8.57h3.92C343.83,385.13,345.3,386.35,345.3,388.3Zm-2.44,0c0-.79-.51-1.26-1.51-1.26H340v2.51h1.35C342.35,389.55,342.86,389.09,342.86,388.3Z" transform="translate(-97.97 -58.21)"/><path class="cls-4" d="M351.79,392h-3.62l-.68,1.66H345l3.78-8.57h2.39L355,393.7h-2.52Zm-.71-1.79-1.1-2.74-1.1,2.74Z" transform="translate(-97.97 -58.21)"/><path class="cls-4" d="M359.72,390.63v3.07H357.3v-3.11L354,385.13h2.56l2,3.41,2-3.41H363Z" transform="translate(-97.97 -58.21)"/><circle class="cls-9" cx="279.88" cy="153.21" r="7.47" transform="translate(-31.69 332.03) rotate(-76.67)"/><rect class="cls-3" x="220.69" y="91.16" width="55.94" height="6.55" rx="2.74"/><rect class="cls-6" x="198.16" y="362.51" width="114.19" height="7.63"/><path class="cls-13" d="M301.54,424.53c1,.34,14.38.34,14.38,26.75s-.67,59.18,13.37,60.18,87.93,0,87.93,0V445.17a20.08,20.08,0,0,0-20-20.08Z" transform="translate(-97.97 -58.21)"/><path class="cls-6" d="M301.54,424.53l55.54.17,28.18.1,7.72,0a45.9,45.9,0,0,1,8,.39,20.35,20.35,0,0,1,16.32,17.42,36.14,36.14,0,0,1,.18,4.41V469.7c0,12.36,0,25.16,0,38.28v3.74h-.26c-25.84.31-50.41.54-72.75.37q-4.19,0-8.26-.13a80,80,0,0,1-8.07-.44,8.89,8.89,0,0,1-3.62-1.7,13,13,0,0,1-2.6-2.95,26.48,26.48,0,0,1-3-7,78.13,78.13,0,0,1-2.37-14.16c-.41-4.59-.59-9-.69-13.22-.22-8.43-.05-16.05-.15-22.73s-1.16-12.43-3.22-16.65a18.21,18.21,0,0,0-3.58-5.05,13.59,13.59,0,0,0-3.77-2.51,19.49,19.49,0,0,0-3.61-1l.95.15a12.94,12.94,0,0,1,2.7.78A13.81,13.81,0,0,1,309,428a18.5,18.5,0,0,1,3.65,5.07c2.1,4.25,3.17,10.05,3.33,16.73s0,14.31.22,22.73c.12,4.21.31,8.61.73,13.19a76.81,76.81,0,0,0,2.39,14.08,26.14,26.14,0,0,0,2.94,6.87,12.8,12.8,0,0,0,2.51,2.84,8.67,8.67,0,0,0,3.43,1.61c2.56.34,5.29.32,8,.41s5.47.1,8.26.12c22.32.15,46.9-.1,72.74-.41l-.26.26V469.7c0-6.18,0-12.26,0-18.2v-4.44a34.72,34.72,0,0,0-.16-4.35,19.78,19.78,0,0,0-15.93-17,45.31,45.31,0,0,0-7.88-.4l-7.69,0-28-.22Z" transform="translate(-97.97 -58.21)"/><path class="cls-3" d="M329.63,511.46s11.56,0,14-17c2.95-20.32,0-38.12,15.71-38.78s57.84,0,57.84,0v55.83Z" transform="translate(-97.97 -58.21)"/><path class="cls-13" d="M357.4,455.83s12.68-1.54,12.68,19.52.33,35,14.37,36.56,100.31,0,100.31,0-13.71-6.47-14.72-25.52-5-30.69-18.72-31.06S357.4,455.83,357.4,455.83Z" transform="translate(-97.97 -58.21)"/><path class="cls-6" d="M357.4,455.83l.86,0,2.49-.05,9.61-.15,35.35-.38,24.44-.17,13.63,0c2.34,0,4.72,0,7.13.07a20.18,20.18,0,0,1,7.23,1.39,14.65,14.65,0,0,1,5.89,4.73,24.31,24.31,0,0,1,3.47,6.9,68,68,0,0,1,2.63,15.66c.09,1.35.16,2.7.31,4l.2,2,.38,2,.18,1,.28,1,.56,2a35.2,35.2,0,0,0,1.59,3.81,27.52,27.52,0,0,0,11.24,12.07l.87.48-1,0-2.39,0c-23.15.38-45.2.63-65.26.63-10,0-19.57-.05-28.49-.43a39.55,39.55,0,0,1-6.56-.71,13.17,13.17,0,0,1-5.69-2.86,14.11,14.11,0,0,1-3.52-5,26.11,26.11,0,0,1-1.69-5.61,69.29,69.29,0,0,1-1.08-10.78c-.13-3.42-.14-6.64-.14-9.65,0-1.51,0-3-.07-4.36,0-.69,0-1.38-.1-2.05s-.16-1.31-.24-1.95l-.12-.95c-.06-.31-.13-.61-.2-.91-.14-.6-.27-1.18-.4-1.76s-.37-1.09-.55-1.62l-.27-.77-.36-.72a12.27,12.27,0,0,0-3.32-4.45,10.35,10.35,0,0,0-6-2.42,4.93,4.93,0,0,0-.65,0h-.22a1.18,1.18,0,0,1,.22,0,4.27,4.27,0,0,1,.65,0,8.94,8.94,0,0,1,2.51.4,9.71,9.71,0,0,1,3.63,1.95,12.36,12.36,0,0,1,3.4,4.48c2,3.83,2.44,9.18,2.42,15.18,0,3,0,6.23.18,9.64a71.1,71.1,0,0,0,1.11,10.72,26.13,26.13,0,0,0,1.68,5.52,13.47,13.47,0,0,0,3.44,4.85,12.6,12.6,0,0,0,5.51,2.76,40.3,40.3,0,0,0,6.49.69c8.9.36,18.44.37,28.47.38,20.05,0,42.1-.29,65.25-.67l2.39,0-.11.49a28,28,0,0,1-11.48-12.32,37,37,0,0,1-1.61-3.86l-.57-2-.28-1-.19-1-.38-2-.2-2c-.15-1.37-.22-2.71-.31-4.05a67.06,67.06,0,0,0-2.6-15.54,23.86,23.86,0,0,0-3.38-6.77,14.25,14.25,0,0,0-5.68-4.58,19.81,19.81,0,0,0-7.06-1.36c-2.41-.06-4.78-.07-7.13-.09H430.15l-24.44.1-35.35.22-9.61,0H357.4Z" transform="translate(-97.97 -58.21)"/><path class="cls-6" d="M360.75,455.79c0,.06-1,0-2.81.21a12.12,12.12,0,0,0-6.72,3.27c-2.35,2.2-4.11,5.78-5,9.94s-1,8.91-1.17,13.86A68.84,68.84,0,0,1,343.44,497a33.68,33.68,0,0,1-2.07,5.77,21.26,21.26,0,0,1-2.73,4.6,11.42,11.42,0,0,1-3.38,2.85,11.23,11.23,0,0,1-5.24,1.28,4.07,4.07,0,0,1-.73,0,3.2,3.2,0,0,1,.72-.08,15.22,15.22,0,0,0,2.06-.29,11.34,11.34,0,0,0,3.05-1.15,11.17,11.17,0,0,0,3.24-2.82,21.65,21.65,0,0,0,2.62-4.55,34.46,34.46,0,0,0,2-5.71,70.56,70.56,0,0,0,1.56-13.81c.21-4.94.27-9.71,1.22-13.95s2.75-7.87,5.21-10.09a12,12,0,0,1,6.95-3.21,9.33,9.33,0,0,1,1.21-.09,8.39,8.39,0,0,1,.89,0A3.81,3.81,0,0,1,360.75,455.79Z" transform="translate(-97.97 -58.21)"/><path class="cls-3" d="M402.82,439.84c0,.14-16.2.26-36.18.26s-36.18-.12-36.18-.26,16.19-.26,36.18-.26S402.82,439.69,402.82,439.84Z" transform="translate(-97.97 -58.21)"/><path class="cls-3" d="M404.32,450.6c0,.15-15.67.26-35,.26s-35-.11-35-.26,15.67-.26,35-.26S404.32,450.46,404.32,450.6Z" transform="translate(-97.97 -58.21)"/><path class="cls-3" d="M453.65,471.53c0,.15-16.2.26-36.18.26s-36.18-.11-36.18-.26,16.2-.26,36.18-.26S453.65,471.39,453.65,471.53Z" transform="translate(-97.97 -58.21)"/><path class="cls-3" d="M454.55,484.09c0,.15-14.86.26-33.19.26s-33.19-.11-33.19-.26,14.86-.26,33.19-.26S454.55,484,454.55,484.09Z" transform="translate(-97.97 -58.21)"/><rect class="cls-4" x="285.92" y="145.77" width="13.34" height="13.34" rx="3.15"/></g><g id="Speech_Bubble" data-name="Speech Bubble"><path class="cls-4" d="M147.59,189.33l-6.61-.8a25.41,25.41,0,1,1,6.54-6.33h0Z" transform="translate(-97.97 -58.21)"/><path class="cls-6" d="M147.59,189.33s0-.17,0-.48,0-.79,0-1.38c0-1.22-.06-3-.1-5.28l.15.07h0a.09.09,0,0,1-.13,0,.1.1,0,0,1,0-.12,25.28,25.28,0,0,0,4.45-11.3,25.6,25.6,0,0,0-.21-8,25.34,25.34,0,0,0-3.27-8.47,25.81,25.81,0,0,0-6.85-7.33,24.59,24.59,0,0,0-9.94-4.29,25.66,25.66,0,0,0-11.5.49,24.59,24.59,0,0,0-10.48,6,25.36,25.36,0,0,0-4,4.77c-.51.89-1,1.77-1.48,2.68l-.6,1.4-.29.7-.23.72A25.76,25.76,0,0,0,102,171,24.58,24.58,0,0,0,106,181.25,25.28,25.28,0,0,0,121.48,192l2.1.37c.69.1,1.38.11,2,.18a22.65,22.65,0,0,0,3.88-.08,25.28,25.28,0,0,0,11.42-4.05H141l4.87.64,1.28.18.45.07-.42,0-1.26-.13-4.94-.54.06,0a25.11,25.11,0,0,1-11.49,4.2,23.19,23.19,0,0,1-3.93.09c-.68,0-1.37-.07-2.07-.17l-2.13-.36a25.58,25.58,0,0,1-8.54-3.62,26.26,26.26,0,0,1-7.26-7.26,24.86,24.86,0,0,1-4-10.37,26.15,26.15,0,0,1,1-11.79l.23-.73.3-.71.61-1.42c.45-.93,1-1.83,1.5-2.74a26.28,26.28,0,0,1,4-4.86A25,25,0,0,1,120,142.8a26,26,0,0,1,11.71-.49,25,25,0,0,1,10.1,4.39,26,26,0,0,1,6.93,7.46,25.52,25.52,0,0,1,3.29,8.61,26.18,26.18,0,0,1,.17,8.11,25.28,25.28,0,0,1-4.59,11.37l-.14-.12h0a.09.09,0,0,1,.13,0,.07.07,0,0,1,0,.06v5.33c0,.59,0,1,0,1.36S147.59,189.33,147.59,189.33Z" transform="translate(-97.97 -58.21)"/><polygon class="cls-9" points="17.73 110.77 20.91 107.36 27.45 112.79 39.49 100.38 42.66 103.57 27.19 119.15 17.73 110.77"/></g><g id="Character"><path class="cls-14" d="M171.65,157A19.19,19.19,0,0,1,192,140.76l1,.07c10.64,1.4,15.39,11.23,13.7,21.83L203,200.28l-.18,7.78-25.35,2.3.55-16.42s-10.16-2.35-9.54-12.63C168.78,176.34,170.23,166.17,171.65,157Z" transform="translate(-97.97 -58.21)"/><path class="cls-15" d="M177.93,193.91A24.94,24.94,0,0,0,191.68,191s-3.57,7.41-13.75,5.74Z" transform="translate(-97.97 -58.21)"/><path class="cls-6" d="M175.63,167.22a1.47,1.47,0,0,0,1.31,1.58,1.42,1.42,0,0,0,1.61-1.21,1.48,1.48,0,0,0-1.31-1.59A1.42,1.42,0,0,0,175.63,167.22Z" transform="translate(-97.97 -58.21)"/><path class="cls-6" d="M173.49,162.16c.17.2,1.34-.54,2.92-.42s2.68,1,2.86.81-.07-.44-.54-.84a4.07,4.07,0,0,0-2.28-.89,3.89,3.89,0,0,0-2.34.58C173.6,161.73,173.41,162.07,173.49,162.16Z" transform="translate(-97.97 -58.21)"/><path class="cls-6" d="M190.42,168.63a1.48,1.48,0,0,0,1.31,1.58,1.4,1.4,0,0,0,1.61-1.21,1.49,1.49,0,0,0-1.31-1.59A1.42,1.42,0,0,0,190.42,168.63Z" transform="translate(-97.97 -58.21)"/><path class="cls-6" d="M189,163.58c.17.21,1.34-.53,2.92-.41s2.67,1,2.86.81-.07-.44-.55-.84a4,4,0,0,0-2.27-.89,3.81,3.81,0,0,0-2.34.57C189.1,163.16,188.91,163.49,189,163.58Z" transform="translate(-97.97 -58.21)"/><path class="cls-6" d="M182.41,174.87a10.62,10.62,0,0,0-2.53-.65c-.4-.07-.78-.17-.83-.45a2.11,2.11,0,0,1,.36-1.18l1.41-3c2-4.25,3.44-7.76,3.27-7.84s-1.91,3.31-3.89,7.56l-1.37,3a2.4,2.4,0,0,0-.32,1.57,1,1,0,0,0,.62.64,3.29,3.29,0,0,0,.68.14A10.31,10.31,0,0,0,182.41,174.87Z" transform="translate(-97.97 -58.21)"/><path class="cls-6" d="M187,176.3c-.25,0-.38,1.68-1.94,2.79s-3.36.79-3.39,1,.38.36,1.15.44a4.28,4.28,0,0,0,2.83-.76,3.71,3.71,0,0,0,1.51-2.35C187.25,176.74,187.09,176.3,187,176.3Z" transform="translate(-97.97 -58.21)"/><path class="cls-6" d="M189,157.37c.13.44,1.72.35,3.55.71s3.3,1,3.57.6c.13-.17-.1-.6-.68-1.06a6.33,6.33,0,0,0-5.42-1C189.35,156.85,189,157.16,189,157.37Z" transform="translate(-97.97 -58.21)"/><path class="cls-6" d="M174.41,157.63c.25.38,1.36.09,2.67.17s2.4.41,2.68.06c.13-.18,0-.55-.48-.92a3.67,3.67,0,0,0-2.13-.75,3.75,3.75,0,0,0-2.19.56C174.47,157.09,174.3,157.45,174.41,157.63Z" transform="translate(-97.97 -58.21)"/><path class="cls-14" d="M204.33,172.53a2.78,2.78,0,0,1,3.2-2.46c1.91.32,4,1.56,3.54,5.51-.73,7-7.62,4.82-7.61,4.62S204,175.46,204.33,172.53Z" transform="translate(-97.97 -58.21)"/><path class="cls-15" d="M205.26,177.73s.12.09.31.21a1.3,1.3,0,0,0,.91.12,3.07,3.07,0,0,0,1.69-2.57,4.17,4.17,0,0,0-.16-1.78,1.4,1.4,0,0,0-.82-1,.63.63,0,0,0-.76.25c-.11.19-.08.33-.12.34s-.14-.13-.05-.41a.72.72,0,0,1,.32-.41.9.9,0,0,1,.69-.11,1.72,1.72,0,0,1,1.17,1.22,4.11,4.11,0,0,1,.21,2c-.19,1.4-1.05,2.65-2.09,2.84a1.33,1.33,0,0,1-1.1-.31C205.26,177.9,205.24,177.74,205.26,177.73Z" transform="translate(-97.97 -58.21)"/><path class="cls-6" d="M209.94,165.39c-.58,2-.37,5.35-2.17,4.89-3.56-.9-2.7,6.41-4.41,5.69s-3.18-2.78-3.29-7.27c-.13-5.71,2.16-9.83-.08-16.37a8.65,8.65,0,0,0-7.22-4.47,8.8,8.8,0,0,0-7.57,4c-.32-2-1.29-5-3.06-6a5.16,5.16,0,0,0-5.67.48,4.16,4.16,0,0,0-.74,5.44,2,2,0,0,1-2.24-.8,3.36,3.36,0,0,0,.89,2.56,3.11,3.11,0,0,1-1.81-1.26c.18.83.35,1.65.53,2.48-3,.08-5.94-2.83-6.78-5.42-1.26-3.93-.29-7.89,1.9-11.38a12.36,12.36,0,0,1,10.25-5.91c4.12,0,7.57,2,9.16,5.79,2.68-1.89,8.1-2.55,11.08-1.19a9.64,9.64,0,0,1,5.49,7.63,5.74,5.74,0,0,1,5.68,1.1l.38.33a8.59,8.59,0,0,1,2.49,7.91c-.22,1.14-.62,2.32-.85,3.24C211.21,159.63,209.94,165.39,209.94,165.39Z" transform="translate(-97.97 -58.21)"/><path class="cls-7" d="M173,150.84s-.09-.05-.24-.18a5.21,5.21,0,0,1-.59-.65,6,6,0,0,1-1.18-3,5.7,5.7,0,0,1,1.4-4.49,6.16,6.16,0,0,1,5.36-2,6.89,6.89,0,0,1,2.84,1.12,9.21,9.21,0,0,1,2.1,1.91,11.17,11.17,0,0,1,2.5,7.45c0,.38-.05.67-.09.87a1.21,1.21,0,0,1-.06.3,13.42,13.42,0,0,0-.41-4.31,11.29,11.29,0,0,0-2.16-4.13,7.84,7.84,0,0,0-4.76-2.9,5.91,5.91,0,0,0-5.11,1.91,5.54,5.54,0,0,0-1.39,4.28,6.17,6.17,0,0,0,1.06,2.94C172.72,150.55,173,150.82,173,150.84Z" transform="translate(-97.97 -58.21)"/><path class="cls-7" d="M171.64,154a1.67,1.67,0,0,1-.21-.34c-.13-.23-.32-.57-.55-1a22.5,22.5,0,0,1-1.65-3.91,11.3,11.3,0,0,1-.46-2.92,8,8,0,0,1,.61-3.33,6.52,6.52,0,0,1,2.41-2.87,7.88,7.88,0,0,1,3.81-1.26,9.56,9.56,0,0,1,4,.64,12.27,12.27,0,0,1,3.25,1.85,9.68,9.68,0,0,1,3.55,5.14,7,7,0,0,1-.21,4.22,5.2,5.2,0,0,1-.52,1,3.84,3.84,0,0,1-.25.32,9.26,9.26,0,0,0,.66-1.4,7.17,7.17,0,0,0,.11-4.12,9.58,9.58,0,0,0-3.52-5,10.7,10.7,0,0,0-7-2.4,7.59,7.59,0,0,0-3.67,1.21,6.29,6.29,0,0,0-2.31,2.72,8,8,0,0,0-.61,3.22,11,11,0,0,0,.41,2.86,23.88,23.88,0,0,0,1.55,3.91l.5,1A1.89,1.89,0,0,1,171.64,154Z" transform="translate(-97.97 -58.21)"/><path class="cls-7" d="M207.46,160.85s.65-.53,1.5-1.54a10.43,10.43,0,0,0,2.24-4.58,10.57,10.57,0,0,0-.23-5.09c-.38-1.27-.81-2-.76-2a2.07,2.07,0,0,1,.32.48,8.48,8.48,0,0,1,.65,1.46,9.89,9.89,0,0,1-2.05,9.88,9.46,9.46,0,0,1-1.17,1.09C207.66,160.76,207.48,160.87,207.46,160.85Z" transform="translate(-97.97 -58.21)"/><path class="cls-7" d="M201.07,160.65s.35-.16.91-.54a5.11,5.11,0,0,0,1.77-2.13l.29-.67L204,158c-.09,1-.19,2.13-.3,3.36l-.23-.13a9.38,9.38,0,0,0,2.29-2.25,9.16,9.16,0,0,0,1.57-3.7,9.54,9.54,0,0,0,0-3.3,13.21,13.21,0,0,0-1-2.9,1.08,1.08,0,0,1,.13.17c.08.12.18.3.31.54a8.38,8.38,0,0,1,.76,2.15,9,9,0,0,1,.09,3.39,9.29,9.29,0,0,1-4,6.14l-.26.17,0-.31c.13-1.23.25-2.36.36-3.35l.23.06a5,5,0,0,1-1.92,2.15,4.49,4.49,0,0,1-.71.35A.75.75,0,0,1,201.07,160.65Z" transform="translate(-97.97 -58.21)"/><path class="cls-7" d="M199.12,145.87a6.65,6.65,0,0,0-1.62-2,6,6,0,0,0-2.53-1.17,6.33,6.33,0,0,0-3.38.3,7.28,7.28,0,0,0-2.82,1.92,8.69,8.69,0,0,0-1.53,2.37,16.38,16.38,0,0,0-.76,2.51,2.25,2.25,0,0,1,.05-.71,8.47,8.47,0,0,1,.51-1.89,8.73,8.73,0,0,1,1.51-2.48,7.51,7.51,0,0,1,2.94-2,6.41,6.41,0,0,1,3.54-.29,5.92,5.92,0,0,1,2.61,1.28,5.3,5.3,0,0,1,1.23,1.53,4.71,4.71,0,0,1,.21.49C199.12,145.8,199.13,145.87,199.12,145.87Z" transform="translate(-97.97 -58.21)"/><path class="cls-7" d="M197.48,140.51a9.47,9.47,0,0,0-1.93-.74,7,7,0,0,0-4.82.68,8.77,8.77,0,0,0-3.42,3.54c-.6,1.14-.8,1.93-.85,1.91a1.75,1.75,0,0,1,.1-.56,8.71,8.71,0,0,1,.56-1.45,8.51,8.51,0,0,1,3.46-3.72,7,7,0,0,1,5-.62,5.37,5.37,0,0,1,1.43.61A1.79,1.79,0,0,1,197.48,140.51Z" transform="translate(-97.97 -58.21)"/><path class="cls-6" d="M174.91,471.65l.71,19.24s-19.31,7.17-19.53,10.74l37.34,0,.13-30Z" transform="translate(-97.97 -58.21)"/><path class="cls-3" d="M187.16,489.26a1.53,1.53,0,0,1,1.06,1.74,1.47,1.47,0,0,1-1.72,1.06,1.6,1.6,0,0,1-1.1-1.85,1.5,1.5,0,0,1,1.9-.9" transform="translate(-97.97 -58.21)"/><path class="cls-6" d="M193.43,501.6l-.11-3-35.75,1.16s-1.67.73-1.48,1.9Z" transform="translate(-97.97 -58.21)"/><path class="cls-4" d="M175,490.7c0,.18.92.26,1.82.85s1.37,1.35,1.54,1.28-.1-1.13-1.2-1.82S175,490.53,175,490.7Z" transform="translate(-97.97 -58.21)"/><path class="cls-4" d="M171.1,492.32c0,.18.75.49,1.37,1.26s.8,1.58,1,1.57.29-1-.5-2S171.1,492.15,171.1,492.32Z" transform="translate(-97.97 -58.21)"/><path class="cls-4" d="M168.88,497c.16,0,.42-.87,0-1.87s-1.32-1.4-1.4-1.24.45.68.82,1.51S168.7,497,168.88,497Z" transform="translate(-97.97 -58.21)"/><path class="cls-4" d="M175.34,486.3c.07.16.91-.09,1.94,0s1.84.39,1.93.24-.68-.81-1.89-.87S175.25,486.15,175.34,486.3Z" transform="translate(-97.97 -58.21)"/><path class="cls-6" d="M217.76,473.42l1.48,23.23-4.12,18.72a2.38,2.38,0,0,0,2,2.87h0a2.36,2.36,0,0,0,2.06-.7c3.41-3.55,15.89-16.67,15.69-18.37-.24-2,.06-24.61.06-24.61Z" transform="translate(-97.97 -58.21)"/><path class="cls-6" d="M217.1,518.24l17.69-20.64,0,1a3.59,3.59,0,0,1-.76,2.36c-1.4,1.79-5.39,6.67-14.84,16.59a2.39,2.39,0,0,1-2.13.7Z" transform="translate(-97.97 -58.21)"/><g class="cls-16"><path class="cls-4" d="M229.7,490.29a1.44,1.44,0,0,0-.31,1.9,1.38,1.38,0,0,0,1.88.33,1.52,1.52,0,0,0,.32-2,1.44,1.44,0,0,0-2-.13" transform="translate(-97.97 -58.21)"/></g><path class="cls-4" d="M222,507.86a7.38,7.38,0,0,0-2.12-1.73,7.19,7.19,0,0,0-2.7-.4c0-.06.27-.25.81-.35a3.77,3.77,0,0,1,3.72,1.65C222,507.49,222.05,507.84,222,507.86Z" transform="translate(-97.97 -58.21)"/><path class="cls-4" d="M220.47,511c-.11.11-.89-.62-2.11-.92a22.14,22.14,0,0,0-2.28-.2,2.68,2.68,0,0,1,2.41-.29C219.88,510,220.58,511,220.47,511Z" transform="translate(-97.97 -58.21)"/><path class="cls-4" d="M224.92,503.74a23.37,23.37,0,0,0-3.15-1.63,24.27,24.27,0,0,0-3.49-.67,5.38,5.38,0,0,1,3.66.18A5.32,5.32,0,0,1,224.92,503.74Z" transform="translate(-97.97 -58.21)"/><path class="cls-4" d="M225.05,496.64c-.05.14-1.36-.35-3-.34s-3,.47-3,.33a4.54,4.54,0,0,1,3-.84A4.6,4.6,0,0,1,225.05,496.64Z" transform="translate(-97.97 -58.21)"/><path class="cls-4" d="M224.79,489.81a11.3,11.3,0,0,0-3.15-.44,12.27,12.27,0,0,0-3.06.9s.21-.34.73-.68a5.24,5.24,0,0,1,2.29-.73,5.1,5.1,0,0,1,2.37.38C224.54,489.49,224.82,489.75,224.79,489.81Z" transform="translate(-97.97 -58.21)"/><path class="cls-4" d="M221.63,488.07a1.94,1.94,0,0,1-.07-.88,6.26,6.26,0,0,1,.6-2.33,2.73,2.73,0,0,1,1.11-1.34,1,1,0,0,1,1.09.17,1.51,1.51,0,0,1,.41,1A3.37,3.37,0,0,1,222,488a3.93,3.93,0,0,1-3.93-1.89,1.39,1.39,0,0,1-.11-1.12,1,1,0,0,1,1-.54,3.49,3.49,0,0,1,1.56.73,6.82,6.82,0,0,1,1.66,1.75,1.93,1.93,0,0,1,.39.79,10.65,10.65,0,0,0-2.26-2.24,3.19,3.19,0,0,0-1.38-.61.51.51,0,0,0-.52.29,1,1,0,0,0,.11.74,3.5,3.5,0,0,0,3.42,1.6,2.93,2.93,0,0,0,2.44-2.72A1.13,1.13,0,0,0,224,484a.51.51,0,0,0-.6-.1,2.54,2.54,0,0,0-1,1.11A8.77,8.77,0,0,0,221.63,488.07Z" transform="translate(-97.97 -58.21)"/><path class="cls-6" d="M158.55,309.11a82.66,82.66,0,0,0-2.36,24.26c.27,5.18,16.9,154.7,16.9,154.7l21.14-1.9-3.65-139.8.88.79s12.6,58.82,13.44,68.12c.75,8.36,10.8,75.49,10.8,75.49l20.52-1-4.65-84.87-6.22-77.06-2.49-22.44Z" transform="translate(-97.97 -58.21)"/><path class="cls-7" d="M194.65,334.32a5,5,0,0,1-1,.53,11.34,11.34,0,0,1-2.94.95,6.12,6.12,0,0,1-2.17,0,4.57,4.57,0,0,1-2.24-1.14,5.53,5.53,0,0,1-1.32-2.44c-.25-.92-.39-1.87-.56-2.84-.66-3.9-1.09-7.45-1.33-10-.12-1.28-.19-2.33-.23-3.05a4.75,4.75,0,0,1,0-1.13,5.43,5.43,0,0,1,.19,1.11c.11.82.24,1.84.39,3,.33,2.56.81,6.09,1.47,10,.33,1.92.55,3.87,1.72,5a4.86,4.86,0,0,0,4,1.15,13.22,13.22,0,0,0,2.92-.78A5.16,5.16,0,0,1,194.65,334.32Z" transform="translate(-97.97 -58.21)"/><path class="cls-7" d="M188,315.94s.16-.12.49-.13a2.09,2.09,0,0,1,1.31.45,2.39,2.39,0,0,1,.95,1.84,2.23,2.23,0,0,1-1.56,2,2.2,2.2,0,0,1-2.45-.59,2.35,2.35,0,0,1-.4-2,2.08,2.08,0,0,1,.74-1.17c.26-.2.45-.22.46-.2a2.62,2.62,0,0,0-.86,1.44,2,2,0,0,0,.41,1.66,1.77,1.77,0,0,0,1.94.42,1.79,1.79,0,0,0,1.26-1.53,2.08,2.08,0,0,0-.72-1.56A2.67,2.67,0,0,0,188,315.94Z" transform="translate(-97.97 -58.21)"/><path class="cls-7" d="M225.06,326.49a2.72,2.72,0,0,1-.81.1,15,15,0,0,1-2.21,0A21.42,21.42,0,0,1,209,320.7a14.38,14.38,0,0,1-1.49-1.64,2.66,2.66,0,0,1-.46-.67c.07-.05.81.83,2.19,2.05a24,24,0,0,0,6,3.87,24.47,24.47,0,0,0,6.88,1.91C223.9,326.44,225.05,326.4,225.06,326.49Z" transform="translate(-97.97 -58.21)"/><path class="cls-7" d="M168.05,315.91a10,10,0,0,1-1.27,2.37,26.89,26.89,0,0,1-4.2,5,26.54,26.54,0,0,1-5.27,3.82,10.17,10.17,0,0,1-2.46,1.1,25.16,25.16,0,0,1,2.28-1.4,34.47,34.47,0,0,0,5.11-3.88,33.49,33.49,0,0,0,4.25-4.81C167.46,316.75,168,315.87,168.05,315.91Z" transform="translate(-97.97 -58.21)"/><path class="cls-14" d="M147.07,231.45c-3.14,9.17-2.79,8.39-8.67,35.78-1.09,5.06.83,13,5.39,15.4s12.65-.24,15.37-4.64l4.36-41.35Z" transform="translate(-97.97 -58.21)"/><line class="cls-9" x1="65.55" y1="146.09" x2="65.55" y2="146.09"/><path class="cls-9" d="M222.87,281.14l-.12-21.79.09-2.13L245,252.05s-4.34-14.3-8.32-29.67c-2.3-8.87-9.95-13.34-11.8-14.3h0l-.41-.19h0l-21.28-9c-4.3,4.59-10.56,8.26-16.6,6.5a18.92,18.92,0,0,1-8.75-6l-14.34,4.92h0a18.68,18.68,0,0,0-9.92,8c-3,5.31-12.59,29.66-12.75,30.2l17.76,1.6s-3.15,57.61-2,67.9c0,0,4.32,3,15.2,3.5,22.07,1,54.93-.52,54.93-.52-.52-3.33-1.06-8.88-1.36-11.69Z" transform="translate(-97.97 -58.21)"/><path class="cls-6" d="M159.14,222.7c.09,0-.38,13.74-1,30.68s-1.29,30.68-1.38,30.68.38-13.74,1-30.69S159.05,222.69,159.14,222.7Z" transform="translate(-97.97 -58.21)"/><path class="cls-6" d="M220.44,226.54c-.15,0,.29,12.2,1,27.23S222.85,281,223,281s-.29-12.19-1-27.23S220.6,226.53,220.44,226.54Z" transform="translate(-97.97 -58.21)"/><path class="cls-14" d="M245.05,262.42c-.72-5.4-1.32-10.19-1.32-10.19l-17.68,4.11.75,2.85L213.14,245.3l-2.17.19-6.88,7.16s6,12.66,9.49,17.6c4.54,6.41,11.67,16.19,21.44,15.37C244.05,284.86,246.34,272.13,245.05,262.42Z" transform="translate(-97.97 -58.21)"/><path class="cls-15" d="M235.47,265.66a22.08,22.08,0,0,0-8.5-6.12c-.08.14,1.95,1.32,4.28,3S235.36,265.78,235.47,265.66Z" transform="translate(-97.97 -58.21)"/><path class="cls-14" d="M189.27,227.18l6.08-3.1,7.88,2.51,3.9,3.59,6,15.12,4.81,6.09-8.49,11.06-5.37-9.8s-4.55-2-6.38-4.87-2.64-4.44-2.64-4.44-2.63-1.26-3.12-2.47a6,6,0,0,1-.47-2.16l1.34-2a4.9,4.9,0,0,1,.4-2.48,2.43,2.43,0,0,1,1.05-.83s-.39-1.64.22-2.23a19,19,0,0,1,3.64-1.66h0l-2.65-1.51S189.6,229.87,189.27,227.18Z" transform="translate(-97.97 -58.21)"/><path class="cls-15" d="M198.29,232.67c0,.08-.93.1-2,.34s-2,.59-2,.52a6.36,6.36,0,0,1,4-.86Z" transform="translate(-97.97 -58.21)"/><path class="cls-15" d="M196.47,236.07c0,.07-.8.07-1.76.22s-1.71.38-1.74.31a3.64,3.64,0,0,1,1.7-.57A3.74,3.74,0,0,1,196.47,236.07Z" transform="translate(-97.97 -58.21)"/><path class="cls-15" d="M193.9,241.38c-.07,0-.12-.35-.11-.78s.07-.77.14-.76.12.34.12.77S194,241.38,193.9,241.38Z" transform="translate(-97.97 -58.21)"/><path class="cls-15" d="M195.06,243a3.4,3.4,0,0,0-.56-1.4,3.5,3.5,0,0,0-1.22-.88s.19-.05.48,0a2,2,0,0,1,1,.68,2.11,2.11,0,0,1,.43,1.08C195.16,242.84,195.09,243,195.06,243Z" transform="translate(-97.97 -58.21)"/><path class="cls-15" d="M199.81,238.17a2.79,2.79,0,0,0-2.5-1.39s.16-.12.46-.14a2,2,0,0,1,1.11.27,2,2,0,0,1,.81.8C199.83,238,199.84,238.16,199.81,238.17Z" transform="translate(-97.97 -58.21)"/><path class="cls-15" d="M202.58,234.81c-.07,0-.31-.6-1-1a4.66,4.66,0,0,0-1.33-.46s.16-.09.44-.08a2,2,0,0,1,1,.32,2.06,2.06,0,0,1,.73.8C202.6,234.63,202.61,234.8,202.58,234.81Z" transform="translate(-97.97 -58.21)"/><path class="cls-15" d="M204.43,233.16a2.88,2.88,0,0,1-.06-.52,2.42,2.42,0,0,0-.44-1.11,2.48,2.48,0,0,0-.94-.75c-.29-.13-.49-.17-.48-.21s.21-.06.54,0a2.1,2.1,0,0,1,1.09.76,2.15,2.15,0,0,1,.41,1.26C204.55,233,204.47,233.17,204.43,233.16Z" transform="translate(-97.97 -58.21)"/><path class="cls-15" d="M201.86,229.21c0,.09-1.27.11-2.8.35a27,27,0,0,0-2.73.7,6.31,6.31,0,0,1,2.69-1,12.18,12.18,0,0,1,2-.15A2.76,2.76,0,0,1,201.86,229.21Z" transform="translate(-97.97 -58.21)"/><g class="cls-8"><path d="M184.56,263.35a10.78,10.78,0,0,0-1.5-5c-1.78-2.51-5.27-3-8.33-2.89s-6.26.75-9.14-.3L157,280.71a12.79,12.79,0,0,0,7.78-5.66c.88-1.43,1.52-3.09,2.85-4.11,1.84-1.41,4.38-1.2,6.7-1.23a26.65,26.65,0,0,0,7.15-1,4.77,4.77,0,0,0,2.63-1.5C184.86,266.11,184.73,264.66,184.56,263.35Z" transform="translate(-97.97 -58.21)"/></g><path class="cls-6" d="M162.37,233.41l2.68,28.47a4,4,0,0,0,1.76,3.28l17.27-.37A6.87,6.87,0,0,0,185.4,260l-1.92-27.25c-.11-1.64-.72-2.82-1.46-2.84l-18.19-.42C162.9,229.42,162.18,231.38,162.37,233.41Z" transform="translate(-97.97 -58.21)"/><path class="cls-14" d="M159.86,239.13a2.49,2.49,0,0,1,.06-3.08,3.82,3.82,0,0,1,3-1.32,8.56,8.56,0,0,1,3.24.75,21.14,21.14,0,0,1,3.64,1.93,3.51,3.51,0,0,1,1.79,2.19c.14,1-.93,2-1.76,1.53a4.09,4.09,0,0,1,2.32,2.9c.15,1.22-.52,1.85-1.7,2.18a1.83,1.83,0,0,1,1,2.36,2.11,2.11,0,0,1-2.65.74,6.09,6.09,0,0,1-2.25-2,6.91,6.91,0,0,1,.31,4.34c-2.58-.95-5.12-3.81-4.35-6.53a3.68,3.68,0,0,1-1-4.41,3.61,3.61,0,0,1-2.08-3.07" transform="translate(-97.97 -58.21)"/><path class="cls-14" d="M159.57,236.65l-.2,12.17-3.16,4.75-14.47,12.94s2.14,17.58,8.68,15.66,8.11-3.17,12-10.26c2.07-3.8,3.35-10,4.54-13.53.7-2.08.09-8.78.09-8.78Z" transform="translate(-97.97 -58.21)"/><path class="cls-15" d="M170.38,246.22a10.93,10.93,0,0,1-1.1-.89,7.69,7.69,0,0,0-2.92-1.58,4.08,4.08,0,0,0-1.8,0,3.3,3.3,0,0,0-1.33.63,4.07,4.07,0,0,0-.88,1.06s0-.15.11-.38a2.58,2.58,0,0,1,.64-.84,3.25,3.25,0,0,1,1.4-.72,4.15,4.15,0,0,1,1.92,0,7,7,0,0,1,3,1.71A4.9,4.9,0,0,1,170.38,246.22Z" transform="translate(-97.97 -58.21)"/><path class="cls-15" d="M170.21,241.26a5.78,5.78,0,0,1-1.35-.6c-.4-.2-.88-.45-1.44-.67a12,12,0,0,0-1.85-.52,5.6,5.6,0,0,0-1.9-.07,3.62,3.62,0,0,0-1.42.58,3.5,3.5,0,0,0-.94,1.08.93.93,0,0,1,.12-.39,2.56,2.56,0,0,1,.7-.85,3.53,3.53,0,0,1,1.5-.67,5.16,5.16,0,0,1,2,0,10.63,10.63,0,0,1,1.9.56,14.65,14.65,0,0,1,1.44.73A11.32,11.32,0,0,1,170.21,241.26Z" transform="translate(-97.97 -58.21)"/><path class="cls-15" d="M143.3,273.5a11.6,11.6,0,0,1-.18-4.53,13.6,13.6,0,0,1,1.71-4.6,22.24,22.24,0,0,1,3.82-4.69c1.56-1.5,3.16-2.82,4.59-4.05a47.28,47.28,0,0,0,3.66-3.45,21.83,21.83,0,0,0,2.11-2.66,5.26,5.26,0,0,0,.6-1.09,8.62,8.62,0,0,0-.75,1,24.92,24.92,0,0,1-2.21,2.53,49.25,49.25,0,0,1-3.7,3.35c-1.44,1.21-3,2.52-4.63,4a22.08,22.08,0,0,0-3.87,4.82,13.46,13.46,0,0,0-1.67,4.77,9.74,9.74,0,0,0,.11,3.4,7.83,7.83,0,0,0,.27.89C143.24,273.41,143.28,273.51,143.3,273.5Z" transform="translate(-97.97 -58.21)"/></g></svg>