<svg id="Layer_1" data-name="Layer 1" xmlns="http://www.w3.org/2000/svg" viewBox="0 0 396.7 354.43"><defs><style>.cls-1{opacity:0.3;}.cls-2{fill:#c84030;}.cls-3{fill:#ab281f;}.cls-4{fill:#8a1c14;}.cls-24,.cls-5{fill:#fa5c52;}.cls-6{fill:#a39c95;}.cls-7{fill:#e0dedc;}.cls-8{fill:#f4efe9;}.cls-9{fill:#f7e6bb;}.cls-10{fill:#c79d5c;}.cls-11{fill:#d9af6f;}.cls-12{fill:#efc58b;}.cls-13,.cls-22{fill:#fff;}.cls-14{fill:#e3bd5e;}.cls-15{fill:#cc934c;}.cls-16{fill:#fbe979;}.cls-17,.cls-21{fill:#ac8854;}.cls-18{fill:#995d43;}.cls-19{fill:#b88f5a;}.cls-20{fill:#a16739;}.cls-21,.cls-22,.cls-23,.cls-24{opacity:0.5;}.cls-23{fill:#f7edd4;}.cls-25{fill:#d8d1c7;}.cls-26{fill:#8ccccb;}.cls-27{fill:#389998;}.cls-28{fill:#3e6669;}.cls-29{fill:#418080;}.cls-30{fill:#d1d1d1;}.cls-31{fill:#a87c49;}.cls-32{fill:#403531;}.cls-33{fill:#685750;}.cls-34{fill:#836e69;}.cls-35{fill:#f2b63d;}.cls-36{fill:#544540;}.cls-37{fill:#dbb276;}.cls-38{fill:#9fb366;}.cls-39{fill:#a3763d;}.cls-40{fill:#e6e1dd;}.cls-41{fill:#0a0808;}.cls-42{fill:#362c29;}.cls-43{fill:#d6a950;}.cls-44,.cls-65{fill:#574943;}.cls-45{fill:#211a1a;}.cls-46{fill:#4290b8;}.cls-47{fill:#17435c;}.cls-48{fill:#24546e;}.cls-49{fill:#2b6582;}.cls-50{fill:#e8f3ff;}.cls-51{fill:#a1b4bf;}.cls-52{fill:#b4ced6;}.cls-53{fill:#c8dfe8;}.cls-54{fill:#785b56;}.cls-55{fill:#c26a5e;}.cls-56{fill:#fca48f;}.cls-57{fill:#d57a70;}.cls-58{fill:#a6495d;}.cls-59{fill:#853e2a;}.cls-60{fill:#d18067;}.cls-61{fill:#693121;}.cls-62{fill:#944e39;}.cls-63{fill:#b5afa7;}.cls-64{fill:#de822b;}.cls-65{opacity:0.4;}.cls-66{fill:#ab531f;}.cls-67{fill:#736656;}.cls-68{fill:#a39685;}</style></defs><title>ship</title><path class="cls-1" d="M213.36,381.32l21.28-6.12-.44-.6-19.15,3.53,5.9-11.08-1-.24-10.34,12.33-3.77.7-.94.23-.23-.31-15.44,2.14L182,380.14l-4.4,1.07-1.8,2.55,1.85,2.53,4.42,1,20.38-4.95.31-.3,4.35.66,1.21,2.54h0l-.52.18-8.34,11.82,1.85,2.54,4.41,1,4.4-1.07,1.8-2.55-3.13-4.11,3.53-8.94-.54-.13.39-.54Zm-28.07,4.27-3.21.78-3.23-.76-1.35-1.86,1.31-1.86,3.22-.78,3.23.76,1.35,1.85Zm23.62,9.8,1.35,1.86L209,399.11l-3.22.78-3.23-.76-1.35-1.85,1.31-1.87,3.22-.78Z" transform="translate(-30.58 -77.63)"/><polygon class="cls-2" points="147.09 308.36 145.25 305.82 145.25 304.38 147.59 306.84 147.09 308.36"/><polygon class="cls-3" points="152.42 307.47 147.09 306.92 147.09 308.36 151.51 309.4 152.42 307.47"/><polygon class="cls-3" points="174.27 302.13 171.89 304.45 170.88 303 174.27 300.69 174.27 302.13"/><polygon class="cls-4" points="171.89 304.45 151.51 309.4 151.51 307.95 164.54 304.17 171.89 303 171.89 304.45"/><polygon class="cls-4" points="151.45 303.17 148.23 303.95 147.91 302.19 151.71 301.26 151.45 303.17"/><polygon class="cls-3" points="148.23 303.95 146.92 305.82 146.42 304.38 148.23 302.51 148.23 303.95"/><polygon class="cls-2" points="155.71 305.35 154.68 303.93 154.55 302.1 156.41 304.24 155.71 305.35"/><polygon class="cls-3" points="154.68 303.93 151.45 303.17 151.45 301.62 154.68 302.11 154.68 303.93"/><path class="cls-5" d="M204.85,378.32l-.23-.31-15.44,2.14L182,378.39l-4.4,1.07-1.8,2.55,1.85,2.54,4.42,1,20.38-4.95Zm-22.77,6.3-3.23-.76L177.5,382l1.31-1.86,3.22-.78,3.23.76,1.35,1.85-1.32,1.87Z" transform="translate(-30.58 -77.63)"/><polygon class="cls-2" points="181.86 301.56 182.3 300.94 181.85 300.32 180.76 300.06 179.69 300.32 179.25 300.95 179.7 301.57 180.78 301.83 181.86 301.56"/><polygon class="cls-6" points="204.06 296.29 204.06 296.78 177.38 304.45 172.2 303.67 172.2 303.17 175.21 301.43 204.06 296.29"/><polygon class="cls-7" points="203.62 295.69 204.06 296.29 177.38 303.96 172.2 303.17 174.27 301.16 175.21 300.93 203.62 295.69"/><polygon class="cls-6" points="190.37 288.64 190.37 288.14 176.89 303.27 176.34 303.39 176.34 303.88 177.76 306.86 181.22 305.65 181.61 305.1 190.37 288.64"/><polygon class="cls-8" points="190.37 288.14 189.32 287.9 176.34 303.39 177.76 306.37 181.22 305.15 181.61 304.61 190.37 288.14"/><path class="cls-5" d="M212,378h-1.26l-.89.52v.73l.89.52H212l.9-.52v-.73Z" transform="translate(-30.58 -77.63)"/><polygon class="cls-4" points="182.3 301.78 181.41 302.3 181.11 302.25 181.41 302.13 182.3 301.62 182.3 301.78"/><polygon class="cls-2" points="180.14 302.3 179.25 301.78 179.25 301.62 180.14 302.13 180.65 302.25 180.14 302.3"/><rect class="cls-3" x="180.14" y="302.14" width="1.27" height="0.16"/><polygon class="cls-4" points="181.76 306.25 178.23 315.19 177.53 313.56 181.76 304.81 181.76 306.25"/><polygon class="cls-4" points="171.88 317.48 170.57 319.34 170.16 317.9 172.18 315.56 171.88 317.48"/><polygon class="cls-2" points="179.68 319.31 178.33 317.46 178.07 315.56 180.28 317.61 179.68 319.31"/><polygon class="cls-3" points="178.33 316.01 176.96 314.99 174.75 314.83 175.1 316.7 178.33 317.46 178.33 316.01"/><polygon class="cls-2" points="175.1 316.7 171.88 317.48 171.88 316.03 173.66 314.83 175.1 315.25 175.1 316.7"/><polygon class="cls-4" points="181.36 319.31 179.56 321.86 179.05 320.29 181.36 317.86 181.36 319.31"/><polygon class="cls-2" points="175.16 322.92 170.75 321.88 170.75 320.44 175.59 321.19 175.16 322.92"/><path class="cls-5" d="M207.82,383.71l-8.34,11.82,1.85,2.54,4.41,1,4.4-1.07,1.8-2.55-3.13-4.11,3.53-8.94-.54-.13Zm-5.36,10,3.22-.78,3.23.76,1.35,1.86L209,397.36l-3.22.79-3.23-.77-1.35-1.85Z" transform="translate(-30.58 -77.63)"/><polygon class="cls-3" points="179.56 321.86 175.16 322.92 175.16 321.48 179.56 320.41 179.56 321.86"/><polygon class="cls-2" points="170.75 321.88 168.9 319.35 168.9 317.9 170.75 320.44 170.75 321.88"/><polygon class="cls-1" points="117.8 147.72 33.18 196.65 108.04 239.88 192.66 190.96 117.8 147.72"/><path class="cls-9" d="M160.87,112.3l-12.58,47.88L220,201.72l12.59-47.9Z" transform="translate(-30.58 -77.63)"/><polygon class="cls-9" points="202.03 76.19 130.29 34.66 131.11 34.91 202.85 76.43 202.03 76.19"/><polygon class="cls-10" points="189.45 124.09 202.03 76.19 202.85 76.43 189.88 125.13 189.45 124.09"/><path class="cls-10" d="M67.15,207.24v67.6L149,227.41V159.83Z" transform="translate(-30.58 -77.63)"/><polygon class="cls-11" points="36.57 129.61 118.45 82.2 117.6 81.71 35.72 129.13 36.57 129.61"/><polygon class="cls-12" points="36.57 197.21 36.57 129.61 35.72 129.13 35.72 196.72 36.57 197.21"/><path class="cls-12" d="M148.18,160.31V227.9l70.58,40.76V201.07Z" transform="translate(-30.58 -77.63)"/><polygon class="cls-9" points="188.18 123.44 117.6 82.68 118.45 82.2 189.03 122.96 188.18 123.44"/><polygon class="cls-10" points="188.18 191.03 188.18 123.44 189.03 122.96 189.03 190.55 188.18 191.03"/><polygon class="cls-13" points="166.3 121.85 164.56 121.85 164.56 121.01 162.52 118.97 162.52 116.03 160.07 113.58 156.61 113.58 155.19 115 153.46 115 153.36 115.1 152.74 114.48 151.92 114.48 151.92 112.07 149.46 109.62 146 109.62 143.61 112 142.84 111.23 139.38 111.23 138.06 112.54 138.06 111.85 137.66 111.44 139.11 110 139.11 106.53 136.66 104.08 133.19 104.08 130.89 106.38 130.89 105.31 128.99 103.41 128.99 102.35 126.53 99.9 123.07 99.9 120.62 102.35 120.62 102.86 119.51 102.86 119.23 103.14 119.23 101.13 116.78 98.68 113.32 98.68 110.87 101.13 110.87 104.08 109.28 104.08 107.61 105.75 106.38 104.52 102.92 104.52 100.47 106.97 100.47 109.4 97.58 109.4 95.59 111.39 93.82 109.62 90.36 109.62 87.91 112.07 87.91 112.61 86.52 111.23 83.06 111.23 80.6 113.67 80.6 115.85 79.91 115.15 76.44 115.15 73.99 117.61 73.99 121.07 75.07 122.15 74.48 122.74 71.17 122.74 68.72 125.19 68.72 127.3 67.57 127.3 67.51 127.36 66.27 126.12 62.81 126.12 60.36 128.57 60.36 129.91 58.98 128.53 55.51 128.53 53.06 130.98 53.06 134.45 53.48 134.86 51.33 134.86 48.88 137.31 48.88 140.78 51.33 143.23 54.79 143.23 55.99 142.03 56.39 142.43 59.85 142.43 62.3 139.97 62.3 138.54 62.81 139.05 66.27 139.05 68.72 136.6 68.72 135.67 71.03 135.67 73.48 133.22 73.48 131.1 74.64 131.1 75.52 130.22 78.82 130.22 81.27 127.78 81.27 126.03 84.06 126.03 86.28 123.81 87.24 124.78 90.7 124.78 93.15 122.33 97.58 117.77 101.04 117.77 103.5 115.32 103.5 112.88 106.38 112.88 108.05 111.22 109.28 112.45 112.75 112.45 115.2 110 115.2 107.04 116.78 107.04 117.06 106.77 117.06 108.78 119.51 111.23 122.98 111.23 123.98 110.23 124.22 110.47 124.22 112.96 126.67 115.41 129.79 115.41 132.15 117.77 135.61 117.77 136.92 116.46 136.92 117.14 139.38 119.59 139.54 119.59 139.54 120.39 141.99 122.85 145.46 122.85 147.36 120.94 149.27 122.85 152.53 122.85 152.01 123.36 152.01 126.83 154.47 129.28 157.93 129.28 160.28 126.92 160.38 126.92 160.38 127.76 162.83 130.21 166.3 130.21 168.75 127.76 168.75 124.3 166.3 121.85"/><polygon class="cls-1" points="116.24 147.92 185.57 187.97 118.74 226.6 49.4 186.56 116.24 147.92"/><polygon class="cls-14" points="118.7 181.07 51.67 142.35 51.67 186.82 118.7 225.55 118.7 181.07"/><polygon class="cls-15" points="183.3 188.2 118.7 225.55 118.7 181.07 183.3 143.71 183.3 188.2"/><polygon class="cls-16" points="116.28 105 183.3 143.72 118.7 181.07 51.67 142.35 116.28 105"/><polygon class="cls-5" points="89.44 164.03 86.2 164.76 80.87 159.1 145.52 121.77 154.1 126.71 89.44 164.03"/><polygon class="cls-2" points="89.44 208.67 80.87 203.72 80.87 159.1 89.44 164.03 89.44 208.67"/><polygon class="cls-5" points="146.82 164.78 150.06 165.5 155.38 159.84 88.36 121.13 79.78 126.07 146.82 164.78"/><polygon class="cls-4" points="146.82 209.41 155.38 204.46 155.38 159.84 146.82 164.78 146.82 209.41"/><rect class="cls-1" x="87.57" y="139.69" width="59.83" height="7.16"/><path class="cls-2" d="M150.69,216h-5.25l-3.72,2.14v3l3.72,2.15h5.25l3.72-2.15v-3Z" transform="translate(-30.58 -77.63)"/><polygon class="cls-4" points="123.83 144.61 120.11 146.75 118.67 146.22 120.11 145.68 123.83 143.54 123.83 144.61"/><polygon class="cls-4" points="114.86 146.75 111.14 144.61 111.14 143.54 114.86 145.68 116.55 146.09 114.86 146.75"/><rect class="cls-3" x="114.86" y="145.68" width="5.25" height="1.07"/><polygon class="cls-5" points="96.57 137.33 96.57 144.49 117.49 145.16 117.49 138 96.57 137.33"/><polygon class="cls-2" points="87.57 126.43 87.57 133.59 96.57 144.49 96.57 137.33 87.57 126.43"/><polygon class="cls-5" points="87.57 126.43 87.57 133.59 101.68 134.06 101.68 126.91 87.57 126.43"/><polygon class="cls-4" points="101.68 126.91 101.68 134.06 117.49 145.16 117.49 138 101.68 126.91"/><polygon class="cls-2" points="101.68 124.96 100.66 126.43 101.68 132.12 117.49 145.16 117.49 138 101.68 124.96"/><polygon class="cls-4" points="97.39 112.96 97.39 120.12 101.68 132.12 101.68 124.96 97.39 112.96"/><polygon class="cls-2" points="97.39 112.96 97.39 120.12 109.9 125.52 110.96 124.16 109.9 118.36 97.39 112.96"/><polygon class="cls-4" points="109.9 118.36 109.9 125.52 117.49 145.16 117.49 138 109.9 118.36"/><polygon class="cls-5" points="138.4 137.33 138.4 144.49 117.49 145.16 117.49 138 138.4 137.33"/><polygon class="cls-3" points="147.4 126.43 144.74 132.12 147.4 133.59 138.4 144.49 138.4 137.33 147.4 126.43"/><polygon class="cls-5" points="147.4 126.43 147.4 133.59 133.29 134.06 133.29 126.91 147.4 126.43"/><polygon class="cls-4" points="133.29 126.91 133.29 134.06 117.49 145.16 117.49 138 133.29 126.91"/><polygon class="cls-5" points="133.29 124.96 134.31 126.43 133.29 132.12 117.49 145.16 117.49 138 133.29 124.96"/><polygon class="cls-2" points="137.58 112.96 137.58 120.12 133.29 132.12 133.29 124.96 137.58 112.96"/><polygon class="cls-5" points="137.58 112.96 137.58 120.12 125.07 125.52 124.01 124.16 125.07 118.36 137.58 112.96"/><polygon class="cls-4" points="125.07 118.36 125.07 125.52 117.49 145.16 117.49 138 125.07 118.36"/><polygon class="cls-4" points="110.44 116.06 111.91 117.75 110.44 123.22 117.49 145.16 117.49 138 110.44 116.06"/><polygon class="cls-5" points="117.45 105.77 119.37 111.11 117.45 112.92 110.44 123.22 110.44 116.06 117.45 105.77"/><polygon class="cls-5" points="124.43 115.66 123.59 120.12 124.43 122.82 117.49 145.16 117.49 138 124.43 115.66"/><polygon class="cls-2" points="117.45 105.77 117.45 112.92 124.43 122.82 124.43 115.66 117.45 105.77"/><path class="cls-17" d="M90.81,173.88,67.15,207.23,149,159.83l23.66-33.36Z" transform="translate(-30.58 -77.63)"/><polygon class="cls-9" points="60.23 96.25 142.12 48.84 141.56 48.15 59.68 95.56 60.23 96.25"/><polygon class="cls-12" points="36.57 129.6 60.23 96.25 59.68 95.56 35.72 129.12 36.57 129.6"/><path class="cls-12" d="M67.15,207.24v67.59l70.58,40.76V248Z" transform="translate(-30.58 -77.63)"/><polygon class="cls-9" points="107.15 170.37 36.57 129.61 37.42 129.13 108 169.88 107.15 170.37"/><polygon class="cls-12" points="107.15 237.96 107.15 170.37 108 169.88 108 237.48 107.15 237.96"/><path class="cls-10" d="M138.58,248.48v67.6l81.88-47.42V201.07Z" transform="translate(-30.58 -77.63)"/><path class="cls-18" d="M159.46,280l-15.75,9.1V307.3l15.75-9.1ZM144.4,306.09V289.51l14.36-8.28V297.8Z" transform="translate(-30.58 -77.63)"/><polygon class="cls-18" points="118.39 222.22 119.75 221.44 119.75 212.62 120.43 212.23 119.07 209.98 117.7 213.8 118.39 213.4 118.39 222.22"/><polygon class="cls-18" points="117.7 224.96 124.3 221.15 124.3 219.58 117.7 223.39 117.7 224.96"/><polygon class="cls-18" points="121.58 211.56 122.26 211.17 122.26 219.99 123.62 219.2 123.62 210.38 124.3 209.99 122.94 207.74 121.58 211.56"/><path class="cls-18" d="M178.51,269l-15.75,9.09V296.3l15.74-9.1Zm-15,26.07V278.52l14.35-8.29V286.8Z" transform="translate(-30.58 -77.63)"/><polygon class="cls-18" points="135.4 208.04 136.55 208.71 137.09 208.4 137.09 213.19 136.55 213.5 135.4 214.6 135.4 214.68 139.32 212.42 139.32 212.34 138.17 212.57 137.63 212.88 137.63 208.08 138.17 207.77 139.32 205.78 139.32 199.48 135.4 201.75 135.4 208.04"/><path class="cls-18" d="M171.38,282.55l1.14.66.55-.31v4.8l-.55.31-1.14,1.1v.08l3.91-2.27v-.08l-1.14.24-.55.31v-4.8l.55-.31,1.14-2V274l-3.91,2.26Zm.35-6.09L175,274.6v5.6L173.89,282l-1.37.79-.79-.46Z" transform="translate(-30.58 -77.63)"/><polygon class="cls-17" points="108 170.85 189.88 123.44 189.03 122.96 107.15 170.37 108 170.85"/><polygon class="cls-12" points="108 238.44 108 170.85 107.15 170.37 107.15 237.96 108 238.44"/><path class="cls-11" d="M126,200.59l12.58,47.9,81.88-47.42-12.58-47.89Z" transform="translate(-30.58 -77.63)"/><polygon class="cls-9" points="95.42 122.96 177.3 75.55 176.48 75.79 94.6 123.2 95.42 122.96"/><polygon class="cls-12" points="108 170.86 95.42 122.96 94.6 123.2 107.16 170.37 108 170.86"/><path class="cls-9" d="M66.3,206.76,30.58,245.85l72.28,41.74,35.72-39.11Z" transform="translate(-30.58 -77.63)"/><polygon class="cls-10" points="72.28 209.96 108 170.85 108 171.98 72.91 210.37 72.28 209.96"/><polygon class="cls-1" points="228.71 191.48 317.44 242.74 231.9 292.18 143.17 240.93 228.71 191.48"/><polygon class="cls-12" points="231.85 219.6 146.07 170.06 146.07 241.27 231.85 290.83 231.85 219.6"/><polygon class="cls-10" points="314.54 243.03 231.85 290.83 231.85 219.6 314.54 171.79 314.54 243.03"/><path class="cls-18" d="M284.18,328.75l-15.75,9.09V356l15.74-9.1Zm-15.05,26.07V338.25L283.48,330v16.57Z" transform="translate(-30.58 -77.63)"/><polygon class="cls-18" points="243.12 270.95 244.47 270.17 244.47 261.36 245.16 260.96 243.79 258.71 242.43 262.53 243.12 262.13 243.12 270.95"/><polygon class="cls-18" points="242.43 273.69 249.03 269.88 249.03 268.31 242.43 272.12 242.43 273.69"/><polygon class="cls-18" points="246.31 260.29 246.99 259.9 246.99 268.72 248.35 267.93 248.35 259.12 249.03 258.72 247.66 256.47 246.31 260.29"/><path class="cls-18" d="M303.24,317.75l-15.75,9.09V345l15.75-9.1Zm-15.05,26.07V327.25L302.54,319v16.57Z" transform="translate(-30.58 -77.63)"/><polygon class="cls-18" points="260.13 256.77 261.27 257.44 261.82 257.13 261.82 261.92 261.27 262.24 260.13 263.33 260.13 263.41 264.05 261.15 264.05 261.07 262.9 261.3 262.35 261.62 262.35 256.81 262.9 256.5 264.05 254.51 264.05 248.21 260.13 250.48 260.13 256.77"/><path class="cls-18" d="M296.1,331.28l1.15.66.54-.3v4.79l-.54.32-1.15,1.09v.08l3.92-2.26v-.09l-1.14.24-.55.31v-4.8l.55-.31,1.14-2v-6.3L296.1,325Zm.35-6.09,3.22-1.86v5.6l-1.05,1.82-1.37.79-.8-.46Z" transform="translate(-30.58 -77.63)"/><polygon class="cls-9" points="228.77 122.25 314.54 171.81 231.85 219.6 146.07 170.06 228.77 122.25"/><polygon class="cls-19" points="194.41 197.8 190.27 198.74 183.44 191.48 266.18 143.71 277.17 150.04 194.41 197.8"/><polygon class="cls-20" points="194.41 213.99 183.44 207.66 183.44 191.48 194.41 197.8 194.41 213.99"/><polygon class="cls-19" points="277.17 150.04 343.29 111.86 332.23 105.47 266.11 143.65 262.25 151.28 277.17 150.04"/><polygon class="cls-21" points="342.3 110.73 342.3 110.4 322.52 125.32 322.52 125.65 342.3 110.73"/><polygon class="cls-22" points="322.52 125.32 308.43 117.19 308.43 117.52 322.52 125.65 322.52 125.32"/><polygon class="cls-23" points="342.3 110.4 328.21 102.27 308.43 117.19 322.52 125.32 342.3 110.4"/><polygon class="cls-24" points="317.92 110.03 322.59 106.51 336.68 114.64 332.01 118.17 317.92 110.03"/><polygon class="cls-25" points="323.66 70.9 321.86 69.86 321.86 100.01 323.66 101.05 327.2 77.84 323.66 70.9"/><polygon class="cls-25" points="327.17 64.83 325.36 63.79 321.86 69.86 323.66 70.9 326.73 70.82 327.17 64.83"/><polygon class="cls-8" points="342.44 56.01 340.64 54.97 325.36 63.79 327.17 64.83 333.59 62.95 342.44 56.01"/><polygon class="cls-6" points="345.94 88.19 342.44 94.26 327.17 103.08 323.66 101.05 323.66 70.9 327.17 64.83 342.44 56.01 345.94 58.04 345.94 88.19"/><polygon class="cls-26" points="364.97 81.25 362.83 74.48 356.59 70.88 356.59 86.25 362.83 89.85 364.97 81.25"/><polygon class="cls-26" points="379.13 67.41 372.89 63.81 358.39 71.39 364.63 74.99 374.95 72.92 379.13 67.41"/><polygon class="cls-27" points="380.05 65.82 373.8 62.22 372.89 63.81 379.13 67.42 380.49 67.03 380.05 65.82"/><polygon class="cls-26" points="396.7 57.9 390.46 54.3 373.8 62.22 380.05 65.82 392.44 60.96 396.7 57.9"/><polygon class="cls-27" points="364.06 74 357.82 70.39 356.59 70.88 362.83 74.48 363.64 74.94 364.06 74"/><polygon class="cls-28" points="362.83 89.85 362.83 74.48 364.06 74 364.63 74.99 379.13 67.41 380.05 65.82 396.7 57.9 396.7 70.08 390.57 74.72 366.73 86.5 362.83 89.85"/><polygon class="cls-1" points="363.6 71.65 367.47 73.88 367.47 86.21 366.73 86.5 362.83 89.85 362.83 74.48 364.06 74 363.6 71.65"/><polygon class="cls-29" points="358.99 68.47 345.91 60.91 345.91 87.53 358.99 95.09 360.98 81.87 358.99 68.47"/><polygon class="cls-27" points="360.88 65.19 347.8 57.63 345.91 60.91 358.99 68.47 360.37 68.56 360.88 65.19"/><polygon class="cls-26" points="363.56 63.65 350.48 56.09 347.8 57.63 360.88 65.19 362.26 65.28 363.56 63.65"/><polygon class="cls-28" points="360.88 96.18 358.99 95.09 358.99 68.47 360.88 65.19 363.56 63.65 365.44 64.74 365.44 91.36 363.56 94.64 360.88 96.18"/><polygon class="cls-26" points="361.1 93.5 363.36 92.2 364.95 89.44 364.95 66.97 364.4 66.65 362.58 86.06 360.55 93.19 361.1 93.5"/><polygon class="cls-30" points="360.55 93.19 362.8 91.88 364.4 89.12 364.4 66.65 363.36 66.05 361.1 67.35 359.5 70.11 359.5 92.58 360.55 93.19"/><polygon class="cls-31" points="358.41 93.84 355.2 78.78 344.14 72.4 347.35 87.46 358.41 93.84"/><path class="cls-32" d="M379.38,188.11l5.63-3.24,4-6.9v-6.49l-4-2.3-3.43,1-2.2,2.23-4,6.89v6.5l4,2.29Z" transform="translate(-30.58 -77.63)"/><rect class="cls-33" x="366.87" y="164.54" width="7.96" height="15.11" transform="translate(5.75 329.49) rotate(-59.98)"/><polygon class="cls-34" points="344.82 108.18 344.82 101.69 331.75 94.13 331.75 100.62 344.82 108.18"/><polygon class="cls-34" points="348.8 94.79 354.43 91.55 341.35 83.98 335.72 87.23 348.8 94.79"/><polygon class="cls-26" points="343.71 98.89 329.62 90.76 327.8 91.81 341.89 99.94 343.71 98.89"/><rect class="cls-27" x="360.64" y="168.14" width="6.39" height="16.27" transform="translate(-1.28 325.65) rotate(-60.01)"/><polygon class="cls-26" points="338.7 105.47 324.61 97.34 324.61 102.55 338.7 110.69 338.7 105.47"/><polygon class="cls-28" points="343.71 111.48 341.89 112.53 338.7 110.69 338.7 105.47 341.89 99.94 343.71 98.89 343.71 111.48"/><polygon class="cls-15" points="338.72 103.83 336.99 104.26 337.48 112.78 338.72 112.06 338.72 103.83"/><polygon class="cls-16" points="338.72 103.83 324.63 95.7 323.39 96.42 331.32 102.82 337.48 104.55 338.72 103.83"/><polygon class="cls-14" points="337.48 104.55 323.39 96.42 323.39 104.64 337.48 112.78 337.48 104.55"/><polygon class="cls-26" points="354.61 93.71 353.44 93.04 340.74 100.37 341.9 101.04 354.61 93.71"/><rect class="cls-27" x="366.64" y="180.71" width="7.01" height="1.34" transform="translate(-2.45 333.82) rotate(-60.03)"/><polygon class="cls-29" points="338.39 107.12 337.23 106.45 337.23 112.17 338.39 112.84 338.39 107.12"/><polygon class="cls-28" points="358.11 101.46 354.61 107.53 341.9 114.86 338.39 112.84 338.39 107.12 341.9 101.04 354.61 93.71 358.11 95.73 358.11 101.46"/><polygon class="cls-26" points="353.07 104.54 355.5 103.14 357.04 100.47 357.04 97.95 356.74 97.78 354.31 101.5 352.77 104.36 353.07 104.54"/><polygon class="cls-30" points="352.77 104.36 355.19 102.96 356.74 100.3 356.74 97.78 355.5 97.06 353.07 98.47 351.53 101.13 351.53 103.65 352.77 104.36"/><polygon class="cls-26" points="341.09 111.46 343.52 110.06 345.06 107.39 345.06 104.87 344.76 104.69 342.92 108.08 340.79 111.28 341.09 111.46"/><polygon class="cls-30" points="340.79 111.28 343.21 109.88 344.76 107.21 344.76 104.69 343.52 103.98 341.09 105.39 339.55 108.05 339.55 110.57 340.79 111.28"/><polygon class="cls-8" points="334.4 80.69 338.89 72.92 349.95 79.3 347.82 83.49 345.46 87.08 334.4 80.69"/><polygon class="cls-30" points="328.05 84.36 334.4 80.69 345.46 87.08 339.05 91.21 328.05 84.36"/><polygon class="cls-13" points="338.89 65.59 338.89 72.92 349.95 79.3 350.24 71.67 338.89 65.59"/><polygon class="cls-27" points="338.38 82.33 331.45 78.33 328.2 84.01 335.13 88 337.29 87.01 338.38 82.33"/><polygon class="cls-27" points="339.01 73.67 332.09 69.67 328.18 76.44 335.11 80.44 337.27 79.45 339.01 73.67"/><polygon class="cls-27" points="345.55 69.89 338.63 65.9 335.36 71.56 342.28 75.56 345.35 73.65 345.55 69.89"/><polygon class="cls-28" points="339.01 90.25 335.11 87.99 338.38 82.33 335.11 80.44 339.01 73.67 342.28 75.56 345.55 69.89 349.46 72.15 346.19 77.81 349.46 79.7 345.55 86.47 342.28 84.59 339.01 90.25"/><polygon class="cls-16" points="344.55 75.98 343.66 75.47 340.92 77.05 341.83 78.69 344.55 75.98"/><polygon class="cls-14" points="341.81 77.56 340.92 77.05 338.98 80.39 339.87 84.07 341.81 77.56"/><polygon class="cls-35" points="339.88 80.91 338.98 80.39 338.98 83.55 339.87 84.07 339.88 80.91"/><polygon class="cls-15" points="341.81 85.19 339.87 84.07 339.88 80.91 341.81 77.56 344.55 75.98 346.47 77.1 346.48 80.26 344.55 83.61 341.81 85.19"/><polygon class="cls-34" points="344.56 79.56 343.65 79.03 342.72 79.56 343.64 80.47 344.56 79.56"/><polygon class="cls-33" points="343.63 80.09 342.72 79.56 342.06 80.69 342.98 82.3 343.63 80.09"/><polygon class="cls-36" points="342.98 81.22 342.06 80.69 342.06 81.77 342.98 82.3 342.98 81.22"/><polygon class="cls-32" points="343.63 82.68 342.98 82.3 342.98 81.22 343.63 80.09 344.56 79.56 345.22 79.93 345.22 81.01 344.56 82.14 343.63 82.68"/><path class="cls-11" d="M369.42,150.08l6.89-4,4.87,2.81v8l-4.87,8.45-6.89,4-4.88-2.81v-8ZM376,147l-6.35,3.67-4.49,7.78v7.33l4.49,2.59,6.35-3.67,4.49-7.77v-7.33Z" transform="translate(-30.58 -77.63)"/><path class="cls-20" d="M369.42,169.29l-4.88-2.81v-8l4.88-8.44,6.89-4,4.87,2.81v8l-4.87,8.45-6.89,4Zm-1.91,6.41,10.71-6.18,7.56-13.1V144.06l-7.57-4.37-6.53,1.94-4.18,4.24L360,159v12.35l7.56,4.37Z" transform="translate(-30.58 -77.63)"/><rect class="cls-19" x="350.63" y="142.84" width="15.14" height="12.77" transform="translate(19.28 307.19) rotate(-60)"/><polygon class="cls-31" points="329.37 93.7 329.37 81.35 318.31 74.96 318.31 87.32 329.37 93.7"/><polygon class="cls-37" points="336.94 68.24 347.64 62.06 336.58 55.67 325.87 61.85 336.94 68.24"/><polygon class="cls-1" points="334.52 243.22 360.39 258.15 371.47 251.75 345.6 236.83 334.52 243.22"/><polygon class="cls-8" points="350.86 228.6 355.36 236.39 344.28 242.78 341.72 238.84 339.79 235 350.86 228.6"/><polygon class="cls-30" points="350.86 221.26 350.86 228.6 339.79 235 339.42 227.37 350.86 221.26"/><polygon class="cls-13" points="361.71 240.06 355.36 236.39 344.28 242.78 350.76 246.85 361.71 240.06"/><path class="cls-9" d="M386.37,314.21v8L381.49,325l-6.9-4-4.88-8.45v-8l4.88-2.81,6.9,4Zm-.66,7.28v-7.34l-4.49-7.79-6.36-3.67-4.49,2.6v7.34l4.49,7.78,6.36,3.67Z" transform="translate(-30.58 -77.63)"/><path class="cls-19" d="M369.71,304.59l4.88-2.81,6.9,4,4.88,8.45v8L381.49,325l-6.9-4-4.88-8.45v-8Zm-4.61-4.86v12.38l7.58,13.12,10.72,6.19L391,327l1.59-6.63L391,314.67l-7.57-13.12-10.72-6.19-7.58,4.37Z" transform="translate(-30.58 -77.63)"/><rect class="cls-31" x="386.33" y="297.33" width="12.79" height="15.15" transform="translate(-130.43 159.67) rotate(-30.01)"/><polygon class="cls-37" points="342.1 217.73 352.82 223.91 363.89 217.52 353.18 211.34 342.1 217.73"/><polygon class="cls-20" points="360.39 237.03 360.39 241.04 362.38 243.2 360.39 245.41 360.39 249.41 371.47 243.01 371.47 239.01 369.32 236.49 371.47 234.65 371.47 230.64 360.39 237.03"/><polygon class="cls-13" points="360.39 241.04 360.39 245.41 371.47 239.01 371.47 234.65 360.39 241.04"/><polygon class="cls-38" points="361.22 243.66 361.22 244.36 361.8 244.03 361.8 243.33 362.09 243.16 361.51 242.58 360.93 243.83 361.22 243.66"/><polygon class="cls-38" points="362.92 240.88 362.34 240.3 361.76 241.55 362.05 241.38 362.05 242.08 362.63 241.74 362.63 241.05 362.92 240.88"/><polygon class="cls-38" points="364.24 240.12 364.24 240.81 364.82 240.48 364.82 239.79 365.11 239.62 364.53 239.03 363.95 240.29 364.24 240.12"/><polygon class="cls-38" points="366.43 238.85 366.43 239.55 367.01 239.21 367.01 238.52 367.3 238.35 366.72 237.76 366.14 239.02 366.43 238.85"/><polygon class="cls-38" points="368.63 237.59 368.63 238.28 369.2 237.95 369.2 237.25 369.5 237.09 368.92 236.5 368.34 237.75 368.63 237.59"/><polygon class="cls-38" points="363.42 242.4 363.42 243.09 363.99 242.76 363.99 242.07 364.29 241.9 363.7 241.31 363.12 242.57 363.42 242.4"/><polygon class="cls-38" points="365.61 241.13 365.61 241.83 366.19 241.49 366.19 240.8 366.48 240.63 365.9 240.04 365.32 241.3 365.61 241.13"/><polygon class="cls-38" points="367.8 239.87 367.8 240.56 368.38 240.23 368.38 239.53 368.67 239.37 368.09 238.78 367.51 240.04 367.8 239.87"/><polygon class="cls-38" points="369.99 238.6 369.99 239.29 370.57 238.96 370.57 238.27 370.86 238.1 370.28 237.51 369.7 238.77 369.99 238.6"/><path class="cls-1" d="M351.55,346.53h-.06l-10.9-6.29v-9l10.9-6.3h15.28l10.9,6.3v9l-10.9,6.29Z" transform="translate(-30.58 -77.63)"/><polygon class="cls-8" points="333.05 251.82 324.06 251.82 324.06 239.04 328.75 238.79 333.05 239.04 333.05 251.82"/><polygon class="cls-13" points="339.4 255.49 333.05 251.82 333.05 239.04 339.83 242.53 339.4 255.49"/><polygon class="cls-7" points="317.7 255.49 324.06 251.82 324.06 239.04 317.29 242.6 317.7 255.49"/><path class="cls-9" d="M354.25,329.73l-6.9-4v-5.63l6.9-4H364l6.9,4v5.63l-6.9,4Zm-6-4.2,6.36,3.67h9l6.35-3.67v-5.19l-6.35-3.67h-9l-6.36,3.67Z" transform="translate(-30.58 -77.63)"/><path class="cls-37" d="M370.91,320.12v5.63l-6.9,4h-9.76l-6.9-4v-5.63l6.9-4H364l6.9,4Zm6.51-1.56-10.71-6.18H351.55l-10.71,6.18v8.75l5,4.69,5.76,1.49h15.16l10.71-6.18v-8.75Z" transform="translate(-30.58 -77.63)"/><rect class="cls-31" x="320.98" y="255.86" width="15.15" height="12.78"/><polygon class="cls-20" points="346.84 249.67 336.13 255.86 336.13 268.64 346.84 262.46 346.84 249.67"/><polygon class="cls-19" points="320.98 255.86 317.51 253.86 314.64 254.49 313.73 251.68 310.26 249.67 310.26 262.46 313.73 264.46 316.99 263.86 317.51 266.65 320.98 268.64 320.98 255.86"/><polygon class="cls-13" points="317.51 253.86 313.73 251.68 313.73 264.46 317.51 266.65 317.51 253.86"/><polygon class="cls-38" points="314.82 253.26 314.22 252.92 314.22 253.59 314.82 253.93 314.82 254.27 315.62 254.06 314.82 252.93 314.82 253.26"/><polygon class="cls-38" points="316.38 256.13 317.18 255.92 316.38 254.78 316.38 255.12 315.78 254.77 315.78 255.44 316.38 255.79 316.38 256.13"/><polygon class="cls-38" points="316.38 257.65 315.78 257.31 315.78 257.97 316.38 258.32 316.38 258.66 317.18 258.45 316.38 257.31 316.38 257.65"/><polygon class="cls-38" points="316.38 260.18 315.78 259.84 315.78 260.5 316.38 260.85 316.38 261.19 317.18 260.98 316.38 259.85 316.38 260.18"/><polygon class="cls-38" points="316.38 262.71 315.78 262.37 315.78 263.04 316.38 263.38 316.38 263.72 317.18 263.51 316.38 262.38 316.38 262.71"/><polygon class="cls-38" points="314.82 255.8 314.22 255.45 314.22 256.12 314.82 256.46 314.82 256.8 315.62 256.59 314.82 255.46 314.82 255.8"/><polygon class="cls-38" points="314.82 258.33 314.22 257.98 314.22 258.65 314.82 259 314.82 259.33 315.62 259.12 314.82 257.99 314.82 258.33"/><polygon class="cls-38" points="314.82 260.86 314.22 260.51 314.22 261.18 314.82 261.53 314.82 261.86 315.62 261.65 314.82 260.52 314.82 260.86"/><polygon class="cls-38" points="314.82 263.39 314.22 263.04 314.22 263.71 314.82 264.06 314.82 264.39 315.62 264.18 314.82 263.05 314.82 263.39"/><polygon class="cls-1" points="277.29 176.9 270.28 176.34 267.89 177.72 265.28 177.72 229.98 198.1 229.98 200.34 232.72 201.91 236.58 201.91 271.88 181.53 271.88 180.03 277.29 176.9"/><polygon class="cls-16" points="271.25 178.28 269.33 176.57 270.42 175.95 271.56 176.61 271.51 177.01 271.25 178.28"/><polygon class="cls-39" points="270.11 179.25 270.82 180.55 271.56 176.98 271.56 176.61 271.29 177.9 270.11 179.25"/><polygon class="cls-6" points="277.29 174.09 267.89 179.52 263.91 177.18 277.29 173.99 277.29 174.09"/><polygon class="cls-40" points="277.29 173.99 267.89 179.41 263.91 177.11 270.28 173.43 277.29 173.99"/><polygon class="cls-39" points="271.29 177.9 271.29 177.41 271.56 176.12 271.56 175.59 269.06 177.36 270.11 179.25 271.05 178.58 271.29 177.9"/><polygon class="cls-15" points="270.53 174.99 264.36 175.42 270.82 179.15 271.56 175.59 270.53 174.99"/><polygon class="cls-14" points="270.53 174.99 265.6 175.09 268.19 177.3 269.58 177.39 271.56 175.59 270.53 174.99"/><polygon class="cls-39" points="236.33 200.71 269.58 181.5 270.82 180.55 265.6 179.2 232.34 198.4 236.33 200.71"/><polygon class="cls-41" points="237.57 199.75 236.33 200.71 233.58 200.62 235.97 199.68 237.57 199.75"/><polygon class="cls-42" points="233.58 200.62 229.59 198.31 229.59 196.92 235.19 198.5 233.58 200.62"/><polygon class="cls-15" points="270.82 180.55 237.57 199.75 237.57 198.35 257.12 185.84 270.82 179.15 270.82 180.55"/><polygon class="cls-14" points="231.1 194.62 264.36 175.42 265.6 175.09 263.85 176.59 234.26 193.62 232.34 194.76 231.1 194.62"/><polygon class="cls-43" points="236.33 197.63 236.33 196.59 241.85 192.87 262.88 180.72 269.58 177.39 270.82 179.15 237.57 198.35 236.33 197.63"/><polygon class="cls-16" points="236.33 196.59 269.58 177.39 265.6 175.09 232.34 194.29 236.33 196.59"/><polygon class="cls-40" points="265.39 178.8 245.74 190.15 244.03 189.11 263.64 177.23 265.39 178.8"/><polygon class="cls-15" points="245.74 190.15 245.26 190.42 243.55 189.38 235.13 194.25 234.65 193.97 243.55 188.82 245.74 190.15"/><polygon class="cls-39" points="245.26 190.42 236.88 195.26 235.13 194.25 243.55 189.38 245.26 190.42"/><polygon class="cls-14" points="263.64 177.23 265.88 178.52 265.39 178.8 263.64 177.79 263.32 177.79 263.64 177.23"/><polygon class="cls-15" points="263.64 177.79 244.03 189.11 243.55 188.82 263.64 177.23 263.64 177.79"/><polygon class="cls-41" points="243.48 192.11 252.11 187.12 252.11 185.72 249.16 187.08 240.28 189.44 243.48 192.11"/><polygon class="cls-42" points="243.48 192.11 243.48 191.28 242.02 189.53 240.28 189.44 240.28 190.26 243.48 192.11"/><polygon class="cls-44" points="245.86 186.22 240.28 189.44 243.48 191.28 249.06 188.06 245.86 186.22"/><polygon class="cls-42" points="249.06 188.06 252.11 185.72 248.92 183.88 245.86 186.22 249.06 188.06"/><polygon class="cls-42" points="229.59 196.92 230.25 195.11 231.1 194.62 232.34 194.28 231.4 196.2 229.59 196.92"/><polygon class="cls-41" points="236.48 198.47 233.58 199.22 233.58 200.62 236.71 200.24 237.57 199.75 237.57 198.35 236.48 198.47"/><polygon class="cls-45" points="236.33 196.59 237.57 198.35 236.71 198.84 233.58 199.22 234.23 197.33 236.33 196.59"/><polygon class="cls-44" points="232.34 194.28 236.33 196.59 233.58 199.22 229.59 196.92 232.34 194.28"/><path class="cls-1" d="M191.79,353.77l-3-1.75v-2.59l3-1.74H196l3,1.74V352l-3,1.75Zm-2.64-2,2.74,1.58h4l2.75-1.58v-2.13l-2.75-1.58h-4l-2.74,1.58Z" transform="translate(-30.58 -77.63)"/><path class="cls-46" d="M198.8,346.43l-2.88-1.67h-4.08L189,346.43v2.36l1.34,1.26,1.55.4h4.08l2.88-1.66v-2.36Z" transform="translate(-30.58 -77.63)"/><polygon class="cls-47" points="168.22 271.16 165.34 272.82 164.45 274.6 165.34 275.94 168.22 274.27 168.22 271.16"/><polygon class="cls-48" points="165.34 272.82 161.26 272.82 160.27 273.94 161.26 275.94 165.34 275.94 165.34 272.82"/><polygon class="cls-49" points="161.26 272.82 158.37 271.16 158.37 274.27 161.26 275.94 161.26 272.82"/><path class="cls-44" d="M198.8,328.11l-2.88-1.66h-4.08L189,328.11v2.36l1.34,1.26,1.55.4h4.08l2.88-1.66v-2.36Z" transform="translate(-30.58 -77.63)"/><polygon class="cls-30" points="168.22 252.84 165.34 254.5 164.45 257.21 165.34 272.82 168.22 271.16 168.22 252.84"/><polygon class="cls-8" points="165.34 254.5 161.26 254.5 160.27 256.93 161.26 272.82 165.34 272.82 165.34 254.5"/><polygon class="cls-13" points="161.26 254.5 158.37 252.84 158.37 271.16 161.26 272.82 161.26 254.5"/><polygon class="cls-5" points="158.8 255.8 160.83 256.97 160.83 269.86 158.8 268.68 158.8 255.8"/><path class="cls-46" d="M198.8,321.6l-2.88-1.67h-4.08L189,321.59V324l1.34,1.26,1.55.41h4.08L198.8,324V321.6Z" transform="translate(-30.58 -77.63)"/><polygon class="cls-47" points="168.22 246.32 165.34 247.99 164.45 250.7 165.34 254.5 168.22 252.84 168.22 246.32"/><polygon class="cls-48" points="165.34 247.99 161.26 247.99 160.27 250.41 161.26 254.5 165.34 254.5 165.34 247.99"/><polygon class="cls-49" points="161.26 247.99 158.37 246.32 158.37 252.84 161.26 254.5 161.26 247.99"/><path class="cls-1" d="M202.81,358.41l-3-1.76v-2.58l3-1.75H207l3,1.75v2.58l-3,1.76Zm-2.63-2,2.74,1.59h4l2.74-1.59V354.3l-2.74-1.58h-4l-2.74,1.58Z" transform="translate(-30.58 -77.63)"/><path class="cls-46" d="M209.83,351.06l-2.89-1.66h-4.08L200,351.06v2.36l1.33,1.26,1.55.4h4.08l2.89-1.66v-2.36Z" transform="translate(-30.58 -77.63)"/><polygon class="cls-47" points="179.25 275.79 176.36 277.45 175.48 279.23 176.36 280.57 179.25 278.9 179.25 275.79"/><polygon class="cls-48" points="176.36 277.45 172.28 277.45 171.3 278.57 172.28 280.57 176.36 280.57 176.36 277.45"/><polygon class="cls-49" points="172.28 277.45 169.4 275.79 169.4 278.9 172.28 280.57 172.28 277.45"/><path class="cls-13" d="M209.83,332.74l-2.89-1.66h-4.08L200,332.74v2.36l1.33,1.26,1.55.4h4.08l2.89-1.66v-2.36Z" transform="translate(-30.58 -77.63)"/><polygon class="cls-30" points="179.25 257.46 176.36 259.13 175.48 261.84 176.36 277.45 179.25 275.79 179.25 257.46"/><polygon class="cls-7" points="176.36 259.13 172.28 259.13 171.3 261.56 172.28 277.45 176.36 277.45 176.36 259.13"/><polygon class="cls-8" points="172.28 259.13 169.4 257.46 169.4 275.79 172.28 277.45 172.28 259.13"/><polygon class="cls-5" points="169.83 260.43 171.86 261.6 171.86 274.49 169.83 273.31 169.83 260.43"/><path class="cls-13" d="M209.3,330.47,206.73,329h-3.65l-2.58,1.49v2.1l1.19,1.13,1.39.36h3.65l2.57-1.48v-2.11Z" transform="translate(-30.58 -77.63)"/><polygon class="cls-30" points="178.72 254.94 176.15 256.43 175.35 257.22 176.15 258.66 178.72 257.17 178.72 254.94"/><polygon class="cls-7" points="176.15 256.43 172.5 256.43 171.62 256.96 172.5 258.66 176.15 258.66 176.15 256.43"/><polygon class="cls-8" points="172.5 256.43 169.92 254.94 169.92 257.17 172.5 258.66 172.5 256.43"/><path class="cls-50" d="M209,325.58l-2.42-1.4h-3.43l-2.43,1.4v2l1.12,1.06,1.31.34h3.43l2.42-1.4v-2Z" transform="translate(-30.58 -77.63)"/><path class="cls-13" d="M205.3,326.41h-.79l-.56.32v.07l.56.33h.79l.56-.33v-.07Z" transform="translate(-30.58 -77.63)"/><polygon class="cls-51" points="175.28 248.71 175.28 249.1 174.72 248.78 173.93 248.78 173.37 249.1 173.37 248.71 173.93 248.39 174.72 248.39 175.28 248.71"/><polygon class="cls-51" points="178.46 249.93 176.04 251.33 175.29 252.07 176.04 256.15 178.46 254.75 178.46 249.93"/><polygon class="cls-52" points="176.04 251.33 172.61 251.33 171.78 251.83 172.61 256.15 176.04 256.15 176.04 251.33"/><polygon class="cls-53" points="172.61 251.33 170.18 249.93 170.18 254.75 172.61 256.15 172.61 251.33"/><path class="cls-1" d="M194.44,363.92l-3-1.75v-2.58l3-1.75h4.18l3,1.75v2.58l-3,1.75Zm-2.63-2,2.73,1.59h4l2.74-1.58v-2.12l-2.74-1.58h-4l-2.73,1.58Z" transform="translate(-30.58 -77.63)"/><path class="cls-46" d="M201.46,353.17l-2.89-1.67h-4.08l-2.88,1.67v2.36l1.33,1.26,1.55.4h4.08l2.89-1.66v-2.36Z" transform="translate(-30.58 -77.63)"/><polygon class="cls-47" points="170.88 277.89 167.99 279.56 167.1 282.27 167.99 286.08 170.88 284.41 170.88 277.89"/><polygon class="cls-48" points="167.99 279.56 163.91 279.56 162.93 281.98 163.91 286.08 167.99 286.08 167.99 279.56"/><polygon class="cls-49" points="163.91 279.56 161.03 277.89 161.03 284.41 163.91 286.08 163.91 279.56"/><polygon class="cls-1" points="114.42 315.96 67.03 343.29 66.43 343.64 66.47 343.73 65.39 344.35 64.83 344.68 65.12 345.29 66.08 345.85 67.15 346.01 67.7 345.69 68.79 345.07 68.94 345.09 69.55 344.74 116.94 317.41 120.36 314 114.42 315.96"/><polygon class="cls-34" points="119.01 313.41 118.75 313.12 120.36 312.69 119.01 313.41"/><polygon class="cls-32" points="119.18 313.87 119.05 313.5 120.36 312.69 119.18 313.87"/><polygon class="cls-33" points="119.18 313.57 119.03 313.57 119.01 313.26 120.36 312.69 119.18 313.57"/><polygon class="cls-12" points="116.42 316.62 115 315.55 114.97 314.11 116.48 313.86 119.01 313.26 119.18 313.57 117.28 315.27 116.42 316.62"/><polygon class="cls-10" points="116.42 316.62 116.42 315.64 119.18 313.57 119.18 313.87 116.42 316.62"/><polygon class="cls-9" points="115.82 314.6 114.97 314.11 118.75 313.12 119.01 313.26 115.82 314.6"/><polygon class="cls-54" points="72.61 340.93 72.01 339.89 71.16 339.4 70.56 339.75 70.56 340.73 71.16 341.77 72.01 342.26 72.61 341.92 72.61 340.93"/><polygon class="cls-26" points="72.01 339.89 71.16 339.4 114.97 314.11 115.82 314.6 72.12 339.9 72.01 339.89"/><polygon class="cls-27" points="72.61 340.93 72.01 339.89 115.82 314.6 116.42 315.64 72.72 340.98 72.61 340.93"/><polygon class="cls-28" points="72.61 341.92 72.61 340.93 116.42 315.64 116.42 316.62 72.61 341.92"/><polygon class="cls-25" points="69.05 342.99 68.45 341.95 67.6 341.46 67 341.8 67 342.79 67.6 343.83 68.45 344.32 69.05 343.97 69.05 342.99"/><polygon class="cls-40" points="68.45 341.95 67.6 341.46 71.16 339.4 72.01 339.89 68.57 341.96 68.45 341.95"/><polygon class="cls-30" points="69.05 342.99 68.45 341.95 72.01 339.89 72.61 340.93 69.16 343.04 69.05 342.99"/><polygon class="cls-6" points="69.05 343.97 69.05 342.99 72.61 340.93 72.61 341.92 69.05 343.97"/><polygon class="cls-55" points="67.25 343.97 66.7 343.02 65.91 342.57 65.36 342.88 65.36 343.79 65.91 344.75 66.7 345.2 67.25 344.88 67.25 343.97"/><polygon class="cls-56" points="66.7 343.02 65.91 342.57 67.55 341.62 68.33 342.07 66.8 343.03 66.7 343.02"/><polygon class="cls-57" points="67.25 343.97 66.7 343.02 68.33 342.07 68.89 343.03 67.35 344.02 67.25 343.97"/><polygon class="cls-58" points="67.25 344.88 67.25 343.97 68.89 343.03 68.89 343.94 67.25 344.88"/><polygon class="cls-16" points="75.08 338.12 74.23 337.63 75.53 336.87 76.39 337.36 75.19 338.14 75.08 338.12"/><polygon class="cls-14" points="75.68 339.17 75.08 338.12 76.39 337.36 76.99 338.41 75.78 339.21 75.68 339.17"/><polygon class="cls-15" points="75.68 340.15 75.68 339.17 76.99 338.41 76.99 339.39 75.68 340.15"/><polygon class="cls-25" points="134.83 268.95 134.6 268.96 134.44 268.86 134.44 268.73 134.6 268.64 134.83 268.63 134.99 268.73 134.99 268.86 134.83 268.95"/><polygon class="cls-8" points="134.6 268.96 134.44 268.86 134.44 271.91 134.6 272 134.61 268.97 134.6 268.96"/><polygon class="cls-25" points="134.83 268.95 134.6 268.96 134.6 272 134.83 272 134.85 268.97 134.83 268.95"/><polygon class="cls-6" points="134.99 268.86 134.83 268.95 134.83 272 134.99 271.91 134.99 268.86"/><polygon class="cls-25" points="107.45 253.19 107.22 253.19 107.06 253.1 107.06 252.97 107.22 252.87 107.45 252.87 107.61 252.97 107.61 253.1 107.45 253.19"/><polygon class="cls-8" points="107.22 253.19 107.06 253.1 107.06 256.14 107.22 256.24 107.23 253.21 107.22 253.19"/><polygon class="cls-25" points="107.45 253.19 107.22 253.19 107.22 256.24 107.45 256.24 107.46 253.21 107.45 253.19"/><polygon class="cls-6" points="107.61 253.1 107.45 253.19 107.45 256.24 107.61 256.14 107.61 253.1"/><path class="cls-1" d="M100.92,404.27,40,369.09l80.89-46.7,60.93,35.18Z" transform="translate(-30.58 -77.63)"/><path class="cls-59" d="M100.92,403.62l-59.8-34.53,79.76-46,59.8,34.53Z" transform="translate(-30.58 -77.63)"/><polygon class="cls-60" points="70.34 324.33 12.5 290.94 90.3 246.02 148.14 279.42 70.34 324.33"/><polygon class="cls-61" points="150.1 279.93 70.34 325.99 69.43 325.06 70.34 324.33 148.14 279.42 150.1 279.93"/><polygon class="cls-62" points="70.34 325.99 10.54 291.46 12.5 290.94 70.34 324.33 70.34 325.99"/><path class="cls-1" d="M158.09,353l-30.22-17.45,8.17-4.72,27.77,16,1.89,2,.31.17h-1.1Z" transform="translate(-30.58 -77.63)"/><polygon class="cls-25" points="127.51 275.05 97.86 257.93 97.86 257.36 135.12 270.09 127.51 275.05"/><polygon class="cls-6" points="127.51 275.05 127.51 274.49 129.85 271.19 135.12 270.09 135.12 271.28 134.05 271.28 127.51 275.05"/><polygon class="cls-40" points="127.51 274.49 97.86 257.36 105.46 252.97 135.12 270.09 127.51 274.49"/><path class="cls-8" d="M159.29,346.69h-1.13l-.81.46v.66l.81.46h1.13l.8-.46v-.66Z" transform="translate(-30.58 -77.63)"/><polygon class="cls-6" points="129.51 270.37 128.71 270.83 128.45 270.74 128.71 270.64 129.51 270.17 129.51 270.37"/><polygon class="cls-25" points="127.58 270.83 126.78 270.37 126.78 270.17 127.58 270.64 128.03 270.74 127.58 270.83"/><rect class="cls-63" x="127.58" y="270.64" width="1.13" height="0.19"/><path class="cls-8" d="M136.7,333.65h-1.13l-.8.46v.66l.8.46h1.13l.81-.46v-.66Z" transform="translate(-30.58 -77.63)"/><polygon class="cls-6" points="106.93 257.33 106.13 257.79 105.86 257.7 106.13 257.6 106.93 257.13 106.93 257.33"/><polygon class="cls-25" points="104.99 257.79 104.19 257.33 104.19 257.13 104.99 257.6 105.45 257.7 104.99 257.79"/><rect class="cls-63" x="104.99" y="257.6" width="1.14" height="0.19"/><polygon class="cls-13" points="138.42 281.59 143.11 278.88 90.4 248.45 86 250.99 94.39 257.6 122.97 275.38 138.42 281.59"/><polygon class="cls-8" points="86 250.99 81.28 254.23 88.44 265.06 118.63 281.11 133.99 284.67 138.42 281.59 86 250.99"/><polygon class="cls-13" points="81.28 254.23 19.5 289.9 72.21 320.33 133.99 284.67 81.28 254.23"/><polygon class="cls-7" points="85 260.81 82.87 262.04 121.19 284.17 123.33 282.94 85 260.81"/><polygon class="cls-7" points="107 280.25 79.17 264.18 77.04 265.41 104.86 281.48 107 280.25"/><polygon class="cls-7" points="71.21 268.78 109.53 290.9 111.67 289.67 73.34 267.54 71.21 268.78"/><polygon class="cls-7" points="65.38 272.14 103.7 294.27 105.83 293.04 67.51 270.91 65.38 272.14"/><polygon class="cls-7" points="59.54 275.51 97.87 297.64 100 296.41 61.67 274.28 59.54 275.51"/><polygon class="cls-7" points="53.71 278.88 92.04 301.01 94.17 299.77 55.84 277.65 53.71 278.88"/><polygon class="cls-7" points="64.05 304.83 74.73 311 76.87 309.76 66.19 303.6 64.05 304.83"/><polygon class="cls-7" points="77.84 297.08 50.01 281.01 47.88 282.24 75.71 298.31 77.84 297.08"/><polygon class="cls-25" points="100.42 257.09 100.31 256.89 100.15 256.8 100.03 256.86 100.03 257.05 100.15 257.25 100.31 257.34 100.42 257.27 100.42 257.09"/><polygon class="cls-8" points="100.31 256.89 100.15 256.8 107.33 252.65 107.49 252.74 100.33 256.89 100.31 256.89"/><polygon class="cls-25" points="100.42 257.09 100.31 256.89 107.49 252.74 107.61 252.94 100.44 257.1 100.42 257.09"/><polygon class="cls-6" points="100.42 257.27 100.42 257.09 107.61 252.94 107.61 253.13 100.42 257.27"/><polygon class="cls-25" points="127.42 272.78 127.53 272.59 127.69 272.49 127.81 272.56 127.81 272.75 127.69 272.94 127.53 273.04 127.42 272.97 127.42 272.78"/><polygon class="cls-8" points="127.53 272.59 127.69 272.49 100.47 256.8 100.31 256.89 127.51 272.59 127.53 272.59"/><polygon class="cls-25" points="127.42 272.78 127.53 272.59 100.31 256.89 100.03 257 127.4 272.79 127.42 272.78"/><polygon class="cls-6" points="127.69 273.13 127.69 272.94 100.03 257 100.03 257.05 100.15 257.25 127.69 273.13"/><polygon class="cls-8" points="127.69 272.68 127.53 272.59 134.72 268.44 134.88 268.53 127.71 272.68 127.69 272.68"/><polygon class="cls-25" points="127.69 272.94 127.69 272.68 134.88 268.53 134.99 268.73 127.89 272.89 127.69 272.94"/><polygon class="cls-6" points="127.69 273.13 127.6 273.03 127.69 272.94 134.99 268.73 134.99 268.92 127.69 273.13"/><rect class="cls-15" x="284.38" y="240.59" width="0.93" height="9.69"/><rect class="cls-44" x="284.38" y="240.23" width="0.46" height="9.69"/><rect class="cls-16" x="284.12" y="238.76" width="0.52" height="9.69"/><polygon class="cls-15" points="332.24 266.24 333.14 267.14 333.14 267.45 332.49 267.54 332.02 266.65 332.24 266.24"/><polygon class="cls-16" points="312.64 266.24 332.24 266.24 332.24 266.55 322.89 267.5 312.64 266.55 312.64 266.24"/><polygon class="cls-43" points="333.14 267.45 332.24 266.55 312.64 266.55 312.64 297.1 332.24 297.1 333.14 296.2 333.14 267.45"/><polygon class="cls-34" points="331.66 282.04 330.83 282.04 330.83 282.17 331.38 282.42 331.66 282.17 331.66 282.04"/><polygon class="cls-33" points="330.83 282.04 330.24 282.63 330.24 282.76 330.65 282.64 330.83 282.17 330.83 282.04"/><polygon class="cls-32" points="331.66 282.04 332.25 282.63 332.25 282.76 331.84 282.64 331.66 282.17 331.66 282.04"/><polygon class="cls-36" points="332.25 282.76 331.66 282.17 330.83 282.17 330.24 282.76 330.24 286.24 330.83 286.83 331.66 286.83 332.25 286.24 332.25 282.76"/><polygon class="cls-32" points="331.95 282.98 331.66 282.69 331.24 282.69 330.95 282.98 330.95 285.36 331.24 285.65 331.66 285.65 331.95 285.36 331.95 282.98"/><polygon class="cls-14" points="329.53 270.3 328.82 269.58 318.15 269.58 317.43 270.3 317.43 276.84 318.15 277.56 328.82 277.56 329.53 276.84 329.53 270.3"/><polygon class="cls-15" points="328.9 270.37 328.26 269.73 318.71 269.73 318.07 270.37 318.07 276.23 318.71 276.87 328.26 276.87 328.9 276.23 328.9 270.37"/><polygon class="cls-1" points="316.98 310.63 241.11 354.43 207.78 335.19 283.65 291.39 316.98 310.63"/><polygon class="cls-41" points="225.16 292.45 225.99 291.97 228.79 293.7 229.63 295.14 229.63 297.92 228.12 298.79 225.99 296.67 225.16 295.24 225.16 292.45"/><polygon class="cls-42" points="224.88 292.61 225.71 292.14 227.83 294.26 228.66 295.7 228.66 298.47 227.83 298.96 225.71 296.83 224.88 295.4 224.88 292.61"/><polygon class="cls-45" points="229.5 298.35 228.75 297.93 228.75 297.54 229.62 297.91 229.5 298.35"/><polygon class="cls-42" points="229.5 297.96 228.75 297.54 228.99 297.13 230.07 297.37 229.5 297.96"/><polygon class="cls-44" points="229.73 297.56 228.99 297.13 229.33 296.94 230.07 297.37 229.73 297.56"/><polygon class="cls-41" points="230.31 297.5 230.07 297.37 229.73 297.56 229.5 297.96 229.5 298.35 229.73 298.49 230.07 298.3 230.31 297.88 230.31 297.5"/><polygon class="cls-32" points="260.11 335.17 250.76 329.77 250.76 324.22 265.6 329.65 260.11 335.17"/><polygon class="cls-44" points="255.73 331.06 250.14 327.83 244.87 330.88 250.5 336.28 255.73 331.06"/><polygon class="cls-42" points="249.97 333.83 249.22 333.4 254.5 330.35 255.25 330.78 249.97 333.83"/><polygon class="cls-42" points="248.68 333.08 247.94 332.65 253.21 329.61 253.95 330.04 248.68 333.08"/><polygon class="cls-42" points="247.39 332.33 246.64 331.9 251.91 328.86 252.66 329.29 247.39 332.33"/><polygon class="cls-42" points="251.37 328.54 246.1 331.59 245.35 331.15 250.62 328.11 251.37 328.54"/><polygon class="cls-42" points="250.46 334.11 244.87 330.88 241.14 337.33 246.74 346.64 250.46 334.11"/><polygon class="cls-41" points="246.25 340.27 245.5 339.84 249.22 333.4 249.97 333.83 246.25 340.27"/><rect class="cls-41" x="273.3" y="413.29" width="7.45" height="0.86" transform="translate(-250.32 369.77) rotate(-60.07)"/><rect class="cls-41" x="272.01" y="412.54" width="7.45" height="0.86" transform="translate(-250.4 367.07) rotate(-59.93)"/><rect class="cls-41" x="270.72" y="411.79" width="7.45" height="0.87" transform="translate(-250.36 366.14) rotate(-60)"/><polygon class="cls-45" points="246.74 340.56 241.14 337.33 241.14 343.41 246.74 346.64 246.74 340.56"/><polygon points="246.25 346.36 245.5 345.92 245.5 339.84 246.25 340.27 246.25 346.36"/><polygon points="244.96 345.61 244.21 345.18 244.21 339.1 244.96 339.53 244.96 345.61"/><polygon points="243.67 344.86 242.92 344.43 242.92 338.35 243.67 338.78 243.67 344.86"/><polygon points="242.38 338.04 242.38 344.12 241.63 343.69 241.63 337.61 242.38 338.04"/><polygon class="cls-41" points="250.46 348.79 246.74 346.64 246.73 340.56 250.46 334.1 255.73 331.06 259.45 333.21 259.46 339.3 255.73 345.75 250.46 348.79"/><polygon class="cls-42" points="251.59 344.96 254.59 343.24 256.71 339.57 256.71 336.11 256.21 335.83 256.21 339.29 254.1 342.95 251.1 344.68 251.59 344.96"/><polygon class="cls-25" points="251.1 344.68 254.1 342.95 256.21 339.29 256.21 335.83 254.59 334.89 252.24 336.25 251.24 337.25 249.48 340.28 249.48 343.74 251.1 344.68"/><polygon class="cls-6" points="251.63 338.13 252.2 337.8 252.6 337.11 252.6 336.45 252.34 336.3 252.35 336.96 251.94 337.65 251.38 337.98 251.63 338.13"/><polygon class="cls-41" points="251.38 337.98 251.94 337.65 252.35 336.96 252.34 336.3 252.24 336.25 251.6 336.62 251.23 337.25 251.23 337.89 251.38 337.98"/><polygon class="cls-6" points="251.63 343.85 252.2 343.52 252.6 342.83 252.6 342.18 252.35 342.02 252.35 342.69 251.95 343.38 251.38 343.7 251.63 343.85"/><polygon class="cls-41" points="251.38 343.7 251.95 343.38 252.35 342.69 252.35 342.02 252.2 341.94 251.63 342.27 251.23 342.96 251.23 343.62 251.38 343.7"/><polygon class="cls-6" points="250.45 343 250.3 342.92 250.3 342.66 250.46 342.4 250.68 342.27 250.82 342.36 250.83 342.61 250.68 342.88 250.45 343"/><polygon class="cls-6" points="255.19 338.46 255.03 338.37 255.03 338.11 255.18 337.84 255.4 337.72 255.56 337.81 255.56 338.06 255.4 338.33 255.19 338.46"/><polygon class="cls-6" points="253.22 342.25 253.06 342.17 253.07 341.92 253.22 341.65 253.44 341.52 253.6 341.61 253.6 341.87 253.44 342.13 253.22 342.25"/><polygon class="cls-6" points="253.22 336.92 253.06 336.83 253.07 336.58 253.22 336.31 253.44 336.18 253.6 336.27 253.6 336.52 253.44 336.79 253.22 336.92"/><polygon class="cls-6" points="250.45 339.36 250.3 339.27 250.3 339.01 250.45 338.75 250.67 338.62 250.83 338.71 250.82 338.96 250.68 339.23 250.45 339.36"/><polygon class="cls-6" points="249.86 342.02 250.43 341.69 250.82 341 250.82 340.34 250.57 340.19 250.57 340.85 250.17 341.54 249.6 341.87 249.86 342.02"/><polygon class="cls-41" points="249.6 341.87 250.17 341.54 250.57 340.85 250.57 340.19 250.43 340.11 249.86 340.44 249.46 341.13 249.46 341.79 249.6 341.87"/><polygon class="cls-6" points="254.32 337.73 254.89 337.41 255.29 336.72 255.3 336.06 255.04 335.91 255.04 336.56 254.64 337.26 254.07 337.59 254.32 337.73"/><polygon class="cls-41" points="254.07 337.59 254.64 337.26 255.04 336.56 255.04 335.91 255.04 335.91 254.89 335.83 254.32 336.16 253.93 336.85 253.93 337.5 254.07 337.59"/><polygon class="cls-6" points="254.33 341.13 254.89 340.81 255.29 340.11 255.3 339.46 255.04 339.31 255.04 339.96 254.64 340.66 254.07 340.98 254.33 341.13"/><polygon class="cls-41" points="254.07 340.98 254.64 340.66 255.04 339.96 255.04 339.31 254.89 339.23 254.33 339.56 253.93 340.25 253.92 340.9 254.07 340.98"/><polygon class="cls-63" points="252.1 340.97 251.61 340.69 251.61 339.74 252.19 338.73 253.01 338.26 253.51 338.54 253.6 339.54 253.02 340.55 252.1 340.97"/><polygon class="cls-6" points="252.68 341.31 252.1 340.97 252.1 340.02 252.68 339.02 253.51 338.54 254.09 338.87 254.08 339.83 253.51 340.83 252.68 341.31"/><polygon class="cls-32" points="303.52 310.51 294.17 305.11 294.17 299.56 309 304.98 303.52 310.51"/><polygon class="cls-44" points="299.09 306.03 293.5 302.8 288.23 305.84 293.86 311.24 299.09 306.03"/><polygon class="cls-42" points="293.33 308.79 292.58 308.36 297.86 305.32 298.61 305.75 293.33 308.79"/><polygon class="cls-42" points="292.04 308.05 291.29 307.61 296.56 304.57 297.31 305 292.04 308.05"/><polygon class="cls-42" points="290.75 307.3 290 306.87 295.27 303.82 296.02 304.25 290.75 307.3"/><polygon class="cls-42" points="294.73 303.51 289.46 306.55 288.71 306.12 293.98 303.07 294.73 303.51"/><polygon class="cls-42" points="293.82 309.07 288.23 305.84 284.5 312.29 290.09 321.6 293.82 309.07"/><polygon class="cls-41" points="289.61 315.24 288.87 314.81 292.58 308.36 293.33 308.79 289.61 315.24"/><rect class="cls-41" x="316.66" y="388.25" width="7.45" height="0.86" transform="translate(-206.77 395.53) rotate(-60.16)"/><rect class="cls-41" x="315.37" y="387.51" width="7.44" height="0.86" transform="translate(-206.97 392.84) rotate(-60.02)"/><polygon class="cls-41" points="289.46 306.55 285.74 313 284.99 312.57 288.71 306.12 289.46 306.55"/><polygon class="cls-45" points="290.09 315.52 284.5 312.29 284.5 318.37 290.09 321.6 290.09 315.52"/><polygon points="289.61 321.32 288.87 320.89 288.87 314.81 289.61 315.24 289.61 321.32"/><polygon points="288.32 320.57 287.57 320.14 287.57 314.06 288.32 314.49 288.32 320.57"/><polygon points="287.03 319.83 286.28 319.4 286.28 313.31 287.03 313.75 287.03 319.83"/><polygon points="285.74 313 285.74 319.08 284.99 318.65 284.99 312.57 285.74 313"/><polygon class="cls-41" points="293.82 323.76 290.09 321.6 290.09 315.52 293.82 309.06 299.09 306.03 302.81 308.18 302.81 314.26 299.09 320.71 293.82 323.76"/><polygon class="cls-42" points="294.95 319.93 297.95 318.2 300.07 314.53 300.06 311.08 299.57 310.79 299.57 314.25 297.45 317.91 294.46 319.65 294.95 319.93"/><polygon class="cls-25" points="294.46 319.65 297.45 317.91 299.57 314.25 299.57 310.79 297.95 309.86 295.6 311.21 294.6 312.21 292.84 315.25 292.84 318.7 294.46 319.65"/><polygon class="cls-6" points="294.99 313.09 295.56 312.76 295.96 312.07 295.96 311.42 295.7 311.27 295.7 311.92 295.3 312.62 294.74 312.95 294.99 313.09"/><polygon class="cls-41" points="294.74 312.95 295.3 312.62 295.7 311.92 295.7 311.27 295.6 311.21 294.95 311.59 294.59 312.21 294.59 312.86 294.74 312.95"/><polygon class="cls-6" points="294.99 318.82 295.56 318.49 295.96 317.8 295.96 317.14 295.7 316.99 295.7 317.65 295.31 318.34 294.74 318.67 294.99 318.82"/><polygon class="cls-41" points="294.74 318.67 295.31 318.34 295.7 317.65 295.7 316.99 295.56 316.91 295 317.24 294.59 317.93 294.59 318.59 294.74 318.67"/><polygon class="cls-6" points="293.81 317.97 293.65 317.88 293.65 317.63 293.82 317.36 294.03 317.24 294.18 317.33 294.19 317.58 294.03 317.84 293.81 317.97"/><polygon class="cls-6" points="298.54 313.42 298.39 313.33 298.39 313.08 298.54 312.81 298.76 312.69 298.92 312.78 298.92 313.02 298.76 313.29 298.54 313.42"/><polygon class="cls-6" points="296.58 317.22 296.42 317.14 296.43 316.89 296.57 316.62 296.8 316.49 296.95 316.58 296.95 316.83 296.8 317.1 296.58 317.22"/><polygon class="cls-6" points="296.57 311.88 296.42 311.79 296.43 311.54 296.58 311.27 296.8 311.15 296.95 311.23 296.95 311.49 296.8 311.76 296.57 311.88"/><polygon class="cls-6" points="293.81 314.32 293.66 314.23 293.66 313.98 293.81 313.71 294.03 313.59 294.19 313.67 294.18 313.93 294.03 314.19 293.81 314.32"/><polygon class="cls-6" points="293.22 316.98 293.78 316.65 294.18 315.96 294.18 315.3 293.93 315.15 293.93 315.81 293.53 316.5 292.96 316.83 293.22 316.98"/><polygon class="cls-41" points="292.96 316.83 293.53 316.5 293.93 315.81 293.93 315.15 293.79 315.07 293.22 315.4 292.81 316.09 292.81 316.75 292.96 316.83"/><polygon class="cls-6" points="297.68 312.7 298.25 312.37 298.65 311.68 298.66 311.02 298.4 310.88 298.4 311.53 298 312.22 297.43 312.56 297.68 312.7"/><polygon class="cls-41" points="297.43 312.56 298 312.22 298.4 311.53 298.4 310.88 298.4 310.87 298.25 310.79 297.68 311.12 297.29 311.81 297.29 312.47 297.43 312.56"/><polygon class="cls-6" points="297.69 316.1 298.25 315.78 298.65 315.08 298.65 314.42 298.4 314.28 298.4 314.93 298 315.62 297.43 315.95 297.69 316.1"/><polygon class="cls-41" points="297.43 315.95 298 315.62 298.4 314.93 298.4 314.28 298.25 314.2 297.69 314.52 297.29 315.21 297.28 315.87 297.43 315.95"/><polygon class="cls-63" points="295.46 315.94 294.97 315.66 294.96 314.71 295.55 313.7 296.37 313.22 296.86 313.5 296.95 314.51 296.38 315.51 295.46 315.94"/><polygon class="cls-6" points="296.04 316.28 295.46 315.94 295.46 314.99 296.04 313.98 296.86 313.5 297.44 313.84 297.44 314.79 296.87 315.8 296.04 316.28"/><polygon class="cls-16" points="243.44 329 212.33 311.04 222.97 300.75 255.73 318.54 243.44 329"/><polygon class="cls-6" points="216.94 316.82 212.33 317.89 215.99 324.74 235.18 337.11 236.62 331.9 236.9 325.68 216.94 316.82"/><polygon class="cls-42" points="218.1 325.32 218.1 321.63 218.88 318.68 218.11 318.24 217.34 321.19 217.34 324.88 218.1 325.32"/><polygon class="cls-42" points="220.34 326.61 220.34 322.92 221.12 319.98 220.35 319.54 219.58 322.48 219.58 326.17 220.34 326.61"/><polygon class="cls-42" points="222.58 327.91 222.58 324.22 223.36 321.27 222.59 320.83 221.82 323.78 221.82 327.46 222.58 327.91"/><polygon class="cls-42" points="224.82 329.2 224.82 325.51 225.6 322.57 224.83 322.12 224.06 325.07 224.06 328.75 224.82 329.2"/><polygon class="cls-42" points="227.06 330.49 227.06 326.81 227.84 323.86 227.07 323.42 226.3 326.36 226.3 330.05 227.06 330.49"/><polygon class="cls-42" points="229.31 331.79 229.31 328.1 230.08 325.15 229.31 324.71 228.53 327.65 228.53 331.35 229.31 331.79"/><polygon class="cls-42" points="231.54 333.08 231.54 329.39 232.32 326.44 231.55 326 230.78 328.95 230.78 332.64 231.54 333.08"/><polygon class="cls-42" points="233.78 334.37 233.78 330.69 234.56 327.74 233.79 327.3 233.02 330.24 233.02 333.93 233.78 334.37"/><polygon class="cls-64" points="215.99 324.74 210.03 321.3 210.03 318.47 215.99 321.91 215.99 324.74"/><polygon class="cls-25" points="215.99 321.91 210.03 318.47 210.03 316.97 215.99 320.41 215.99 321.91"/><polygon class="cls-13" points="215.99 320.41 210.03 316.97 210.97 313.38 216.94 316.82 215.99 320.41"/><rect class="cls-14" x="256.43" y="380.86" width="2.71" height="35.92" transform="translate(-247.08 345.01) rotate(-60)"/><polygon class="cls-14" points="254.08 318.72 222.97 300.75 233.49 284.68 260.2 290.46 266.34 305.15 254.08 318.72"/><polygon class="cls-14" points="277.06 293.38 259.59 287.74 246.05 275.48 246.05 268.07 277.06 285.98 277.06 293.38"/><polygon class="cls-16" points="245.95 275.42 237.17 280.97 233.49 284.68 264.6 302.64 268.4 303.5 277.06 293.38 245.95 275.42"/><polygon class="cls-16" points="277.17 286.03 286.75 289.58 313.94 264.8 282.83 246.84 246.05 268.07 277.17 286.03"/><polygon class="cls-15" points="313.94 264.8 277.06 285.98 277.06 293.38 268.28 298.93 264.6 302.64 254.08 318.72 243.44 329 242.09 331.35 243.7 330.4 244.25 330.69 244.24 337.47 247.43 335.63 247.43 336.33 250.13 331.67 256.4 327.96 260.11 329.85 260.11 335.17 261.34 334.86 289.39 318.66 289.39 313.77 293.53 306.61 299.57 303 303.52 305.19 303.52 310.51 304.55 309.91 312.2 304.16 313.94 299.8 313.94 264.8"/><polygon class="cls-3" points="313.36 287.22 278.03 307.61 278.03 302.24 313.36 281.85 313.36 287.22"/><polygon class="cls-3" points="313.36 280.42 278.03 300.81 278.03 299.49 313.36 279.09 313.36 280.42"/><path class="cls-3" d="M313.84,367.89l.94-.54c1.2-.69,1.89-.46,1.89.85a5,5,0,0,1-2.35,4.36l-1.34.77Zm.46,3.85a3.27,3.27,0,0,0,1.45-2.94c0-.82-.39-.95-1-.61l-.17.1-.56,3.6Z" transform="translate(-30.58 -77.63)"/><path class="cls-3" d="M317.89,365.55l2.53-1.46-.14,1-1.65.95-.18,1.18,1.4-.81-.15,1-1.4.81-.22,1.38,1.7-1-.14.95L317,371Z" transform="translate(-30.58 -77.63)"/><path class="cls-3" d="M321.35,363.55l.9-.51-.71,4.48,1.63-.94-.15,1L320.49,369Z" transform="translate(-30.58 -77.63)"/><path class="cls-3" d="M324.64,361.66l.9-.52-.86,5.44-.9.52Z" transform="translate(-30.58 -77.63)"/><path class="cls-3" d="M326,360.85l.94-.55.11,2.37c0,.52,0,1,.05,1.56h0c.19-.65.39-1.29.59-1.93l1-3,1-.57L327.5,365l-1.09.63Z" transform="translate(-30.58 -77.63)"/><path class="cls-3" d="M330.21,358.44l2.53-1.46-.14.95-1.65,1-.18,1.18,1.4-.81-.15,1-1.4.8-.22,1.38,1.7-1-.14,1-2.61,1.5Z" transform="translate(-30.58 -77.63)"/><path class="cls-3" d="M333.67,356.44l1.34-.77c.84-.49,1.47-.5,1.47.42a3.3,3.3,0,0,1-1.09,2.35l.66,1.57-.95.55-.55-1.49-.52.3-.31,2-.91.52Zm.95,1.76a1.72,1.72,0,0,0,1-1.45c0-.41-.26-.44-.72-.17l-.45.26-.25,1.62Z" transform="translate(-30.58 -77.63)"/><path class="cls-3" d="M337.62,357.32l-.68-2.76.93-.54.18,1.08.17,1h0c.17-.49.33-.92.52-1.41l.6-1.52,1-.55-1.81,4.2-.31,2-.89.51Z" transform="translate(-30.58 -77.63)"/><polygon class="cls-16" points="299.38 302.45 293.04 306.11 288.72 313.59 288.72 319.08 289.39 318.66 289.39 313.77 293.53 306.61 299.38 303.23 303.52 305.62 303.52 310.51 304.19 310.12 304.19 305.23 299.38 302.45"/><polygon class="cls-44" points="315.12 300.79 312.8 301.6 311.81 301.03 313.94 299.8 313.94 298.16 316.35 299.56 315.12 300.79"/><polygon class="cls-42" points="314.25 301.86 312.03 303.11 311.04 302.54 311.81 301.03 312.8 301.6 314.25 301.86"/><polygon class="cls-45" points="312.32 304.03 312.03 305.7 311.04 305.13 311.04 302.54 312.03 303.11 312.32 304.03"/><polygon class="cls-41" points="316.35 299.56 312.8 301.6 312.03 303.11 312.03 305.7 316.02 303.39 316.35 302.38 316.35 299.56"/><path class="cls-65" d="M308,402.41l-15.82,9.13v-5.07l-2.27-1.28V390.24l5.73-9.6,3.31-3.32,9-5.69Zm-15.63,8.8,15.44-8.91V372L299,377.53l-3.25,3.27-5.62,9.42V405l2.27,1.28Z" transform="translate(-30.58 -77.63)"/><polygon class="cls-14" points="240.52 345.92 207.95 327.11 207.95 324.4 240.52 343.21 241.63 344.24 240.52 345.92"/><polygon class="cls-15" points="246.75 339.63 243.44 340.86 240.52 343.21 240.52 345.92 242.07 346.31 246.75 343.61 246.75 339.63"/><polygon class="cls-44" points="244.96 338.62 240.05 340.77 207.49 321.96 210.03 320.5 210.03 321.3 241.14 339.26 247.43 335.63 248.19 336.07 244.96 338.62"/><polygon class="cls-42" points="240.05 343.48 207.49 324.67 207.49 321.96 240.05 340.77 241.14 341.61 240.05 343.48"/><polygon class="cls-41" points="246.75 339.27 248.19 336.77 248.19 336.07 240.05 340.77 240.05 343.48 246.75 339.61 246.75 339.27"/><polygon class="cls-64" points="241.14 339.26 235.18 335.82 235.18 332.98 241.14 336.43 241.83 337.28 241.14 339.26"/><polygon class="cls-25" points="241.14 336.43 235.18 332.98 235.18 331.49 241.14 334.93 241.63 335.48 241.14 336.43"/><polygon class="cls-13" points="241.14 334.93 235.18 331.49 236.12 327.9 242.09 331.35 242.24 333.62 241.14 334.93"/><polygon class="cls-66" points="241.14 336.43 244.24 334.63 244.24 337.47 241.14 339.26 241.14 336.43"/><polygon class="cls-6" points="244.25 333.14 241.14 334.93 241.14 336.43 244.25 334.63 244.25 333.14"/><polygon class="cls-7" points="244.25 330.69 243.7 330.4 242.09 331.35 241.14 334.93 244.25 333.14 244.25 330.69"/><polygon class="cls-41" points="274.94 296.68 268.69 300.28 265.4 303.69 257.32 317.09 257.32 318.19 274.84 308.08 275.32 307.07 275.32 297.07 274.94 296.68"/><polygon class="cls-45" points="274.88 297.1 274.69 297.21 274.69 306.82 274.29 307.67 261.06 315.3 261.06 315.64 274.58 307.84 274.99 306.99 274.99 297.21 274.88 297.1"/><polygon class="cls-32" points="268.9 300.55 265.67 303.9 261.06 311.54 261.06 315.3 274.29 307.67 274.69 306.82 274.69 297.21 268.9 300.55"/><polygon class="cls-44" points="274.83 310.33 274.48 310.94 274.48 313.75 274.83 313.95 275.55 313.53 275.9 312.92 275.9 310.12 275.55 309.91 274.83 310.33"/><polygon class="cls-41" points="274.27 310.82 274.48 310.94 274.48 313.75 274.27 313.63 274.27 310.82"/><polygon class="cls-45" points="274.62 310.21 274.83 310.33 274.48 310.94 274.27 310.82 274.62 310.21"/><polygon class="cls-42" points="275.33 309.79 275.55 309.91 274.83 310.33 274.62 310.21 275.33 309.79"/><polygon class="cls-41" points="253.93 317.84 223.98 300.54 233.73 285.65 263.68 302.94 253.93 317.84"/><polygon class="cls-32" points="253.99 317.12 253.82 317.39 224.45 300.43 233.84 286.1 233.98 286.18 224.77 300.25 253.99 317.12"/><polygon class="cls-67" points="263.2 303.05 253.99 317.12 224.77 300.25 233.98 286.18 235.1 286.82 237.54 290.7 242.43 291.06 263.2 303.05"/><polygon class="cls-68" points="235.1 286.82 230.75 294.04 230.75 297.8 242.43 291.05 235.1 286.82"/><polygon class="cls-45" points="260.8 315.88 260.05 315.46 260.05 315.06 260.91 315.43 260.8 315.88"/><polygon class="cls-42" points="260.8 315.5 260.05 315.06 260.29 314.66 261.37 314.89 260.8 315.5"/><polygon class="cls-44" points="261.03 315.08 260.29 314.66 260.63 314.46 261.37 314.89 261.03 315.08"/><polygon class="cls-32" points="261.6 315.03 261.37 314.89 261.03 315.08 260.8 315.5 260.8 315.88 261.03 316.02 261.37 315.83 261.6 315.42 261.6 315.03"/><polygon class="cls-41" points="260.99 313.49 262.5 312.62 265.51 314.24 266.34 315.67 266.34 318.45 265.51 318.94 261.82 317.71 260.99 316.27 260.99 313.49"/><polygon class="cls-42" points="260.71 313.66 261.54 313.18 265.23 314.4 266.06 315.84 266.06 318.62 265.23 319.09 261.54 317.88 260.71 316.44 260.71 313.66"/><polygon class="cls-43" points="304.27 310.94 303.52 310.51 303.52 305.05 304.27 305.49 304.27 310.94"/><polygon class="cls-15" points="300.13 302.88 293.79 306.55 289.47 314.02 289.47 319.48 290.14 319.06 290.14 314.2 294.28 307.04 300.13 303.66 304.27 306.05 304.27 310.94 304.94 310.55 304.94 305.66 300.13 302.88"/><polygon class="cls-16" points="293.79 306.55 293.04 306.11 299.38 302.45 300.13 302.88 293.79 306.55"/><rect class="cls-14" x="317.52" y="387.27" width="8.64" height="0.86" transform="translate(-205.29 395.72) rotate(-60.09)"/><polygon class="cls-43" points="289.47 319.48 288.72 319.05 288.72 313.59 289.47 314.02 289.47 319.48"/><polygon class="cls-14" points="260.86 335.6 260.11 335.17 260.11 329.71 260.86 330.15 260.86 335.6"/><polygon class="cls-15" points="256.73 327.55 250.38 331.21 247.27 336.6 248.45 335.92 250.87 331.7 256.73 328.32 260.86 330.71 260.86 335.6 261.53 335.21 261.53 330.32 256.73 327.55"/><polygon class="cls-16" points="250.38 331.21 249.64 330.78 255.98 327.11 256.73 327.55 250.38 331.21"/><polygon class="cls-43" points="246.52 336.16 249.64 330.78 250.38 331.21 247.27 336.6 246.52 336.16"/><polygon class="cls-13" points="238.69 49.46 231.23 45.15 237.68 41.42 245.14 45.73 238.69 49.46"/><polygon class="cls-8" points="238.69 45.16 238.69 49.46 231.23 45.15 225.96 48.19 225.96 56.81 231.23 65.94 264.15 84.94 269.42 81.89 269.42 73.28 264.15 64.16 256.69 59.85 256.69 55.54 251.42 46.42 243.96 42.11 238.69 45.16"/><polygon class="cls-13" points="251.42 46.42 243.96 42.11 250.42 38.38 257.87 42.68 251.42 46.42"/><polygon class="cls-13" points="264.15 64.16 256.69 59.85 263.15 56.12 270.6 60.43 264.15 64.16"/><polygon class="cls-7" points="256.69 55.54 251.42 46.42 257.87 42.68 263.15 51.81 256.69 55.54"/><rect class="cls-7" x="296.87" y="139.22" width="7.45" height="10.54" transform="translate(-62.56 91.92) rotate(-29.98)"/><polygon class="cls-30" points="263.15 56.12 256.69 59.85 256.69 55.54 263.15 51.81 263.15 56.12"/><polygon class="cls-30" points="275.87 78.17 269.42 81.89 269.42 73.28 275.87 69.56 275.87 78.17"/><polygon class="cls-13" points="285.29 32.75 280.71 30.11 284.67 27.82 289.25 30.46 285.29 32.75"/><polygon class="cls-8" points="285.29 30.11 285.29 32.75 280.71 30.11 277.47 31.98 277.47 37.26 280.71 42.87 300.92 54.53 304.15 52.66 304.15 47.38 300.92 41.77 296.33 39.13 296.33 36.48 293.1 30.89 288.52 28.24 285.29 30.11"/><polygon class="cls-13" points="293.1 30.89 288.52 28.24 292.48 25.95 297.06 28.59 293.1 30.89"/><polygon class="cls-13" points="300.92 41.77 296.33 39.13 300.3 36.84 304.87 39.48 300.92 41.77"/><polygon class="cls-7" points="296.33 36.48 293.1 30.89 297.06 28.59 300.3 34.2 296.33 36.48"/><rect class="cls-7" x="332.8" y="117.83" width="4.57" height="6.47" transform="translate(-46.23 106.04) rotate(-29.98)"/><polygon class="cls-30" points="300.3 36.84 296.33 39.13 296.33 36.48 300.3 34.2 300.3 36.84"/><polygon class="cls-30" points="308.11 50.38 304.15 52.66 304.15 47.38 308.11 45.09 308.11 50.38"/><polygon class="cls-13" points="28.2 39.19 24.01 36.77 27.63 34.68 31.83 37.1 28.2 39.19"/><polygon class="cls-8" points="28.2 36.78 28.2 39.2 24.01 36.77 21.04 38.48 21.04 43.33 24.01 48.46 42.51 59.14 45.48 57.43 45.48 52.59 42.51 47.46 38.32 45.04 38.32 42.61 35.35 37.49 31.16 35.07 28.2 36.78"/><polygon class="cls-13" points="35.35 37.49 31.16 35.07 34.79 32.97 38.98 35.39 35.35 37.49"/><polygon class="cls-13" points="42.51 47.46 38.32 45.04 41.95 42.94 46.14 45.36 42.51 47.46"/><rect class="cls-7" x="67.13" y="113.67" width="4.19" height="5.92" transform="translate(-79.69 -27.26) rotate(-30.06)"/><rect class="cls-7" x="74.29" y="123.64" width="4.19" height="5.93" transform="translate(-83.63 -22.51) rotate(-29.99)"/><polygon class="cls-30" points="41.95 42.94 38.32 45.04 38.32 42.61 41.95 40.52 41.95 42.94"/><polygon class="cls-30" points="49.1 55.34 45.48 57.43 45.48 52.59 49.1 50.49 49.1 55.34"/><polygon class="cls-13" points="182.56 10.18 176.55 6.71 181.75 3.71 187.76 7.18 182.56 10.18"/><polygon class="cls-8" points="182.57 6.72 182.57 10.19 176.55 6.71 172.31 9.16 172.31 16.11 176.55 23.46 203.09 38.78 207.33 36.32 207.33 29.38 203.09 22.03 197.07 18.56 197.07 15.08 192.82 7.74 186.81 4.26 182.57 6.72"/><polygon class="cls-13" points="192.82 7.74 186.81 4.26 192.02 1.26 198.03 4.72 192.82 7.74"/><polygon class="cls-13" points="203.09 22.03 197.07 18.56 202.28 15.55 208.28 19.02 203.09 22.03"/><polygon class="cls-7" points="197.07 15.08 192.82 7.74 198.03 4.72 202.28 12.08 197.07 15.08"/><rect class="cls-7" x="235.39" y="97.59" width="6" height="8.5" transform="translate(-49.57 55.12) rotate(-29.98)"/><polygon class="cls-30" points="202.28 15.55 197.07 18.56 197.07 15.08 202.28 12.08 202.28 15.55"/><polygon class="cls-30" points="212.53 33.32 207.33 36.32 207.33 29.38 212.53 26.38 212.53 33.32"/><polygon class="cls-13" points="323.48 8.19 317.96 5.01 322.74 2.25 328.25 5.44 323.48 8.19"/><polygon class="cls-8" points="323.48 5.01 323.48 8.2 317.96 5.01 314.06 7.26 314.06 13.63 317.96 20.39 342.33 34.46 346.22 32.2 346.22 25.83 342.33 19.07 336.81 15.88 336.81 12.7 332.9 5.95 327.38 2.76 323.48 5.01"/><polygon class="cls-13" points="332.9 5.95 327.38 2.76 332.16 0 337.68 3.18 332.9 5.95"/><polygon class="cls-13" points="342.33 19.07 336.81 15.88 341.58 13.13 347.1 16.31 342.33 19.07"/><polygon class="cls-7" points="336.81 12.7 332.9 5.95 337.68 3.18 341.58 9.94 336.81 12.7"/><rect class="cls-7" x="374.48" y="94.8" width="5.51" height="7.8" transform="translate(-29.42 124.1) rotate(-29.98)"/><polygon class="cls-30" points="341.58 13.13 336.81 15.88 336.81 12.7 341.58 9.94 341.58 13.13"/><polygon class="cls-30" points="351 29.45 346.22 32.2 346.22 25.83 351 23.07 351 29.45"/><polygon class="cls-13" points="67.03 21.88 61.53 18.7 66.29 15.95 71.8 19.13 67.03 21.88"/><polygon class="cls-8" points="67.04 18.71 67.04 21.88 61.53 18.7 57.64 20.95 57.64 27.3 61.53 34.04 85.83 48.07 89.71 45.82 89.71 39.47 85.83 32.73 80.32 29.55 80.32 26.37 76.43 19.64 70.92 16.46 67.04 18.71"/><polygon class="cls-13" points="76.43 19.64 70.92 16.46 75.69 13.71 81.19 16.88 76.43 19.64"/><polygon class="cls-13" points="85.83 32.73 80.32 29.55 85.09 26.8 90.58 29.98 85.83 32.73"/><polygon class="cls-7" points="80.32 26.37 76.43 19.64 81.19 16.88 85.08 23.62 80.32 26.37"/><rect class="cls-7" x="117.98" y="108.46" width="5.5" height="7.78" transform="translate(-70.57 -2.27) rotate(-29.98)"/><polygon class="cls-30" points="85.08 26.8 80.32 29.55 80.32 26.37 85.08 23.62 85.08 26.8"/><polygon class="cls-30" points="94.48 43.07 89.71 45.82 89.71 39.47 94.48 36.72 94.48 43.07"/></svg>